<?xml version="1.0" encoding="utf-8"?>
<!-- Generator: Adobe Illustrator 19.2.1, SVG Export Plug-In . SVG Version: 6.00 Build 0)  -->
<svg version="1.1" id="Layer_1" xmlns="http://www.w3.org/2000/svg" xmlns:xlink="http://www.w3.org/1999/xlink" x="0px" y="0px"
	 viewBox="0 0 1440 1199.1" style="enable-background:new 0 0 1440 1199.1;" xml:space="preserve">
<g>
	<path d="M739.4,0c82.2,0,164.4-0.2,246.5,0c194.6,0.6,345.2,103.3,416.8,284.1c76.6,193.5,32.3,422.1-107,548.7
		c-75.2,68.3-164.7,104.1-265.5,107.2c-101.3,3.1-202.9,2.1-304.3,1c-26.3-0.3-45.6,6.6-64.3,25.7c-67.5,68.7-136.3,136-205.2,203.3
		c-36.4,35.5-65.9,41.4-104,23c-29-14-45.6-34.6-44.4-69.4c1.8-50-0.6-100.2,0.9-150.2c0.7-22.4-6.8-33.1-27.6-42.8
		C91.9,842.6-18.2,641.7,2.5,425.6C21.1,231.7,172.5,60.8,370.9,13.5c39.5-9.4,81.2-12,121.9-12.9C575-1.4,657.2,0,739.4,0z
		 M1118.1,482.2c1.1-43.6-35.6-81.2-79.7-81.6c-43.2-0.4-78.7,33.1-80.5,76.1c-1.8,44.5,32.8,82.4,77,84.2
		C1077.7,562.6,1116.9,525.5,1118.1,482.2z M461.5,400.7c-44.6-0.9-81.2,34.6-81.6,79c-0.4,44,36.5,81.5,80.1,81.4
		c41.6-0.1,78.5-36,80.3-77.9C542,439.8,505.5,401.5,461.5,400.7z M828,478.5c-0.9-45.1-37.1-79.3-82.2-77.8
		c-43,1.4-77.3,36.8-77.3,79.8c0,43.9,37.4,81.1,81.1,80.5C793.5,560.4,828.9,523.2,828,478.5z"/>
</g>
</svg>
