<svg id="Layer_1" data-name="Layer 1" xmlns="http://www.w3.org/2000/svg" viewBox="0 0 658.4 658.16"><title>circle-arrow-left</title><path d="M172.25,499.86A328.35,328.35,0,0,1,502.14,171c182.16,0.3,328.78,147.25,328.51,329.27A328.4,328.4,0,0,1,500.77,829.12C318.53,828.69,172.06,681.89,172.25,499.86Zm306.4,55.06h7.25q103,0,206,0c17.14,0,29-11.74,29-28.8,0.07-17.33,0-34.66,0-52a34,34,0,0,0-.34-5.48c-2.37-14.34-13.82-23.49-29.6-23.5q-102.74-.05-205.47,0h-6.82c1.84-2,2.88-3.17,4-4.29q37.63-37.66,75.29-75.31c12.74-12.74,12.87-28.21.19-41q-17.94-18.12-36-36.07c-13-12.9-29.32-12.85-42.33.15Q384.68,383.67,289.6,478.78c-13.24,13.25-13.19,29.3.15,42.64q95.43,95.46,190.89,190.88c12.07,12.07,28.7,12,40.83,0,11.69-11.64,22.86-23.86,35.13-34.85,13.58-12.17,13.31-31.8.19-44.38-25-24-49.17-48.87-73.67-73.38C481.86,558.39,480.68,557.07,478.65,554.92Z" transform="translate(-172.25 -170.96)"/></svg>