<svg id="Layer_1" data-name="Layer 1" xmlns="http://www.w3.org/2000/svg" viewBox="0 0 1029.17 1028.92"><title>circle-arrow-right</title><path d="M686.47,1219.06C403.57,1220.18,172.14,988.88,172,705,171.9,420.22,404.26,190.19,686.5,190.14c282.47-.05,514.7,230.13,514.7,514.62C1201.19,988.6,969.81,1220.31,686.47,1219.06Zm34.62-428.67,1.57,2c-1.57,1-3.41,1.64-4.68,2.9q-60.18,60-120.22,120.19c-19.53,19.62-19.24,44.11.3,63.58q28.87,28.78,57.66,57.63c18.39,18.36,44.81,18.33,63.23-.09Q869,886.58,1019.1,736.49c18.45-18.45,18.57-44.69.3-63.28-7-7.13-14.14-14.14-21.21-21.21Q858.89,512.71,719.59,373.42c-19.39-19.38-45.25-19.26-64.71.13Q626.37,402,598,430.48c-18.89,19-18.71,45,.22,64q60.12,60.09,120.18,120.23c1.19,1.19,2.33,2.45,4.15,4.37h-7.19q-163.5,0-327,0c-26,0-44.38,18.36-44.47,44.34q-0.15,41.25.07,82.5a51.36,51.36,0,0,0,2,14.73c5.7,18.3,22.34,29.73,42.72,29.73q163.25,0,326.5,0h5.91Z" transform="translate(-172.02 -190.14)"/></svg>