<svg id="Layer_1" data-name="Layer 1" xmlns="http://www.w3.org/2000/svg" viewBox="0 0 1418 1418"><defs><style>.cls-1{fill:#e0e0e0;}.cls-2{fill:#fff;}</style></defs><title>circlemenulight</title><circle class="cls-1" cx="709" cy="709" r="709"/><path class="cls-2" d="M344.6,499.7h724.1c9.8,0,19.6.1,29.4,0h1.3a77.39,77.39,0,0,0,53-22,56,56,0,0,0,15.5-24.1,57.38,57.38,0,0,0,6.5-28.9c-0.9-19.4-7.2-39.5-22-53s-32.7-22-53-22H375.3c-9.8,0-19.6-.1-29.4,0h-1.3a77.39,77.39,0,0,0-53,22,56,56,0,0,0-15.5,24.1,57.38,57.38,0,0,0-6.5,28.9c0.9,19.4,7.2,39.5,22,53s32.7,22,53,22h0Z" transform="translate(-13 -13)"/><path class="cls-2" d="M1099.4,944.3H375.3c-9.8,0-19.6-.1-29.4,0h-1.3a77.39,77.39,0,0,0-53,22,56,56,0,0,0-15.5,24.1,57.38,57.38,0,0,0-6.5,28.9c0.9,19.4,7.2,39.5,22,53s32.7,22,53,22h724.1c9.8,0,19.6.1,29.4,0h1.3a77.39,77.39,0,0,0,53-22,56,56,0,0,0,15.5-24.1,57.38,57.38,0,0,0,6.5-28.9c-0.9-19.4-7.2-39.5-22-53s-32.7-22-53-22h0Z" transform="translate(-13 -13)"/><path class="cls-2" d="M344.6,797h724.1c9.8,0,19.6.1,29.4,0h1.3a77.39,77.39,0,0,0,53-22,56,56,0,0,0,15.5-24.1,57.38,57.38,0,0,0,6.5-28.9c-0.9-19.4-7.2-39.5-22-53s-32.7-22-53-22H375.3c-9.8,0-19.6-.1-29.4,0h-1.3a77.39,77.39,0,0,0-53,22,56,56,0,0,0-15.5,24.1,57.38,57.38,0,0,0-6.5,28.9c0.9,19.4,7.2,39.5,22,53s32.7,22,53,22h0Z" transform="translate(-13 -13)"/></svg>
