<?xml version="1.0" encoding="utf-8"?>
<!-- Generator: Adobe Illustrator 19.2.1, SVG Export Plug-In . SVG Version: 6.00 Build 0)  -->
<svg version="1.1" id="Layer_1" xmlns="http://www.w3.org/2000/svg" xmlns:xlink="http://www.w3.org/1999/xlink" x="0px" y="0px"
	 viewBox="0 0 1440 1440" style="enable-background:new 0 0 1440 1440;" xml:space="preserve">
<style type="text/css">
	.st0{fill:#ABABAB;}
	.st1{fill:#FFFFFF;}
</style>
<circle class="st0" cx="722" cy="722" r="709"/>
<g>
	<g>
		<path class="st1" d="M344.6,499.7c6.7,0,13.4,0,20.1,0c18.3,0,36.5,0,54.8,0c27.2,0,54.3,0,81.5,0c33,0,66,0,99,0
			c36.1,0,72.3,0,108.4,0c36.5,0,73,0,109.5,0c34,0,68.1,0,102.1,0c28.9,0,57.8,0,86.7,0c20.7,0,41.3,0,62,0c9.8,0,19.6,0.1,29.4,0
			c0.4,0,0.8,0,1.3,0c19.2,0,39.4-8.4,53-22c7.3-6.8,12.5-14.8,15.5-24.1c4.7-8.9,6.8-18.6,6.5-28.9c-0.9-19.4-7.2-39.5-22-53
			c-14.7-13.5-32.7-22-53-22c-6.7,0-13.4,0-20.1,0c-18.3,0-36.5,0-54.8,0c-27.2,0-54.3,0-81.5,0c-33,0-66,0-99,0
			c-36.1,0-72.3,0-108.4,0c-36.5,0-73,0-109.5,0c-34,0-68.1,0-102.1,0c-28.9,0-57.8,0-86.7,0c-20.7,0-41.3,0-62,0
			c-9.8,0-19.6-0.1-29.4,0c-0.4,0-0.8,0-1.3,0c-19.2,0-39.4,8.4-53,22c-7.3,6.8-12.5,14.8-15.5,24.1c-4.7,8.9-6.8,18.6-6.5,28.9
			c0.9,19.4,7.2,39.5,22,53C306.3,491.2,324.3,499.7,344.6,499.7L344.6,499.7z"/>
	</g>
</g>
<g>
	<g>
		<path class="st1" d="M1099.4,944.3c-6.7,0-13.4,0-20.1,0c-18.3,0-36.5,0-54.8,0c-27.2,0-54.3,0-81.5,0c-33,0-66,0-99,0
			c-36.1,0-72.3,0-108.4,0c-36.5,0-73,0-109.5,0c-34,0-68.1,0-102.1,0c-28.9,0-57.8,0-86.7,0c-20.7,0-41.3,0-62,0
			c-9.8,0-19.6-0.1-29.4,0c-0.4,0-0.8,0-1.3,0c-19.2,0-39.4,8.4-53,22c-7.3,6.8-12.5,14.8-15.5,24.1c-4.7,8.9-6.8,18.6-6.5,28.9
			c0.9,19.4,7.2,39.5,22,53c14.7,13.5,32.7,22,53,22c6.7,0,13.4,0,20.1,0c18.3,0,36.5,0,54.8,0c27.2,0,54.3,0,81.5,0c33,0,66,0,99,0
			c36.1,0,72.3,0,108.4,0c36.5,0,73,0,109.5,0c34,0,68.1,0,102.1,0c28.9,0,57.8,0,86.7,0c20.7,0,41.3,0,62,0c9.8,0,19.6,0.1,29.4,0
			c0.4,0,0.8,0,1.3,0c19.2,0,39.4-8.4,53-22c7.3-6.8,12.5-14.8,15.5-24.1c4.7-8.9,6.8-18.6,6.5-28.9c-0.9-19.4-7.2-39.5-22-53
			C1137.7,952.8,1119.7,944.3,1099.4,944.3L1099.4,944.3z"/>
	</g>
</g>
<g>
	<g>
		<path class="st1" d="M344.6,797c6.7,0,13.4,0,20.1,0c18.3,0,36.5,0,54.8,0c27.2,0,54.3,0,81.5,0c33,0,66,0,99,0
			c36.1,0,72.3,0,108.4,0c36.5,0,73,0,109.5,0c34,0,68.1,0,102.1,0c28.9,0,57.8,0,86.7,0c20.7,0,41.3,0,62,0c9.8,0,19.6,0.1,29.4,0
			c0.4,0,0.8,0,1.3,0c19.2,0,39.4-8.4,53-22c7.3-6.8,12.5-14.8,15.5-24.1c4.7-8.9,6.8-18.6,6.5-28.9c-0.9-19.4-7.2-39.5-22-53
			c-14.7-13.5-32.7-22-53-22c-6.7,0-13.4,0-20.1,0c-18.3,0-36.5,0-54.8,0c-27.2,0-54.3,0-81.5,0c-33,0-66,0-99,0
			c-36.1,0-72.3,0-108.4,0c-36.5,0-73,0-109.5,0c-34,0-68.1,0-102.1,0c-28.9,0-57.8,0-86.7,0c-20.7,0-41.3,0-62,0
			c-9.8,0-19.6-0.1-29.4,0c-0.4,0-0.8,0-1.3,0c-19.2,0-39.4,8.4-53,22c-7.3,6.8-12.5,14.8-15.5,24.1c-4.7,8.9-6.8,18.6-6.5,28.9
			c0.9,19.4,7.2,39.5,22,53C306.3,788.5,324.3,797,344.6,797L344.6,797z"/>
	</g>
</g>
</svg>
