<?xml version="1.0" encoding="utf-8"?>
<!-- Generator: Adobe Illustrator 19.2.1, SVG Export Plug-In . SVG Version: 6.00 Build 0)  -->
<svg version="1.1" id="Layer_1" xmlns="http://www.w3.org/2000/svg" xmlns:xlink="http://www.w3.org/1999/xlink" x="0px" y="0px"
	 viewBox="0 0 1440 1440" style="enable-background:new 0 0 1440 1440;" xml:space="preserve">
<g>
	<path d="M720,932.2c-51,51.2-99.4,99.8-147.6,148.4C468.9,1184.8,365.8,1289.3,262,1393c-49.8,49.8-108.9,59.9-167.3,30.8
		C33,1393-3.1,1330.1,4.1,1265.5c4-36,23.4-63.6,48-88.5c75.1-75.6,149.9-151.5,225.2-226.9c75.8-75.9,152.1-151.3,230.2-229
		c-7.7-8-14.1-14.8-20.7-21.4C341.6,555.3,196.3,410.8,51,266.3C-1.5,214.1-13.7,155.7,15.4,96C45.8,33.6,110.1-3.4,175.2,4.3
		c35.9,4.2,63.5,23.8,88.3,48.5c91.5,90.8,183,181.6,274.3,272.6C598,385.2,657.7,445.5,718.9,507c7-6.6,13-11.9,18.6-17.5
		c146-145.9,292.1-291.7,437.8-437.9c42.1-42.3,90.2-64,149.3-44.4c61.4,20.3,100.1,63.3,112.7,127.1c9.3,46.7-7,87-39.5,120.2
		C1338.4,315.2,1278,375,1217.9,435c-94.3,94.3-188.7,188.5-284.7,284.4c6.1,6.5,11.4,12.3,17,17.9
		c140.9,141.5,281.8,283,422.6,424.5c5.3,5.3,10.4,10.7,15.7,15.9c43.9,42.8,61.9,93.3,39.4,152.2c-24,62.9-70.8,100.8-138.4,107.9
		c-43.5,4.5-79.4-14.8-109.8-45.2c-95.2-95.5-190.7-190.7-286-286.1C836.4,1049.2,779.2,991.7,720,932.2z"/>
</g>
</svg>
