<svg id="Layer_1_copy" data-name="Layer 1 copy" xmlns="http://www.w3.org/2000/svg" viewBox="0 0 463.12 321.39"><defs><style>.cls-1{fill:#fff;stroke:#fff;stroke-miterlimit:10;stroke-width:12px;}</style></defs><title>friendsIcon</title><path class="cls-1" d="M429.22,93c0-30-23.73-54.37-52.9-54.37S323.42,63,323.42,93s23.73,54.37,52.9,54.37S429.22,122.94,429.22,93Z" transform="translate(-23.94 -24.8)"/><path class="cls-1" d="M30.09,329a9.54,9.54,0,0,0,2.1,7.88,9,9,0,0,0,6.94,3.31h261a9,9,0,0,0,6.94-3.31,9.51,9.51,0,0,0,2.1-7.88c-12.25-69-70.92-119-139.52-119S42.34,260,30.09,329Z" transform="translate(-23.94 -24.8)"/><path class="cls-1" d="M286.92,227.14a174.26,174.26,0,0,1,33.58,44.19H477.32A3.64,3.64,0,0,0,480.1,270a4,4,0,0,0,.89-3.33c-9.2-51.79-53.21-89.37-104.67-89.37C339.75,177.27,306.42,196.12,286.92,227.14Z" transform="translate(-23.94 -24.8)"/><path class="cls-1" d="M242.32,105.41c0-41.14-32.62-74.61-72.71-74.61S96.9,64.27,96.9,105.41,129.52,180,169.61,180,242.32,146.55,242.32,105.41Z" transform="translate(-23.94 -24.8)"/></svg>
