<svg id="Layer_1" data-name="Layer 1" xmlns="http://www.w3.org/2000/svg" viewBox="0 0 1068.8 834.67"><title>hamburger</title><path d="M717.78,320.36c-145.54,0-291.62,7.06-436.32-4-14.65-1.12-29-6.72-43.08-14.78-58.89-33.64-50-122.39,15.44-140.32a64.46,64.46,0,0,1,15.73-2.38q457.21-9.54,914.66.61c12.48,0.29,24.83,5.86,37.12,14.25,46.27,31.61,43.2,101.25-5.43,129.1-13.45,7.71-27.05,13-40.92,13.87C1023.06,325.93,870.25,320.32,717.78,320.36Z" transform="translate(-185.6 -154.2)"/><path d="M697.89,654.31c-138.61,0-277.81,7.3-415.5-3.91-15.57-1.27-30.74-7.39-45.7-16.07C179,600.88,188.78,513.26,253,495.32a62.94,62.94,0,0,1,15.63-2.41q457.2-9.64,914.65.49c12.71,0.29,25.3,5.93,37.83,14.41,46.24,31.29,43.83,100.42-4.32,128.7-13.46,7.9-27.05,13.36-40.92,14.15C1017,659.7,857.29,654.26,697.89,654.31Z" transform="translate(-185.6 -154.2)"/><path d="M735,823.54c145.54-.21,291.43-5.87,436.4,3.2,13.14,0.82,26.06,5.25,38.85,11.71,52.76,26.66,58.25,100.7,9.14,133.6-10.5,7-21.06,11.55-31.72,11.79-311.7,7-623.67,6.25-935.43.52a53.94,53.94,0,0,1-18.94-4.1C178.27,958.38,169,884.4,215.27,847.41c13.67-10.92,27.55-18.66,41.84-19.55C415.89,818,575.65,823.75,735,823.54Z" transform="translate(-185.6 -154.2)"/></svg>