<?xml version="1.0" encoding="utf-8"?>
<!-- Generator: Adobe Illustrator 19.2.1, SVG Export Plug-In . SVG Version: 6.00 Build 0)  -->
<svg version="1.1" id="Layer_1" xmlns="http://www.w3.org/2000/svg" xmlns:xlink="http://www.w3.org/1999/xlink" x="0px" y="0px"
	 viewBox="0 0 1440 1257.8" style="enable-background:new 0 0 1440 1257.8;" xml:space="preserve">
<style type="text/css">
	.st0{fill:#FFFFFF;}
</style>
<image style="display:none;overflow:visible;enable-background:new    ;" width="1600" height="1600" xlink:href="9A845BF2.png"  transform="matrix(0.75 0 0 0.75 120 120.0001)">
</image>
<g>
	<path class="st0" d="M719.2,164.8c15.1-14.2,29-28,43.6-41.1c48.7-43.3,102-79.5,163.5-102.5C971.9,4,1019-2.4,1067.6,0.8
		c44.6,3,88,11,129.7,27.2c102.7,40,174.4,111.3,214.5,213.8c22.2,56.7,29.9,115.9,27.8,176.6c-3.1,88.1-30.5,168.4-76.5,242.8
		c-32,51.8-71,98.1-113.4,141.7c-56.2,57.7-117.9,109.3-179.7,160.8c-59.4,49.5-119,98.8-177.6,149.4
		c-42.6,36.8-82.7,76.6-118.6,120.1c-27.8,33.7-81,31.8-107.1,0.5c-50.5-60.4-108.4-113.4-168.5-164
		c-58.8-49.4-118.3-98-177.2-147.2c-50.5-42.3-99.6-86.3-144.7-134.3c-49.6-52.8-93.6-109.6-125.8-174.9
		c-24.2-49.1-40.6-100.6-46.8-155c-10.3-90,0.8-176.7,43.4-257.6C94,111.2,167.2,52.2,262.9,21C317.4,3.3,373.5-3.4,430.6,1.6
		c46.4,4.1,89.7,19.3,130.8,40.8c57.5,30,107.2,70.3,152.4,116.4C715.7,160.7,717.4,162.8,719.2,164.8z"/>
</g>
</svg>
