<?xml version="1.0" encoding="utf-8"?>
<!-- Generator: Adobe Illustrator 19.2.1, SVG Export Plug-In . SVG Version: 6.00 Build 0)  -->
<svg version="1.1" id="Layer_1" xmlns="http://www.w3.org/2000/svg" xmlns:xlink="http://www.w3.org/1999/xlink" x="0px" y="0px"
	 viewBox="0 0 1440 1233.6" style="enable-background:new 0 0 1440 1233.6;" xml:space="preserve">
<g>
	<path d="M389.3,1053.1c32.1-32,63.5-63.4,95.7-95.6c105.7,100.9,232.3,148.9,379.2,137.3c109.3-8.6,204.9-51.4,285.2-126.2
		c166.7-155.3,202.1-400,87.2-596.2C1124.7,181.2,890.8,91.1,679.7,158.3c-223.4,71-339.8,277.7-335.4,458.1c66.5,0,133,0,198.7,0
		c-91.1,90.8-181.7,181.1-272.2,271.3C183.3,800.3,93.4,710.4,0,617.1c71.7,0,138.2,0,205.8,0c4.7-189.8,75.6-347.8,218.8-470.9
		C530.9,54.8,655.7,6.3,795.5,0.5c291.8-12,549.6,176.7,623.6,457.6c74,281-53,566.3-304.3,701.6
		C862.8,1295.5,565.5,1234.8,389.3,1053.1z"/>
	<path d="M1096.9,776.2c-16.4,27.6-32.1,54.2-48.4,81.8c-4.3-2.1-8.1-3.6-11.6-5.7c-90.2-53.5-180.5-106.9-270.4-160.9
		c-5.3-3.2-11.1-10.8-11.2-16.4c-0.7-107.6-0.5-215.3-0.4-323c0-2.5,0.5-5.1,0.9-8.4c33.7,0,66.7,0,101.5,0c0,6.3,0,12.1,0,17.8
		c0,85.2,0.3,170.3-0.4,255.5c-0.1,13.2,4.5,19.8,15.4,26.1c69.8,40.8,139.1,82.2,208.6,123.4
		C1085.9,769.5,1090.8,772.5,1096.9,776.2z"/>
</g>
</svg>
