<?xml version="1.0" encoding="utf-8"?>
<!-- Generator: Adobe Illustrator 19.2.1, SVG Export Plug-In . SVG Version: 6.00 Build 0)  -->
<svg version="1.1" id="Layer_1" xmlns="http://www.w3.org/2000/svg" xmlns:xlink="http://www.w3.org/1999/xlink" x="0px" y="0px"
	 viewBox="0 0 1418 1418" style="enable-background:new 0 0 1418 1418;" xml:space="preserve">
<style type="text/css">
	.st0{fill:#E0E0E0;}
	.st1{fill:#FFFFFF;}
</style>
<title>circlemenulight</title>
<circle class="st0" cx="709" cy="709" r="709"/>
<path class="st1" d="M331.6,784h724.1c9.8,0,19.6,0.1,29.4,0h1.3c19.8-0.3,38.8-8.1,53-22c7.2-6.6,12.5-14.9,15.5-24.1
	c4.7-8.9,6.9-18.9,6.5-28.9c-0.9-19.4-7.2-39.5-22-53s-32.7-22-53-22H362.3c-9.8,0-19.6-0.1-29.4,0h-1.3c-19.8,0.3-38.8,8.1-53,22
	c-7.2,6.6-12.5,14.9-15.5,24.1c-4.7,8.9-6.9,18.9-6.5,28.9c0.9,19.4,7.2,39.5,22,53S311.3,784,331.6,784L331.6,784z"/>
<path class="st1" d="M634,331.6v724.1c0,9.8-0.1,19.6,0,29.4v1.3c0.3,19.8,8.1,38.8,22,53c6.6,7.2,14.9,12.5,24.1,15.5
	c8.9,4.7,18.9,6.9,28.9,6.5c19.4-0.9,39.5-7.2,53-22s22-32.7,22-53V362.3c0-9.8,0.1-19.6,0-29.4v-1.3c-0.3-19.8-8.1-38.8-22-53
	c-6.6-7.2-14.9-12.5-24.1-15.5c-8.9-4.7-18.9-6.9-28.9-6.5c-19.4,0.9-39.5,7.2-53,22S634,311.3,634,331.6L634,331.6z"/>
</svg>
