<svg id="Layer_1" data-name="Layer 1" xmlns="http://www.w3.org/2000/svg" xmlns:xlink="http://www.w3.org/1999/xlink" viewBox="0 0 1050.6 173.1"><defs><style>.cls-1{fill:url(#linear-gradient);}.cls-2{fill:url(#linear-gradient-2);}.cls-3{fill:url(#linear-gradient-3);}.cls-4{fill:url(#linear-gradient-4);}.cls-5{fill:url(#linear-gradient-5);}.cls-6{fill:url(#linear-gradient-6);}.cls-7{fill:url(#linear-gradient-7);}.cls-8{fill:url(#linear-gradient-8);}.cls-9{fill:url(#linear-gradient-9);}.cls-10{fill:url(#linear-gradient-10);}.cls-11{fill:url(#linear-gradient-11);}.cls-12{fill:url(#linear-gradient-12);}.cls-13{fill:url(#linear-gradient-13);}.cls-14{fill:url(#linear-gradient-14);}</style><linearGradient id="linear-gradient" x1="1054.07" y1="238.3" x2="848.35" y2="-394.83" gradientUnits="userSpaceOnUse"><stop offset="0" stop-color="#cc8489"/><stop offset="0.54" stop-color="#f69693"/><stop offset="1" stop-color="#f6cee2"/></linearGradient><linearGradient id="linear-gradient-2" x1="162.4" y1="528.02" x2="-43.32" y2="-105.11" xlink:href="#linear-gradient"/><linearGradient id="linear-gradient-3" x1="424.38" y1="442.9" x2="218.66" y2="-190.23" xlink:href="#linear-gradient"/><linearGradient id="linear-gradient-4" x1="653.07" y1="368.59" x2="447.36" y2="-264.54" xlink:href="#linear-gradient"/><linearGradient id="linear-gradient-5" x1="828.31" y1="311.66" x2="622.59" y2="-321.47" xlink:href="#linear-gradient"/><linearGradient id="linear-gradient-6" x1="955.59" y1="270.3" x2="749.87" y2="-362.83" xlink:href="#linear-gradient"/><linearGradient id="linear-gradient-7" x1="308.75" y1="480.47" x2="103.03" y2="-152.66" xlink:href="#linear-gradient"/><linearGradient id="linear-gradient-8" x1="237.81" y1="503.52" x2="32.09" y2="-129.61" xlink:href="#linear-gradient"/><linearGradient id="linear-gradient-9" x1="538.52" y1="405.81" x2="332.8" y2="-227.32" xlink:href="#linear-gradient"/><linearGradient id="linear-gradient-10" x1="691.44" y1="356.13" x2="485.72" y2="-277" xlink:href="#linear-gradient"/><linearGradient id="linear-gradient-11" x1="465.59" y1="429.51" x2="259.88" y2="-203.62" xlink:href="#linear-gradient"/><linearGradient id="linear-gradient-12" x1="387.38" y1="454.92" x2="181.66" y2="-178.21" xlink:href="#linear-gradient"/><linearGradient id="linear-gradient-13" x1="616.13" y1="380.6" x2="410.42" y2="-252.53" xlink:href="#linear-gradient"/><linearGradient id="linear-gradient-14" x1="760.84" y1="333.58" x2="555.12" y2="-299.55" xlink:href="#linear-gradient"/></defs><title>minireel-dot-com-3-color</title><path class="cls-1" d="M1041.6,157.1c-8.8,0-11.9-3.1-12.1-12V13.7c0-1.3,0-2.6-.1-3.9-0.4-3.7-2.4-6.1-6.1-6.1-12.4-.2-24.9-0.2-37.3,0-3.8.1-5.8,2.6-5.8,6.3s2,5.9,5.8,6.2c2,0.1,4.1,0,6.1.1,8.8,0.3,11.3,2.9,11.3,11.6V144.6c0,8.9-3.4,12.2-12.3,12.5a25.73,25.73,0,0,0-6.8.6c-4,1.2-5.6,6.3-2.7,9a11.21,11.21,0,0,0,7,2.4c18,0.2,36.1.1,54.2,0.2,3.4,0,6.2-.8,8.3-3.5l0.1-5.2C1048.8,157.2,1045.3,157.1,1041.6,157.1Z" transform="translate(-0.6 0)"/><path class="cls-2" d="M8.2,169.4c17.5-.2,35-0.1,52.5-0.1,5.2,0,7.8-2.2,7.8-6.1s-2.6-5.9-7.8-6c-8.1-.1-10.4-2.3-10.4-10.3,0-13.8-.2-27.7.1-41.6,0.2-8.5,1.8-16.9,7.3-24a10.8,10.8,0,0,0,1.6-3c1.4-4.1-1.2-7.3-5.5-6.8-1,.1-1.9.3-3.6,0.6,0-3.1.1-5.8,0-8.5-0.2-3.9-2.1-6.3-6.2-6.3H6.3C2.6,57.3.8,59.2,0.8,63s1.9,5.7,5.6,5.7c2.1,0,4.1-.1,6.1,0,9,0.6,11.9,2.9,11.9,10.3q0.3,33.6,0,67.2c-0.1,7-3.9,10.5-10.9,10.9a45.12,45.12,0,0,1-5.2,0,8.92,8.92,0,0,0-7.7,2.79v6.78C2.61,168.67,5.16,169.4,8.2,169.4Z" transform="translate(-0.6 0)"/><path class="cls-3" d="M274.6,29.7c7.1,6.5,18.9,5.1,25.4-2.8,5-6.1,4.7-18.5-3.9-23.5A56.16,56.16,0,0,0,290.5.9a12.67,12.67,0,0,0-4.7-.9,11.89,11.89,0,0,0-4.5.8l-0.5.2C267.4,5.4,264.2,20.1,274.6,29.7Z" transform="translate(-0.6 0)"/><path class="cls-4" d="M527.5,29.8c7.1,6.5,18.9,5.1,25.4-2.8,5-6.1,4.7-18.5-3.9-23.5a44.34,44.34,0,0,0-6.7-3,6.87,6.87,0,0,0-2.4-.5,27.56,27.56,0,0,0-6.3,1C520.2,5.4,517,20.2,527.5,29.8Z" transform="translate(-0.6 0)"/><path class="cls-5" d="M822.6,103.7c-2.1-18.1-10.1-32.5-25.6-42.6-11.2-7.4-23.7-8.5-36.4-7.7a59.73,59.73,0,0,0-42.1,20.5C705.9,88,703.3,105,705,122.9c1.1,12.2,6.3,22.8,14.6,32.1,17.7,19.9,56.5,22.8,76.9,11.6a47.74,47.74,0,0,0,22.8-26.2c0.7-2,.7-5.7-0.5-6.7-2-1.5-5.2-2-7.9-1.9-4,.2-4.5,4.1-5.7,6.9-5.7,12.9-15.3,21.3-29.4,22.6-25.2,2.3-43.9-13-45.3-41.4-0.2-4.3,1.6-5.5,5.6-5.4,13.1,0.2,26.1.1,39.1,0.1,13.3,0,26.6,0,39.9.1,6.5,0,8.7-2.5,7.7-8.8C822.7,105.1,822.7,104.4,822.6,103.7Zm-29.1-1.9c-9.7-.1-19.4,0-29.1,0-9.4,0-18.8,0-28.1-.1-4.5,0-5.5-1-4.2-5.1,1.9-6.1,3.4-12.6,6.7-18,6.8-11.1,17.7-16,30.3-14.9,14.4,1.3,23.2,10.1,26.7,24,0.8,3.3,1.1,6.8,1.7,10.2C798,101,796.3,101.8,793.5,101.8Z" transform="translate(-0.6 0)"/><path class="cls-6" d="M963.2,103.4c-1.5-14.6-7.5-27.1-18.4-37.1-12.4-11.5-27.6-14.1-43.7-13.1A60.26,60.26,0,0,0,869,64.8c-14.5,10.6-22.4,25-23.7,42.9-1.1,14.9,1.4,28.9,10.2,41.6,18.3,26.4,61.9,29.4,83.9,15.8a47.47,47.47,0,0,0,20.5-24.9c0.7-2,.6-5.6-0.6-6.7-1.7-1.5-5-2-7.5-1.9-4.1.2-4.7,4.2-6,7.1-5.7,12.9-15.3,21.3-29.4,22.6-25.4,2.3-43.9-13.3-45.2-41.5-0.1-3.9,1.3-5.4,5.3-5.3,13.2,0.2,26.3.1,39.5,0.1s26.6,0,39.8-.1c6.5,0,8.6-2.6,7.6-8.9C963.3,104.8,963.3,104.1,963.2,103.4Zm-29-1.6c-9.7-.1-19.4,0-29.1,0-9.1,0-18.2,0-27.3-.1-5.7,0-6.4-.5-4.8-5.9,1.8-6,3.4-12.4,6.7-17.6,6.8-11,17.7-15.7,30.4-14.5,14.2,1.4,22.8,10.2,26.3,23.9,0.8,3.3,1.1,6.8,1.7,10.2C938.7,101,937.1,101.8,934.2,101.8Z" transform="translate(-0.6 0)"/><path class="cls-7" d="M227.1,157.2c-9.1,0-11.7-2.5-11.9-11.5-0.1-8.4,0-16.8,0-25.2l-0.8.2c0-11.3.4-22.6-.1-33.8-0.3-8.5-2.7-16.7-9-22.9-12.7-12.4-28-13.9-44.3-10.1a37.09,37.09,0,0,0-18.2,10.4c-2.3,2.3-2.7,5.2-.5,7.3,1.1,1.1,4.1.9,6,.4,3.4-.9,6.6-2.7,10.1-3.7,13.7-3.8,26.5,3.9,29.6,17.7a47.67,47.67,0,0,1,1.1,9.9c0.1,16.2,0,32.4.1,48.6,0.1,10.6-2.4,13-12,12.8-1.3,0-2.9.2-3.7,1-1.3,1.3-2.9,3.2-2.9,4.8a7.2,7.2,0,0,0,3,5.2c1.4,1,3.8,1,5.8,1h47.8c6.7,0,9.6-1.9,9.6-6.1S233.9,157.2,227.1,157.2Z" transform="translate(-0.6 0)"/><path class="cls-8" d="M141.7,157.1c-6.5-.2-8.7-2.2-8.7-8.6-0.1-15.8-.2-31.5-0.2-47.3A35.22,35.22,0,0,1,138,82.3c2.8-4.4.3-8.1-4.9-8.6a7.54,7.54,0,0,1-4.4-2.5c-3-3.2-5.5-7.1-8.8-10-10-8.5-22.2-9.7-34.4-7.7-6.5,1.1-12.8,4.3-18.9,7-3.1,1.3-4.5,6.4-2.9,9,2,3.2,4.8,1.4,7.3.6,1-.3,1.9-0.7,2.9-1,15.1-4.5,28.3,2.7,31.8,17.4a47.67,47.67,0,0,1,1.1,9.9c0.1,15.3.1,30.7,0,46-0.1,12.2-1.6,15.3-12.8,15-5.1-.1-7.9,5.7-4.8,9.2,1.3,1.6,4.2,2.5,6.4,2.6,8,0.3,15.9.1,23.9,0.1l21.9-.1c6.7,0,9.7-2.1,9.6-6.1S148.2,157.3,141.7,157.1Z" transform="translate(-0.6 0)"/><path class="cls-9" d="M482.3,157.2c-10.2-.2-12.4-2.4-12.4-12.6V119.4h0.5c-0.4-10.9-.2-21.9-1.5-32.8-1.4-12.3-7.2-22.5-18.3-28.9-8.8-5.1-18.6-5.6-28.1-3.5-7.6,1.7-15,4.9-22.3,7.8-3,1.2-4.2,4.1-2.6,7.3s4.5,3.3,7.5,2.4c2.8-1,5.5-1.9,8.3-2.6,15.3-3,30.6,6.2,30.6,23.6,0,17.1.2,34.1,0.1,51.2-0.1,10.3-2.1,14.6-12.3,13.5a4.1,4.1,0,0,0-1.1-.1,5.8,5.8,0,0,0-5.7,5.9c-0.1,3.5,2.5,6.1,6.9,6.1,17.2,0.1,34.4,0,51.6,0,3.8,0,6-2,6.3-5.8C490,159.5,487.3,157.3,482.3,157.2Z" transform="translate(-0.6 0)"/><path class="cls-10" d="M656.7,157h-6.1c-10.4,0-13.9-3.4-13.9-13.7,0-11.7-.1-23.4,0-35.1a67.07,67.07,0,0,1,5.1-26.1c0.7-1.7.4-5.6-.7-6.1-5.3-2.7-4.4-7.2-4.5-11.6-0.1-5.1-2.1-7.1-7.2-7.1H594.2c-4.2,0-6.9,2.5-6.9,6.1s2.5,5.8,6.6,6.1c2.2,0.1,4.3-.1,6.5.1,7.8,0.6,10.2,3.1,10.3,10.9,0,6.5-.1,13,0,19.5,0.2,13.4.4,26.9,0.7,40.3,0.4,14-2,16.7-15.7,16.9-5.1.1-7.7,2.3-7.6,6.2s2.6,5.9,7.9,5.9h29.5c10.4,0,20.8,0,31.3-.2,4.4-.1,6.8-2.4,6.8-6.1S661.2,157.1,656.7,157Z" transform="translate(-0.6 0)"/><path class="cls-11" d="M397.9,157.3h-3c-6.7-.1-9.1-2.5-9.1-9.2-0.1-13,.1-26-0.1-39-0.2-9.6,1.3-18.5,6.7-26.8,3.3-5,1.6-8.7-4.2-9.7-2.8-.4-3.2-1.8-3.3-4-0.1-1.7.1-3.5-.1-5.2-0.4-3.4-2.2-5.8-5.8-5.8q-18.45-.15-36.9,0h-0.6a5.65,5.65,0,0,0-5.3,6.1c0.1,3.5,2,5.6,5.6,5.9,2.3,0.2,4.6,0,6.9.1,7.4,0.4,10.6,3,10.7,9.7q0.3,34.05,0,68.1c0,5.8-2.4,8.3-8.1,9.4-2.8.5-5.7,0.1-8.6,0.4-5.2.5-8.2,5.2-5.3,9,1.3,1.7,4.4,2.8,6.7,2.9,8.8,0.3,17.7.1,26.5,0.1,9.1,0,18.2,0,27.5.1,4.4,0,6.9-2.4,6.8-6.1S402.4,157.4,397.9,157.3Z" transform="translate(-0.6 0)"/><path class="cls-12" d="M313.1,157.2h-3c-6.3-.2-8.8-2.5-8.8-8.7-0.1-13.9,0-27.8,0-41.7l-0.1.2c0-13.9.1-27.8,0-41.7-0.1-5.9-2.1-7.9-7.8-7.9H260c-4.2,0-6.9,2.4-7,6-0.1,3.4,2.4,5.8,6.5,6.1,1.8,0.2,3.7,0,5.6.1,6.7,0.5,10.1,3.1,10.1,8.9q0.15,34.5,0,69c-0.1,5.8-2.1,8-7.8,9.2a45.18,45.18,0,0,1-8.2.5c-4.8.1-7.4,2.2-7.4,6s2.5,6.1,7.3,6.1h53.8c5.6,0,8.2-1.8,8.3-5.9S318.6,157.2,313.1,157.2Z" transform="translate(-0.6 0)"/><path class="cls-13" d="M565.9,157.1h-3c-6.3-.2-8.8-2.5-8.8-8.7-0.1-13.7,0-27.5,0-41.2v0.1c0-14,.1-28.1,0-42.1-0.1-5.9-2.1-7.9-7.8-7.9H512.9c-4.2,0-6.9,2.4-7,6-0.1,3.4,2.4,5.8,6.5,6.1,1.8,0.2,3.7,0,5.6.1,6.7,0.5,10.1,3.1,10.1,8.9q0.15,34.5,0,69c-0.1,5.8-2.1,8-7.8,9.2a45.16,45.16,0,0,1-8.2.5c-4.8.2-7.3,2.2-7.4,6s2.4,6.1,7.2,6.1h54.2c5.3,0,7.8-1.8,7.9-5.9S571.4,157.1,565.9,157.1Z" transform="translate(-0.6 0)"/><path class="cls-14" d="M679.8,54.2c-8.7-3.1-17.4-1.6-25.2,3.4-1,.6-1.6,2.8-1.3,4.1,0.2,1,1.9,2.2,3.1,2.4,1.4,0.3,3-.3,4.6-0.4,3.4-.2,6.7-0.3,10-0.5l0.5,1.5c-1,1.4-2.5,2.7-2.9,4.2-0.9,3.4-2.4,7.3-1.7,10.6,1.5,7.6,8.9,11.4,16.8,9.7,6.4-1.4,11.6-9.1,11-16.2C693.8,63.4,688.5,57.3,679.8,54.2Z" transform="translate(-0.6 0)"/></svg>
