<svg id="Layer_1" data-name="Layer 1" xmlns="http://www.w3.org/2000/svg" xmlns:xlink="http://www.w3.org/1999/xlink" viewBox="0 0 196.46 129.55"><defs><style>.cls-1,.cls-6,.cls-7,.cls-8{fill:none;}.cls-2{clip-path:url(#clip-path);}.cls-3{fill:url(#linear-gradient);}.cls-4{fill:url(#linear-gradient-2);}.cls-5{fill:#fff;}.cls-6,.cls-7,.cls-8{stroke:#fff;stroke-miterlimit:10;}.cls-6{stroke-width:3.5px;}.cls-7{stroke-linecap:round;}.cls-7,.cls-8{stroke-width:1.5px;}</style><clipPath id="clip-path" transform="translate(34.25 -0.63)"><path class="cls-1" d="M106.77,111.9H26.22A26.22,26.22,0,0,1,0,85.68V26.85A26.22,26.22,0,0,1,26.22.63h80.56A26.22,26.22,0,0,1,133,26.85V85.69A26.24,26.24,0,0,1,106.77,111.9Z"/></clipPath><linearGradient id="linear-gradient" x1="36.95" y1="153.36" x2="108.79" y2="277.78" gradientTransform="matrix(1, 0, 0, -1, 0, 260.79)" gradientUnits="userSpaceOnUse"><stop offset="0.01" stop-color="#e1606e"/><stop offset="0.1" stop-color="#ea7780"/><stop offset="0.24" stop-color="#f49294"/><stop offset="0.32" stop-color="#f89c9c"/><stop offset="0.42" stop-color="#f2a391"/><stop offset="0.54" stop-color="#eea88a"/><stop offset="0.7" stop-color="#f1ae82"/><stop offset="0.95" stop-color="#f9bd6a"/><stop offset="1" stop-color="#fbc165"/></linearGradient><linearGradient id="linear-gradient-2" x1="81.43" y1="104.36" x2="51.49" y2="196.52" gradientTransform="matrix(1, 0, 0, -1, 34.25, 260.16)" gradientUnits="userSpaceOnUse"><stop offset="0" stop-color="#cc8489"/><stop offset="0.54" stop-color="#f69693"/><stop offset="1" stop-color="#f6cee2"/></linearGradient></defs><title>minipostAppLogo2NoText</title><g id="gradientFinal"><g class="cls-2"><path class="cls-3" d="M106.77,111.9H26.22A26.22,26.22,0,0,1,0,85.68V26.85A26.22,26.22,0,0,1,26.22.63h80.56A26.22,26.22,0,0,1,133,26.85V85.69A26.24,26.24,0,0,1,106.77,111.9Z" transform="translate(34.25 -0.63)"/></g><g class="cls-2"><polyline class="cls-4" points="17.48 85.82 190.18 57.43 196.46 129.56 0 127.41"/></g></g><g id="minipostFinal_copy" data-name="minipostFinal copy"><path class="cls-5" d="M112.77,29.26a2.57,2.57,0,0,1,2.57,2.57V60.5c0,19.2-7.44,24.37-12,24.37H22.17a3.69,3.69,0,0,1-2.68-1.68C14.76,77.36,16,60.88,23.72,58.48a2.53,2.53,0,0,1,.75-0.1h6.92A2.57,2.57,0,0,0,34,55.81V43.31a2.57,2.57,0,0,1,.73-1.79L45.91,30a2.57,2.57,0,0,1,1.83-.77h65m0-4h-65a6.6,6.6,0,0,0-4.69,2L31.82,38.72A6.53,6.53,0,0,0,30,43.31V54.38H24.47a6.52,6.52,0,0,0-1.93.28c-4,1.24-7.06,4.82-8.66,10.09-1.91,6.3-1.68,15.79,2.52,21a7.42,7.42,0,0,0,5.78,3.16h81.11c4.21,0,8.25-2.47,11.09-6.78,3.29-5,5-12.25,5-21.59V31.83a6.57,6.57,0,0,0-6.57-6.57h0Z" transform="translate(34.25 -0.63)"/><path class="cls-6" d="M34,57.15V42.26l12.72-13h66.18a2.48,2.48,0,0,1,2.48,2.48V60.5c0,19.2-7.44,24.37-12,24.37H22.17a3.69,3.69,0,0,1-2.68-1.68C14.69,77.27,16,60.36,24.09,58.38H102.7" transform="translate(34.25 -0.63)"/><g id="Layer_3_copy_11" data-name="Layer 3 copy 11"><line class="cls-6" x1="136.75" y1="75.23" x2="128.88" y2="75.14"/><path class="cls-6" d="M101.87,84.87c-4.38,0-8.65-7.82-8.65-12.49s2.81-14,8.73-14,7.93,6.82,4.06,15.07c-2.17,4.61-9.43,2.66-4.88-6a0.06,0.06,0,0,0,0-.09H93.65" transform="translate(34.25 -0.63)"/></g><g id="Layer_5_copy_10" data-name="Layer 5 copy 10"><line class="cls-7" x1="57.36" y1="77.44" x2="122.25" y2="77.44"/><line class="cls-7" x1="56.35" y1="70.99" x2="121.23" y2="70.99"/><line class="cls-7" x1="58.49" y1="64.19" x2="123.38" y2="64.19"/><path class="cls-7" d="M108,52.27" transform="translate(34.25 -0.63)"/><path class="cls-7" d="M41.58,52.27" transform="translate(34.25 -0.63)"/><line class="cls-7" x1="75.83" y1="50.01" x2="140.72" y2="50.01"/></g><polyline class="cls-8" points="69.6 43.63 82.92 43.63 82.92 29.01"/></g><rect class="cls-8" x="111.3" y="37.31" width="29.42" height="6.12" rx="3.06" ry="3.06"/></svg>
