<?xml version="1.0" encoding="utf-8"?>
<!-- Generator: Adobe Illustrator 19.2.1, SVG Export Plug-In . SVG Version: 6.00 Build 0)  -->
<svg version="1.1" id="Layer_1" xmlns="http://www.w3.org/2000/svg" xmlns:xlink="http://www.w3.org/1999/xlink" x="0px" y="0px"
	 viewBox="0 0 132.9 132.9" style="enable-background:new 0 0 132.9 132.9;" xml:space="preserve">
<style type="text/css">
	.st0{fill:#FFFFFF;}
	.st1{display:none;}
	.st2{display:inline;fill:url(#SVGID_1_);}
	.st3{display:inline;fill:url(#SVGID_2_);}
	.st4{fill:#8C8C8C;}
</style>
<title>MinipostLogo2021-Q1</title>
<g id="Layer_2">
	<rect class="st0" width="132.9" height="132.9"/>
</g>
<g id="Layer_12_copy" class="st1">
	
		<linearGradient id="SVGID_1_" gradientUnits="userSpaceOnUse" x1="47.6272" y1="84.2618" x2="116.3272" y2="191.1118" gradientTransform="matrix(1 0 0 -1 0 180)">
		<stop  offset="1.000000e-002" style="stop-color:#E1606E"/>
		<stop  offset="0.11" style="stop-color:#EB7A81"/>
		<stop  offset="0.24" style="stop-color:#F49595"/>
		<stop  offset="0.32" style="stop-color:#F89F9C"/>
		<stop  offset="0.63" style="stop-color:#F3A993"/>
		<stop  offset="0.74" style="stop-color:#F0B1AD"/>
		<stop  offset="0.83" style="stop-color:#EFB6BB"/>
		<stop  offset="1" style="stop-color:#EFB28B"/>
	</linearGradient>
	<path class="st2" d="M27.1,0h78.8c15,0,27.1,12.1,27.1,27.1v78.8c0,15-12.1,27.1-27.1,27.1H27.1c-15,0-27.1-12.1-27.1-27.1V27.1
		C0,12.1,12.1,0,27.1,0z"/>
	
		<radialGradient id="SVGID_2_" cx="-748.3996" cy="213.2607" r="137.8" gradientTransform="matrix(4.902405e-002 -0.9988 -1.1986 -5.882886e-002 365.0861 -736.0003)" gradientUnits="userSpaceOnUse">
		<stop  offset="0" style="stop-color:#AAAAAA"/>
		<stop  offset="0.21" style="stop-color:#A0A0A0"/>
		<stop  offset="0.52" style="stop-color:#969696"/>
		<stop  offset="0.79" style="stop-color:#8C8C8C"/>
		<stop  offset="0.96" style="stop-color:#8C8C8C"/>
		<stop  offset="0.99" style="stop-color:#8C8C8C"/>
	</radialGradient>
	<path class="st3" d="M27.1,0h78.8c15,0,27.1,12.1,27.1,27.1v78.8c0,15-12.1,27.1-27.1,27.1H27.1c-15,0-27.1-12.1-27.1-27.1V27.1
		C0,12.1,12.1,0,27.1,0z"/>
</g>
<g id="minipostmerge_copy">
	<path class="st4" d="M100.6,101.7H25.1c-2.2,0-5.5-0.8-8.5-4.4c-4.9-6.1-5.1-16.1-3.2-22.8c1.8-6.2,5.5-10.6,10.5-12.3
		c1.2-0.4,2.4-0.6,3.6-0.6h0.9v-11c0-3,1.1-5.9,3.2-8l9.7-9.9c2.1-2.2,5.1-3.4,8.1-3.4h58.7c6.3,0,11.4,5.1,11.4,11.4v30.7
		c0,9.5-1.8,17-5.3,22.3C110.9,98.8,105.9,101.7,100.6,101.7z M27.2,94.3l75.8-0.3c2.8,0,8.9-8.8,8.9-22.4V37.4l-64-1.4L36.3,46.3
		l-0.5,18c0,4.2,0.5,5-3.8,5l-5.7-0.4c-1.1,0.5-7.9,4.9-8.6,7.2c-1.4,4.8,3.5,17.6,5.1,19.6C22.9,95.7,27.1,94.2,27.2,94.3z"/>
	<path class="st4" d="M108.2,37c2,0,3.7,1.6,3.7,3.6v0v30.7c0,17.9-6.9,22.7-11.2,22.7H25.1c-1-0.1-1.9-0.7-2.5-1.6
		c-4.4-5.4-3.3-20.5,3.8-22.9c0.3-0.1,0.7-0.2,1.1-0.2h5c2,0,3.7-1.6,3.7-3.7l0,0V50.6c0-0.9,0.3-1.9,1-2.5l9.7-9.9
		c0.7-0.7,1.6-1.1,2.6-1.1L108.2,37 M108.2,33.3H49.5c-2,0-3.9,0.8-5.3,2.2l-9.7,9.9c-1.3,1.4-2.1,3.2-2.1,5.2v15h-4.9
		c-0.8,0-1.5,0.1-2.3,0.4c-3.7,1.3-6.5,4.7-7.9,9.6c-1.7,5.9-1.4,14.4,2.4,19.2c1.2,1.8,3.2,2.9,5.4,2.9h75.5
		c3.9,0,7.7-2.3,10.3-6.3c3.1-4.6,4.6-11.4,4.6-20.1V40.7C115.5,36.6,112.2,33.3,108.2,33.3L108.2,33.3L108.2,33.3z"/>
	<path class="st4" d="M100.6,95.7H25.1c-1.5-0.1-2.9-0.9-3.8-2.2c-3.1-3.8-3.9-11.8-1.8-18.1c1.4-4.1,3.9-6.8,6.9-7.6h0.2h7.8V48.4
		l12.8-13.1h61.3c2.7,0,4.9,2.2,4.9,4.9v0v31.1C113.5,89.3,106.5,95.7,100.6,95.7z M27.1,71c-2.5,0.7-3.9,3.7-4.5,5.4
		c-1.8,5.2-1.2,12.1,1.2,15c0.3,0.5,0.7,0.9,1.2,1h75.5c3.6,0,9.6-4.4,9.6-21.1V40.3c0-0.9-0.7-1.7-1.7-1.7l0,0H48.6L37.7,49.8v18
		h62.3V71L27.1,71L27.1,71z"/>
	<g id="Layer_3_copy_14">
		
			<rect x="94.6" y="81.9" transform="matrix(1.221695e-002 -0.9999 0.9999 1.221695e-002 9.4605 180.7579)" class="st4" width="3.3" height="7.3"/>
		<path class="st4" d="M99.3,95.7c-5.3,0-9.7-8.1-9.7-13.3c0-5,2.9-14.7,9.8-14.7c2.4-0.1,4.6,1.1,5.9,3.1c2,3.1,1.8,8.1-0.7,13.2
			c-0.8,1.8-2.4,3-4.3,3.2c-1.5,0.1-3-0.6-3.8-1.9c-0.6-0.9-1.3-2.9-0.3-6h-2.9c-0.2,1-0.3,2-0.3,3c0,3.8,3.6,10,6.4,10L99.3,95.7
			L99.3,95.7z M94.2,76.1h5.3l1,1.6l-0.4,0.9c-1.4,2.6-1.3,4.3-0.9,5c0.2,0.3,0.5,0.5,0.9,0.4c0.7-0.1,1.4-0.6,1.6-1.3
			c1.9-4.1,2.2-7.9,0.9-10.1c-0.7-1.1-1.9-1.7-3.2-1.6C97.1,71,95.3,73.4,94.2,76.1z"/>
	</g>
	<g id="Layer_5_copy_13">
		<path class="st4" d="M86.4,88.4H26c-0.4,0-0.7-0.3-0.7-0.7c0-0.4,0.3-0.7,0.7-0.7l0,0h60.4c0.4,0,0.7,0.3,0.7,0.7
			C87.1,88.1,86.8,88.4,86.4,88.4z"/>
		<path class="st4" d="M85.4,82.4H25c-0.4,0-0.7-0.3-0.7-0.7c0-0.4,0.3-0.7,0.7-0.7h60.4c0.4,0,0.7,0.3,0.7,0.7
			C86.1,82.1,85.8,82.4,85.4,82.4z"/>
		<path class="st4" d="M103.6,62.9H43.2c-0.4,0-0.7-0.3-0.7-0.7s0.3-0.7,0.7-0.7h60.4c0.4,0,0.7,0.3,0.7,0.7S104,62.9,103.6,62.9z"
			/>
		<path class="st4" d="M103.6,56.4H43.2c-0.4,0-0.7-0.3-0.7-0.7s0.3-0.7,0.7-0.7h60.4c0.4,0,0.7,0.3,0.7,0.7S104,56.4,103.6,56.4z"
			/>
	</g>
	<path class="st4" d="M100.7,50.7H79.1c-2,0-3.6-1.6-3.6-3.5c0-2,1.6-3.6,3.5-3.6c0,0,0,0,0,0h21.7c2,0,3.5,1.6,3.5,3.6
		S102.7,50.7,100.7,50.7L100.7,50.7z M79,45c-1.2,0-2.2,1-2.2,2.1s1,2.2,2.1,2.2c0,0,0,0,0,0h21.7c1.2,0,2.2-1,2.2-2.1
		s-1-2.2-2.1-2.2c0,0,0,0,0,0H79L79,45z"/>
</g>
</svg>
