<?xml version="1.0" encoding="utf-8"?>
<!-- Generator: Adobe Illustrator 19.2.1, SVG Export Plug-In . SVG Version: 6.00 Build 0)  -->
<svg version="1.1" xmlns="http://www.w3.org/2000/svg" xmlns:xlink="http://www.w3.org/1999/xlink" x="0px" y="0px"
	 viewBox="0 0 132.9 132.9" style="enable-background:new 0 0 132.9 132.9;" xml:space="preserve">
<style type="text/css">
	.st0{display:none;}
	.st1{display:inline;fill:url(#SVGID_1_);}
	.st2{display:inline;fill:url(#SVGID_2_);}
	.st3{display:inline;fill:url(#SVGID_3_);}
	.st4{display:inline;fill:url(#SVGID_4_);}
	.st5{display:inline;fill:url(#SVGID_5_);}
	.st6{display:inline;}
	.st7{fill:#FFFFFF;}
	.st8{display:inline;fill:#FFFFFF;stroke:#FFFFFF;stroke-miterlimit:10;}
	.st9{display:inline;fill:#FFFFFF;}
	.st10{display:inline;fill:#FFFFFF;stroke:#FFFFFF;stroke-width:0.5;stroke-miterlimit:10;}
	.st11{fill:url(#SVGID_6_);}
	.st12{fill:url(#SVGID_7_);}
	.st13{fill:url(#SVGID_8_);}
	.st14{fill:url(#SVGID_9_);}
	.st15{fill:url(#SVGID_10_);}
	.st16{display:inline;stroke:#000000;stroke-miterlimit:10;}
	.st17{display:inline;stroke:#000000;stroke-width:0.5;stroke-miterlimit:10;}
	.st18{display:none;fill:url(#SVGID_11_);}
	.st19{display:none;fill:url(#SVGID_12_);}
	.st20{display:none;fill:url(#SVGID_13_);}
	.st21{display:none;fill:url(#SVGID_14_);}
	.st22{display:none;fill:url(#SVGID_15_);}
	.st23{fill:#9A9A9A;}
	.st24{fill:#9A9A9A;stroke:#9A9A9A;stroke-miterlimit:10;}
	.st25{display:none;fill:#FFFFFF;}
	.st26{fill:#9A9A9A;stroke:#9A9A9A;stroke-width:0.5;stroke-miterlimit:10;}
</style>
<g id="Layer_3" class="st0">
	<linearGradient id="SVGID_1_" gradientUnits="userSpaceOnUse" x1="59.549" y1="112.0306" x2="80.4717" y2="-26.1471">
		<stop  offset="7.737604e-003" style="stop-color:#000000"/>
		<stop  offset="0.1231" style="stop-color:#000000"/>
		<stop  offset="0.1439" style="stop-color:#000000;stop-opacity:0.9717"/>
		<stop  offset="0.2701" style="stop-color:#000000;stop-opacity:0.8"/>
		<stop  offset="0.2853" style="stop-color:#000000;stop-opacity:0.7297"/>
		<stop  offset="0.4423" style="stop-color:#000000;stop-opacity:0"/>
		<stop  offset="0.4695" style="stop-color:#000000;stop-opacity:0"/>
		<stop  offset="0.6305" style="stop-color:#000000;stop-opacity:0"/>
		<stop  offset="1" style="stop-color:#000000;stop-opacity:0"/>
	</linearGradient>
	<path class="st1" d="M105.8,132.9H27.1c-15,0-27.1-12.1-27.1-27.1V27C0,12.1,12.1,0,27.1,0h78.8c15,0,27.1,12.1,27.1,27.1v78.8
		C132.9,120.7,120.8,132.9,105.8,132.9z"/>
	<linearGradient id="SVGID_2_" gradientUnits="userSpaceOnUse" x1="73.2985" y1="152.4549" x2="62.2205" y2="13.1418">
		<stop  offset="7.737604e-003" style="stop-color:#000000"/>
		<stop  offset="0.1231" style="stop-color:#000000"/>
		<stop  offset="0.1439" style="stop-color:#000000"/>
		<stop  offset="0.2701" style="stop-color:#000000"/>
		<stop  offset="0.2775" style="stop-color:#000000;stop-opacity:0.9121"/>
		<stop  offset="0.3538" style="stop-color:#000000;stop-opacity:0"/>
		<stop  offset="0.3937" style="stop-color:#000000;stop-opacity:0"/>
		<stop  offset="0.6305" style="stop-color:#000000;stop-opacity:0"/>
		<stop  offset="1" style="stop-color:#000000;stop-opacity:0"/>
	</linearGradient>
	<path class="st2" d="M105.8,132.9H27.1c-15,0-27.1-12.1-27.1-27.1V27C0,12.1,12.1,0,27.1,0h78.8c15,0,27.1,12.1,27.1,27.1v78.8
		C132.9,120.7,120.8,132.9,105.8,132.9z"/>
	<linearGradient id="SVGID_3_" gradientUnits="userSpaceOnUse" x1="112.8562" y1="152.5639" x2="46.5879" y2="29.5219">
		<stop  offset="7.737604e-003" style="stop-color:#000000"/>
		<stop  offset="0.1231" style="stop-color:#000000"/>
		<stop  offset="0.1439" style="stop-color:#000000"/>
		<stop  offset="0.2701" style="stop-color:#000000"/>
		<stop  offset="0.2745" style="stop-color:#000000;stop-opacity:0.9121"/>
		<stop  offset="0.3192" style="stop-color:#000000;stop-opacity:0"/>
		<stop  offset="0.364" style="stop-color:#000000;stop-opacity:0"/>
		<stop  offset="0.6305" style="stop-color:#000000;stop-opacity:0"/>
		<stop  offset="1" style="stop-color:#000000;stop-opacity:0"/>
	</linearGradient>
	<path class="st3" d="M105.8,132.9H27.1c-15,0-27.1-12.1-27.1-27.1V27C0,12.1,12.1,0,27.1,0h78.8c15,0,27.1,12.1,27.1,27.1v78.8
		C132.9,120.7,120.8,132.9,105.8,132.9z"/>
	<linearGradient id="SVGID_4_" gradientUnits="userSpaceOnUse" x1="13.4417" y1="126.8455" x2="105.6031" y2="21.7879">
		<stop  offset="7.737604e-003" style="stop-color:#000000"/>
		<stop  offset="0.1231" style="stop-color:#000000"/>
		<stop  offset="0.1439" style="stop-color:#000000;stop-opacity:0.9576"/>
		<stop  offset="0.2701" style="stop-color:#000000;stop-opacity:0.7"/>
		<stop  offset="0.2782" style="stop-color:#000000;stop-opacity:0.6385"/>
		<stop  offset="0.3615" style="stop-color:#000000;stop-opacity:0"/>
		<stop  offset="0.4004" style="stop-color:#000000;stop-opacity:0"/>
		<stop  offset="0.6305" style="stop-color:#000000;stop-opacity:0"/>
		<stop  offset="1" style="stop-color:#000000;stop-opacity:0"/>
	</linearGradient>
	<path class="st4" d="M105.8,132.9H27.1c-15,0-27.1-12.1-27.1-27.1V27C0,12.1,12.1,0,27.1,0h78.8c15,0,27.1,12.1,27.1,27.1v78.8
		C132.9,120.7,120.8,132.9,105.8,132.9z"/>

		<radialGradient id="SVGID_5_" cx="72.7898" cy="-1.5876" r="137.7965" gradientTransform="matrix(4.902837e-002 -0.9988 1.1986 5.883404e-002 71.1239 71.208)" gradientUnits="userSpaceOnUse">
		<stop  offset="0" style="stop-color:#8C8C8C"/>
		<stop  offset="0.2115" style="stop-color:#848484"/>
		<stop  offset="0.3692" style="stop-color:#646464"/>
		<stop  offset="0.382" style="stop-color:#5E5E5E"/>
		<stop  offset="0.4604" style="stop-color:#3F3F3F"/>
		<stop  offset="0.5041" style="stop-color:#333333"/>
		<stop  offset="0.6293" style="stop-color:#313131"/>
		<stop  offset="0.687" style="stop-color:#292929"/>
		<stop  offset="0.731" style="stop-color:#1D1D1D"/>
		<stop  offset="0.7677" style="stop-color:#0B0B0B"/>
		<stop  offset="0.7837" style="stop-color:#000000"/>
		<stop  offset="0.8737" style="stop-color:#000000"/>
		<stop  offset="0.8885" style="stop-color:#000000"/>
		<stop  offset="0.9884" style="stop-color:#000000"/>
	</radialGradient>
	<path class="st5" d="M105.8,132.9H27.1c-15,0-27.1-12.1-27.1-27.1V27C0,12.1,12.1,0,27.1,0h78.8c15,0,27.1,12.1,27.1,27.1v78.8
		C132.9,120.7,120.8,132.9,105.8,132.9z"/>
	<g class="st6">
		<path class="st7" d="M100.6,101.7H25.1c-2.2,0-5.5-0.8-8.5-4.4c-4.9-6.1-5.1-16.1-3.2-22.8c1.8-6.2,5.5-10.6,10.4-12.3
			c1.1-0.4,2.3-0.6,3.6-0.6h0.9v-11c0-3,1.2-5.8,3.2-8l9.7-9.9c2.1-2.2,5.1-3.4,8.1-3.4h58.7c6.3,0,11.4,5.1,11.4,11.4v30.7
			c0,9.5-1.8,17-5.3,22.3C110.9,98.7,105.9,101.7,100.6,101.7z M27.2,94.2l75.7-0.2c2.8,0,8.9-8.8,8.9-22.4V37.3l-64-1.4L36.3,46.2
			l-0.5,18c0,4.2,0.5,5-3.8,5l-5.7-0.4c-1.1,0.5-7.9,4.9-8.6,7.2c-1.4,4.8,3.6,17.7,5.1,19.6C22.9,95.6,27.1,94.2,27.2,94.2z"/>
	</g>
	<path class="st8" d="M108.2,37c2,0,3.6,1.6,3.6,3.6v30.7c0,17.9-6.9,22.7-11.2,22.7H25.1c-1,0-1.8-0.7-2.5-1.6
		c-4.4-5.4-3.3-20.5,3.8-22.9c0.3-0.1,0.7-0.2,1.1-0.2h5c2,0,3.6-1.6,3.6-3.6V50.5c0-1,0.4-1.9,1-2.6l9.7-9.9
		c0.7-0.7,1.6-1.1,2.6-1.1H108.2 M108.2,33.2H49.5c-2,0-3.9,0.8-5.3,2.2l-9.7,9.9c-1.4,1.4-2.1,3.2-2.1,5.2v15h-4.9
		c-0.8,0-1.6,0.1-2.3,0.4c-3.7,1.3-6.5,4.7-7.9,9.6c-1.7,5.9-1.4,14.4,2.4,19.2c1.6,2,3.4,2.9,5.4,2.9h75.5c3.9,0,7.7-2.3,10.3-6.3
		c3.1-4.6,4.6-11.4,4.6-20.1V40.6C115.5,36.5,112.2,33.2,108.2,33.2L108.2,33.2z"/>
	<path class="st9" d="M100.6,95.6H25.1c-2,0-3.3-1.6-3.8-2.2c-3.1-3.8-3.9-11.8-1.8-18.1c1.4-4.1,3.8-6.8,6.9-7.6l0.2,0h7.8V48.4
		l12.8-13.1h61.3c2.7,0,4.9,2.2,4.9,4.9v31.1C113.5,89.2,106.5,95.6,100.6,95.6z M27.1,70.9c-2.5,0.7-3.9,3.7-4.4,5.4
		c-1.7,5.2-1.2,12.1,1.2,15.1c0.7,0.8,1.1,1,1.2,1h75.5c3.6,0,9.6-4.4,9.6-21.1V40.2c0-0.9-0.7-1.7-1.7-1.7H48.6L37.7,49.7v18h62.4
		v3.3H27.1z"/>

		<rect x="94.6" y="81.9" transform="matrix(1.216093e-002 -0.9999 0.9999 1.216093e-002 9.509 180.7137)" class="st7" width="3.3" height="7.3"/>
	<path class="st9" d="M99.3,95.6c-5.2,0-9.7-8.1-9.7-13.3c0-5,2.9-14.7,9.8-14.7c2.5,0,4.6,1.1,5.9,3.1c2,3.1,1.7,8.1-0.7,13.2
		c-0.9,1.8-2.5,3.1-4.3,3.2c-1.6,0.1-3-0.6-3.9-1.9c-0.6-0.9-1.3-2.9-0.3-6h-2.9c-0.2,1.1-0.4,2.2-0.4,3.1c0,3.8,3.6,10,6.4,10V95.6
		z M94.2,76h5.3l1,1.6l-0.4,0.9c-1.4,2.6-1.4,4.3-0.9,5c0.3,0.4,0.6,0.4,0.9,0.4c0.5,0,1.2-0.4,1.6-1.3c1.9-4.1,2.2-7.9,0.9-10.1
		c-0.7-1.1-1.7-1.6-3.2-1.6C97.1,70.9,95.3,73.3,94.2,76z"/>
	<path class="st10" d="M86.4,88.3H26c-0.4,0-0.7-0.3-0.7-0.7s0.3-0.7,0.7-0.7h60.4c0.4,0,0.7,0.3,0.7,0.7S86.8,88.3,86.4,88.3z"/>
	<path class="st10" d="M85.4,82.3H25.1c-0.4,0-0.7-0.3-0.7-0.7s0.3-0.7,0.7-0.7h60.4c0.4,0,0.7,0.3,0.7,0.7S85.8,82.3,85.4,82.3z"/>
	<path class="st10" d="M103.6,62.8H43.2c-0.4,0-0.7-0.3-0.7-0.7c0-0.4,0.3-0.7,0.7-0.7h60.4c0.4,0,0.7,0.3,0.7,0.7
		C104.3,62.5,104,62.8,103.6,62.8z"/>
	<path class="st10" d="M103.6,56.3H43.2c-0.4,0-0.7-0.3-0.7-0.7s0.3-0.7,0.7-0.7h60.4c0.4,0,0.7,0.3,0.7,0.7S104,56.3,103.6,56.3z"
		/>
	<path class="st10" d="M100.7,50.6H79c-2,0-3.5-1.6-3.5-3.5c0-2,1.6-3.5,3.5-3.5h21.7c2,0,3.5,1.6,3.5,3.5
		C104.3,49.1,102.7,50.6,100.7,50.6z M79,44.9c-1.2,0-2.2,1-2.2,2.2c0,1.2,1,2.2,2.2,2.2h21.7c1.2,0,2.2-1,2.2-2.2
		c0-1.2-1-2.2-2.2-2.2H79z"/>
</g>
<g id="Layer_3_copy" class="st0">
	<linearGradient id="SVGID_6_" gradientUnits="userSpaceOnUse" x1="59.549" y1="112.0306" x2="80.4717" y2="-26.1471">
		<stop  offset="7.737604e-003" style="stop-color:#000000"/>
		<stop  offset="0.1231" style="stop-color:#000000"/>
		<stop  offset="0.1439" style="stop-color:#000000;stop-opacity:0.9717"/>
		<stop  offset="0.2701" style="stop-color:#000000;stop-opacity:0.8"/>
		<stop  offset="0.2853" style="stop-color:#000000;stop-opacity:0.7297"/>
		<stop  offset="0.4423" style="stop-color:#000000;stop-opacity:0"/>
		<stop  offset="0.4695" style="stop-color:#000000;stop-opacity:0"/>
		<stop  offset="0.6305" style="stop-color:#000000;stop-opacity:0"/>
		<stop  offset="1" style="stop-color:#000000;stop-opacity:0"/>
	</linearGradient>
	<path class="st11" d="M105.8,132.9H27.1c-15,0-27.1-12.1-27.1-27.1V27C0,12.1,12.1,0,27.1,0h78.8c15,0,27.1,12.1,27.1,27.1v78.8
		C132.9,120.7,120.8,132.9,105.8,132.9z"/>
	<linearGradient id="SVGID_7_" gradientUnits="userSpaceOnUse" x1="73.2985" y1="152.4549" x2="62.2205" y2="13.1418">
		<stop  offset="7.737604e-003" style="stop-color:#000000"/>
		<stop  offset="0.1231" style="stop-color:#000000"/>
		<stop  offset="0.1439" style="stop-color:#000000"/>
		<stop  offset="0.2701" style="stop-color:#000000"/>
		<stop  offset="0.2775" style="stop-color:#000000;stop-opacity:0.9121"/>
		<stop  offset="0.3538" style="stop-color:#000000;stop-opacity:0"/>
		<stop  offset="0.3937" style="stop-color:#000000;stop-opacity:0"/>
		<stop  offset="0.6305" style="stop-color:#000000;stop-opacity:0"/>
		<stop  offset="1" style="stop-color:#000000;stop-opacity:0"/>
	</linearGradient>
	<path class="st12" d="M105.8,132.9H27.1c-15,0-27.1-12.1-27.1-27.1V27C0,12.1,12.1,0,27.1,0h78.8c15,0,27.1,12.1,27.1,27.1v78.8
		C132.9,120.7,120.8,132.9,105.8,132.9z"/>
	<linearGradient id="SVGID_8_" gradientUnits="userSpaceOnUse" x1="112.8562" y1="152.5639" x2="46.5879" y2="29.5219">
		<stop  offset="7.737604e-003" style="stop-color:#000000"/>
		<stop  offset="0.1231" style="stop-color:#000000"/>
		<stop  offset="0.1439" style="stop-color:#000000"/>
		<stop  offset="0.2701" style="stop-color:#000000"/>
		<stop  offset="0.2745" style="stop-color:#000000;stop-opacity:0.9121"/>
		<stop  offset="0.3192" style="stop-color:#000000;stop-opacity:0"/>
		<stop  offset="0.364" style="stop-color:#000000;stop-opacity:0"/>
		<stop  offset="0.6305" style="stop-color:#000000;stop-opacity:0"/>
		<stop  offset="1" style="stop-color:#000000;stop-opacity:0"/>
	</linearGradient>
	<path class="st13" d="M105.8,132.9H27.1c-15,0-27.1-12.1-27.1-27.1V27C0,12.1,12.1,0,27.1,0h78.8c15,0,27.1,12.1,27.1,27.1v78.8
		C132.9,120.7,120.8,132.9,105.8,132.9z"/>
	<linearGradient id="SVGID_9_" gradientUnits="userSpaceOnUse" x1="13.4417" y1="126.8455" x2="105.6031" y2="21.7879">
		<stop  offset="7.737604e-003" style="stop-color:#000000"/>
		<stop  offset="0.1231" style="stop-color:#000000"/>
		<stop  offset="0.1439" style="stop-color:#000000;stop-opacity:0.9576"/>
		<stop  offset="0.2701" style="stop-color:#000000;stop-opacity:0.7"/>
		<stop  offset="0.2782" style="stop-color:#000000;stop-opacity:0.6385"/>
		<stop  offset="0.3615" style="stop-color:#000000;stop-opacity:0"/>
		<stop  offset="0.4004" style="stop-color:#000000;stop-opacity:0"/>
		<stop  offset="0.6305" style="stop-color:#000000;stop-opacity:0"/>
		<stop  offset="1" style="stop-color:#000000;stop-opacity:0"/>
	</linearGradient>
	<path class="st14" d="M105.8,132.9H27.1c-15,0-27.1-12.1-27.1-27.1V27C0,12.1,12.1,0,27.1,0h78.8c15,0,27.1,12.1,27.1,27.1v78.8
		C132.9,120.7,120.8,132.9,105.8,132.9z"/>

		<radialGradient id="SVGID_10_" cx="72.7898" cy="-1.5876" r="137.7965" gradientTransform="matrix(4.902837e-002 -0.9988 1.1986 5.883404e-002 71.1239 71.208)" gradientUnits="userSpaceOnUse">
		<stop  offset="0" style="stop-color:#8C8C8C"/>
		<stop  offset="0.2115" style="stop-color:#848484"/>
		<stop  offset="0.3692" style="stop-color:#646464"/>
		<stop  offset="0.382" style="stop-color:#5E5E5E"/>
		<stop  offset="0.4604" style="stop-color:#3F3F3F"/>
		<stop  offset="0.5041" style="stop-color:#333333"/>
		<stop  offset="0.6293" style="stop-color:#313131"/>
		<stop  offset="0.687" style="stop-color:#292929"/>
		<stop  offset="0.731" style="stop-color:#1D1D1D"/>
		<stop  offset="0.7677" style="stop-color:#0B0B0B"/>
		<stop  offset="0.7837" style="stop-color:#000000"/>
		<stop  offset="0.8737" style="stop-color:#000000"/>
		<stop  offset="0.8885" style="stop-color:#000000"/>
		<stop  offset="0.9884" style="stop-color:#000000"/>
	</radialGradient>
	<path class="st15" d="M105.8,132.9H27.1c-15,0-27.1-12.1-27.1-27.1V27C0,12.1,12.1,0,27.1,0h78.8c15,0,27.1,12.1,27.1,27.1v78.8
		C132.9,120.7,120.8,132.9,105.8,132.9z"/>
	<g class="st6">
		<path d="M100.6,101.7H25.1c-2.2,0-5.5-0.8-8.5-4.4c-4.9-6.1-5.1-16.1-3.2-22.8c1.8-6.2,5.5-10.6,10.4-12.3
			c1.1-0.4,2.3-0.6,3.6-0.6h0.9v-11c0-3,1.2-5.8,3.2-8l9.7-9.9c2.1-2.2,5.1-3.4,8.1-3.4h58.7c6.3,0,11.4,5.1,11.4,11.4v30.7
			c0,9.5-1.8,17-5.3,22.3C110.9,98.7,105.9,101.7,100.6,101.7z M27.2,94.2l75.7-0.2c2.8,0,8.9-8.8,8.9-22.4V37.3l-64-1.4L36.3,46.2
			l-0.5,18c0,4.2,0.5,5-3.8,5l-5.7-0.4c-1.1,0.5-7.9,4.9-8.6,7.2c-1.4,4.8,3.6,17.7,5.1,19.6C22.9,95.6,27.1,94.2,27.2,94.2z"/>
	</g>
	<path class="st16" d="M108.2,37c2,0,3.6,1.6,3.6,3.6v30.7c0,17.9-6.9,22.7-11.2,22.7H25.1c-1,0-1.8-0.7-2.5-1.6
		c-4.4-5.4-3.3-20.5,3.8-22.9c0.3-0.1,0.7-0.2,1.1-0.2h5c2,0,3.6-1.6,3.6-3.6V50.5c0-1,0.4-1.9,1-2.6l9.7-9.9
		c0.7-0.7,1.6-1.1,2.6-1.1H108.2 M108.2,33.2H49.5c-2,0-3.9,0.8-5.3,2.2l-9.7,9.9c-1.4,1.4-2.1,3.2-2.1,5.2v15h-4.9
		c-0.8,0-1.6,0.1-2.3,0.4c-3.7,1.3-6.5,4.7-7.9,9.6c-1.7,5.9-1.4,14.4,2.4,19.2c1.6,2,3.4,2.9,5.4,2.9h75.5c3.9,0,7.7-2.3,10.3-6.3
		c3.1-4.6,4.6-11.4,4.6-20.1V40.6C115.5,36.5,112.2,33.2,108.2,33.2L108.2,33.2z"/>
	<path class="st16" d="M100.6,95.6H25.1c-2,0-3.3-1.6-3.8-2.2c-3.1-3.8-3.9-11.8-1.8-18.1c1.4-4.1,3.8-6.8,6.9-7.6l0.2,0h7.8V48.4
		l12.8-13.1h61.3c2.7,0,4.9,2.2,4.9,4.9v31.1C113.5,89.2,106.5,95.6,100.6,95.6z M27.1,70.9c-2.5,0.7-3.9,3.7-4.4,5.4
		c-1.7,5.2-1.2,12.1,1.2,15.1c0.7,0.8,1.1,1,1.2,1h75.5c3.6,0,9.6-4.4,9.6-21.1V40.2c0-0.9-0.7-1.7-1.7-1.7H48.6L37.7,49.7v18h62.4
		v3.3H27.1z"/>

		<rect x="94.6" y="81.9" transform="matrix(1.216093e-002 -0.9999 0.9999 1.216093e-002 9.509 180.7137)" class="st7" width="3.3" height="7.3"/>
	<path class="st16" d="M99.3,95.6c-5.2,0-9.7-8.1-9.7-13.3c0-5,2.9-14.7,9.8-14.7c2.5,0,4.6,1.1,5.9,3.1c2,3.1,1.7,8.1-0.7,13.2
		c-0.9,1.8-2.5,3.1-4.3,3.2c-1.6,0.1-3-0.6-3.9-1.9c-0.6-0.9-1.3-2.9-0.3-6h-2.9c-0.2,1.1-0.4,2.2-0.4,3.1c0,3.8,3.6,10,6.4,10V95.6
		z M94.2,76h5.3l1,1.6l-0.4,0.9c-1.4,2.6-1.4,4.3-0.9,5c0.3,0.4,0.6,0.4,0.9,0.4c0.5,0,1.2-0.4,1.6-1.3c1.9-4.1,2.2-7.9,0.9-10.1
		c-0.7-1.1-1.7-1.6-3.2-1.6C97.1,70.9,95.3,73.3,94.2,76z"/>
	<path class="st17" d="M86.4,88.3H26c-0.4,0-0.7-0.3-0.7-0.7s0.3-0.7,0.7-0.7h60.4c0.4,0,0.7,0.3,0.7,0.7S86.8,88.3,86.4,88.3z"/>
	<path class="st16" d="M85.4,82.3H25.1c-0.4,0-0.7-0.3-0.7-0.7s0.3-0.7,0.7-0.7h60.4c0.4,0,0.7,0.3,0.7,0.7S85.8,82.3,85.4,82.3z"/>
	<path class="st17" d="M103.6,62.8H43.2c-0.4,0-0.7-0.3-0.7-0.7c0-0.4,0.3-0.7,0.7-0.7h60.4c0.4,0,0.7,0.3,0.7,0.7
		C104.3,62.5,104,62.8,103.6,62.8z"/>
	<path class="st17" d="M103.6,56.3H43.2c-0.4,0-0.7-0.3-0.7-0.7s0.3-0.7,0.7-0.7h60.4c0.4,0,0.7,0.3,0.7,0.7S104,56.3,103.6,56.3z"
		/>
	<path class="st17" d="M100.7,50.6H79c-2,0-3.5-1.6-3.5-3.5c0-2,1.6-3.5,3.5-3.5h21.7c2,0,3.5,1.6,3.5,3.5
		C104.3,49.1,102.7,50.6,100.7,50.6z M79,44.9c-1.2,0-2.2,1-2.2,2.2c0,1.2,1,2.2,2.2,2.2h21.7c1.2,0,2.2-1,2.2-2.2
		c0-1.2-1-2.2-2.2-2.2H79z"/>
</g>
<g id="Layer_3_copy_2">
	<linearGradient id="SVGID_11_" gradientUnits="userSpaceOnUse" x1="59.549" y1="112.0306" x2="80.4717" y2="-26.1471">
		<stop  offset="7.737604e-003" style="stop-color:#000000"/>
		<stop  offset="0.1231" style="stop-color:#000000"/>
		<stop  offset="0.1439" style="stop-color:#000000;stop-opacity:0.9717"/>
		<stop  offset="0.2701" style="stop-color:#000000;stop-opacity:0.8"/>
		<stop  offset="0.2853" style="stop-color:#000000;stop-opacity:0.7297"/>
		<stop  offset="0.4423" style="stop-color:#000000;stop-opacity:0"/>
		<stop  offset="0.4695" style="stop-color:#000000;stop-opacity:0"/>
		<stop  offset="0.6305" style="stop-color:#000000;stop-opacity:0"/>
		<stop  offset="1" style="stop-color:#000000;stop-opacity:0"/>
	</linearGradient>
	<path class="st18" d="M105.8,132.9H27.1c-15,0-27.1-12.1-27.1-27.1V27C0,12.1,12.1,0,27.1,0h78.8c15,0,27.1,12.1,27.1,27.1v78.8
		C132.9,120.7,120.8,132.9,105.8,132.9z"/>
	<linearGradient id="SVGID_12_" gradientUnits="userSpaceOnUse" x1="73.2985" y1="152.4549" x2="62.2205" y2="13.1418">
		<stop  offset="7.737604e-003" style="stop-color:#000000"/>
		<stop  offset="0.1231" style="stop-color:#000000"/>
		<stop  offset="0.1439" style="stop-color:#000000"/>
		<stop  offset="0.2701" style="stop-color:#000000"/>
		<stop  offset="0.2775" style="stop-color:#000000;stop-opacity:0.9121"/>
		<stop  offset="0.3538" style="stop-color:#000000;stop-opacity:0"/>
		<stop  offset="0.3937" style="stop-color:#000000;stop-opacity:0"/>
		<stop  offset="0.6305" style="stop-color:#000000;stop-opacity:0"/>
		<stop  offset="1" style="stop-color:#000000;stop-opacity:0"/>
	</linearGradient>
	<path class="st19" d="M105.8,132.9H27.1c-15,0-27.1-12.1-27.1-27.1V27C0,12.1,12.1,0,27.1,0h78.8c15,0,27.1,12.1,27.1,27.1v78.8
		C132.9,120.7,120.8,132.9,105.8,132.9z"/>
	<linearGradient id="SVGID_13_" gradientUnits="userSpaceOnUse" x1="112.8562" y1="152.5639" x2="46.5879" y2="29.5219">
		<stop  offset="7.737604e-003" style="stop-color:#000000"/>
		<stop  offset="0.1231" style="stop-color:#000000"/>
		<stop  offset="0.1439" style="stop-color:#000000"/>
		<stop  offset="0.2701" style="stop-color:#000000"/>
		<stop  offset="0.2745" style="stop-color:#000000;stop-opacity:0.9121"/>
		<stop  offset="0.3192" style="stop-color:#000000;stop-opacity:0"/>
		<stop  offset="0.364" style="stop-color:#000000;stop-opacity:0"/>
		<stop  offset="0.6305" style="stop-color:#000000;stop-opacity:0"/>
		<stop  offset="1" style="stop-color:#000000;stop-opacity:0"/>
	</linearGradient>
	<path class="st20" d="M105.8,132.9H27.1c-15,0-27.1-12.1-27.1-27.1V27C0,12.1,12.1,0,27.1,0h78.8c15,0,27.1,12.1,27.1,27.1v78.8
		C132.9,120.7,120.8,132.9,105.8,132.9z"/>
	<linearGradient id="SVGID_14_" gradientUnits="userSpaceOnUse" x1="13.4417" y1="126.8455" x2="105.6031" y2="21.7879">
		<stop  offset="7.737604e-003" style="stop-color:#000000"/>
		<stop  offset="0.1231" style="stop-color:#000000"/>
		<stop  offset="0.1439" style="stop-color:#000000;stop-opacity:0.9576"/>
		<stop  offset="0.2701" style="stop-color:#000000;stop-opacity:0.7"/>
		<stop  offset="0.2782" style="stop-color:#000000;stop-opacity:0.6385"/>
		<stop  offset="0.3615" style="stop-color:#000000;stop-opacity:0"/>
		<stop  offset="0.4004" style="stop-color:#000000;stop-opacity:0"/>
		<stop  offset="0.6305" style="stop-color:#000000;stop-opacity:0"/>
		<stop  offset="1" style="stop-color:#000000;stop-opacity:0"/>
	</linearGradient>
	<path class="st21" d="M105.8,132.9H27.1c-15,0-27.1-12.1-27.1-27.1V27C0,12.1,12.1,0,27.1,0h78.8c15,0,27.1,12.1,27.1,27.1v78.8
		C132.9,120.7,120.8,132.9,105.8,132.9z"/>

		<radialGradient id="SVGID_15_" cx="72.7898" cy="-1.5876" r="137.7965" gradientTransform="matrix(4.902837e-002 -0.9988 1.1986 5.883404e-002 71.1239 71.208)" gradientUnits="userSpaceOnUse">
		<stop  offset="0" style="stop-color:#8C8C8C"/>
		<stop  offset="0.2115" style="stop-color:#848484"/>
		<stop  offset="0.3692" style="stop-color:#646464"/>
		<stop  offset="0.382" style="stop-color:#5E5E5E"/>
		<stop  offset="0.4604" style="stop-color:#3F3F3F"/>
		<stop  offset="0.5041" style="stop-color:#333333"/>
		<stop  offset="0.6293" style="stop-color:#313131"/>
		<stop  offset="0.687" style="stop-color:#292929"/>
		<stop  offset="0.731" style="stop-color:#1D1D1D"/>
		<stop  offset="0.7677" style="stop-color:#0B0B0B"/>
		<stop  offset="0.7837" style="stop-color:#000000"/>
		<stop  offset="0.8737" style="stop-color:#000000"/>
		<stop  offset="0.8885" style="stop-color:#000000"/>
		<stop  offset="0.9884" style="stop-color:#000000"/>
	</radialGradient>
	<path class="st22" d="M105.8,132.9H27.1c-15,0-27.1-12.1-27.1-27.1V27C0,12.1,12.1,0,27.1,0h78.8c15,0,27.1,12.1,27.1,27.1v78.8
		C132.9,120.7,120.8,132.9,105.8,132.9z"/>
	<g>
		<path class="st23" d="M100.6,101.7H25.1c-2.2,0-5.5-0.8-8.5-4.4c-4.9-6.1-5.1-16.1-3.2-22.8c1.8-6.2,5.5-10.6,10.4-12.3
			c1.1-0.4,2.3-0.6,3.6-0.6h0.9v-11c0-3,1.2-5.8,3.2-8l9.7-9.9c2.1-2.2,5.1-3.4,8.1-3.4h58.7c6.3,0,11.4,5.1,11.4,11.4v30.7
			c0,9.5-1.8,17-5.3,22.3C110.9,98.7,105.9,101.7,100.6,101.7z M27.2,94.2l75.7-0.2c2.8,0,8.9-8.8,8.9-22.4V37.3l-64-1.4L36.3,46.2
			l-0.5,18c0,4.2,0.5,5-3.8,5l-5.7-0.4c-1.1,0.5-7.9,4.9-8.6,7.2c-1.4,4.8,3.6,17.7,5.1,19.6C22.9,95.6,27.1,94.2,27.2,94.2z"/>
	</g>
	<path class="st24" d="M108.2,37c2,0,3.6,1.6,3.6,3.6v30.7c0,17.9-6.9,22.7-11.2,22.7H25.1c-1,0-1.8-0.7-2.5-1.6
		c-4.4-5.4-3.3-20.5,3.8-22.9c0.3-0.1,0.7-0.2,1.1-0.2h5c2,0,3.6-1.6,3.6-3.6V50.5c0-1,0.4-1.9,1-2.6l9.7-9.9
		c0.7-0.7,1.6-1.1,2.6-1.1H108.2 M108.2,33.2H49.5c-2,0-3.9,0.8-5.3,2.2l-9.7,9.9c-1.4,1.4-2.1,3.2-2.1,5.2v15h-4.9
		c-0.8,0-1.6,0.1-2.3,0.4c-3.7,1.3-6.5,4.7-7.9,9.6c-1.7,5.9-1.4,14.4,2.4,19.2c1.6,2,3.4,2.9,5.4,2.9h75.5c3.9,0,7.7-2.3,10.3-6.3
		c3.1-4.6,4.6-11.4,4.6-20.1V40.6C115.5,36.5,112.2,33.2,108.2,33.2L108.2,33.2z"/>
	<path class="st24" d="M100.6,95.6H25.1c-2,0-3.3-1.6-3.8-2.2c-3.1-3.8-3.9-11.8-1.8-18.1c1.4-4.1,3.8-6.8,6.9-7.6l0.2,0h7.8V48.4
		l12.8-13.1h61.3c2.7,0,4.9,2.2,4.9,4.9v31.1C113.5,89.2,106.5,95.6,100.6,95.6z M27.1,70.9c-2.5,0.7-3.9,3.7-4.4,5.4
		c-1.7,5.2-1.2,12.1,1.2,15.1c0.7,0.8,1.1,1,1.2,1h75.5c3.6,0,9.6-4.4,9.6-21.1V40.2c0-0.9-0.7-1.7-1.7-1.7H48.6L37.7,49.7v18h62.4
		v3.3H27.1z"/>

		<rect x="94.6" y="81.9" transform="matrix(1.216093e-002 -0.9999 0.9999 1.216093e-002 9.509 180.7137)" class="st25" width="3.3" height="7.3"/>
	<path class="st24" d="M99.3,95.6c-5.2,0-9.7-8.1-9.7-13.3c0-5,2.9-14.7,9.8-14.7c2.5,0,4.6,1.1,5.9,3.1c2,3.1,1.7,8.1-0.7,13.2
		c-0.9,1.8-2.5,3.1-4.3,3.2c-1.6,0.1-3-0.6-3.9-1.9c-0.6-0.9-1.3-2.9-0.3-6h-2.9c-0.2,1.1-0.4,2.2-0.4,3.1c0,3.8,3.6,10,6.4,10V95.6
		z M94.2,76h5.3l1,1.6l-0.4,0.9c-1.4,2.6-1.4,4.3-0.9,5c0.3,0.4,0.6,0.4,0.9,0.4c0.5,0,1.2-0.4,1.6-1.3c1.9-4.1,2.2-7.9,0.9-10.1
		c-0.7-1.1-1.7-1.6-3.2-1.6C97.1,70.9,95.3,73.3,94.2,76z"/>
	<path class="st26" d="M86.4,88.3H26c-0.4,0-0.7-0.3-0.7-0.7s0.3-0.7,0.7-0.7h60.4c0.4,0,0.7,0.3,0.7,0.7S86.8,88.3,86.4,88.3z"/>
	<path class="st24" d="M85.4,82.3H25.1c-0.4,0-0.7-0.3-0.7-0.7s0.3-0.7,0.7-0.7h60.4c0.4,0,0.7,0.3,0.7,0.7S85.8,82.3,85.4,82.3z"/>
	<path class="st26" d="M103.6,62.8H43.2c-0.4,0-0.7-0.3-0.7-0.7c0-0.4,0.3-0.7,0.7-0.7h60.4c0.4,0,0.7,0.3,0.7,0.7
		C104.3,62.5,104,62.8,103.6,62.8z"/>
	<path class="st26" d="M103.6,56.3H43.2c-0.4,0-0.7-0.3-0.7-0.7s0.3-0.7,0.7-0.7h60.4c0.4,0,0.7,0.3,0.7,0.7S104,56.3,103.6,56.3z"
		/>
	<path class="st26" d="M100.7,50.6H79c-2,0-3.5-1.6-3.5-3.5c0-2,1.6-3.5,3.5-3.5h21.7c2,0,3.5,1.6,3.5,3.5
		C104.3,49.1,102.7,50.6,100.7,50.6z M79,44.9c-1.2,0-2.2,1-2.2,2.2c0,1.2,1,2.2,2.2,2.2h21.7c1.2,0,2.2-1,2.2-2.2
		c0-1.2-1-2.2-2.2-2.2H79z"/>
</g>
</svg>
