<svg id="Layer_1" data-name="Layer 1" xmlns="http://www.w3.org/2000/svg" xmlns:xlink="http://www.w3.org/1999/xlink" viewBox="0 0 132.91 177.31"><defs><style>.cls-1{fill:url(#linear-gradient);}.cls-2{fill:url(#radial-gradient);}.cls-3,.cls-4,.cls-5{fill:#fff;}.cls-4,.cls-5{stroke:#fff;stroke-miterlimit:10;}.cls-5{stroke-width:0.5px;}.cls-6{fill:#6d6d6d;}</style><linearGradient id="linear-gradient" x1="47.63" y1="95.74" x2="116.33" y2="-11.11" gradientUnits="userSpaceOnUse"><stop offset="0.01" stop-color="#e1606e"/><stop offset="0.11" stop-color="#eb7a81"/><stop offset="0.24" stop-color="#f49595"/><stop offset="0.32" stop-color="#f89f9c"/><stop offset="0.63" stop-color="#f3a993"/><stop offset="0.74" stop-color="#f0b1ad"/><stop offset="0.83" stop-color="#efb6bb"/><stop offset="1" stop-color="#efb28b"/></linearGradient><radialGradient id="radial-gradient" cx="72.88" cy="-0.41" r="137.8" gradientTransform="translate(69.71 71.77) rotate(-87.19) scale(1 1.2)" gradientUnits="userSpaceOnUse"><stop offset="0" stop-color="#aaa"/><stop offset="0.21" stop-color="#a0a0a0"/><stop offset="0.52" stop-color="#969696"/><stop offset="0.79" stop-color="#8c8c8c"/><stop offset="0.96" stop-color="#8c8c8c"/><stop offset="0.99" stop-color="#8c8c8c"/></radialGradient></defs><title>MinipostLogo2021-Q1</title><g id="Layer_12_copy" data-name="Layer 12 copy"><rect class="cls-1" width="132.91" height="132.91" rx="27.07" ry="27.07"/><rect class="cls-2" width="132.91" height="132.91" rx="27.07" ry="27.07"/></g><g id="minipostmerge_copy" data-name="minipostmerge copy"><path class="cls-3" d="M100.7,102.37H25.21c-2.24,0-5.52-.77-8.49-4.42-4.93-6.07-5.11-16.07-3.18-22.79C15.33,68.92,19,64.54,24,62.84a10.81,10.81,0,0,1,3.58-.57h0.92v-11a11.31,11.31,0,0,1,3.24-8l9.72-9.94a11.44,11.44,0,0,1,8.13-3.42h58.72a11.39,11.39,0,0,1,11.37,11.37V72c0,9.49-1.77,17-5.27,22.29C111,99.41,106,102.37,100.7,102.37ZM27.25,94.9L103,94.65c2.79,0,8.95-8.77,8.95-22.38V38l-64-1.37L36.38,46.9l-0.5,18c0,4.22.47,5-3.75,5l-5.68-.37c-1.11.5-7.92,4.89-8.57,7.17C16.51,81.45,21.43,94.34,23,96.28,23,96.31,27.23,94.87,27.25,94.9Z" transform="translate(-0.09 -0.63)"/><path class="cls-4" d="M108.26,37.64a3.65,3.65,0,0,1,3.65,3.65V72c0,17.87-6.92,22.68-11.21,22.68H25.21a3.43,3.43,0,0,1-2.49-1.56c-4.37-5.38-3.3-20.51,3.75-22.94A3.26,3.26,0,0,1,27.54,70h5a3.65,3.65,0,0,0,3.65-3.65V51.22a3.65,3.65,0,0,1,1-2.55l9.72-9.94a3.65,3.65,0,0,1,2.61-1.1h58.72m0-3.72H49.54a7.41,7.41,0,0,0-5.27,2.22l-9.72,9.94a7.33,7.33,0,0,0-2.1,5.15v15H27.54a6.88,6.88,0,0,0-2.27.36c-3.66,1.26-6.45,4.68-7.87,9.64-1.7,5.94-1.4,14.43,2.44,19.17a6.9,6.9,0,0,0,5.38,2.94H100.7c3.91,0,7.68-2.3,10.32-6.31,3.06-4.64,4.61-11.4,4.61-20.09V41.29a7.38,7.38,0,0,0-7.37-7.37h0Z" transform="translate(-0.09 -0.63)"/><path class="cls-3" d="M100.7,96.28H25.21a5.1,5.1,0,0,1-3.76-2.17C18.33,90.26,17.55,82.29,19.67,76c1.38-4.12,3.85-6.8,6.93-7.56l0.19,0h7.75V49.07L47.32,36h61.31a4.91,4.91,0,0,1,4.91,4.91V72C113.54,89.91,106.62,96.28,100.7,96.28ZM27.21,71.62c-2.54.74-3.87,3.68-4.45,5.39C21,82.2,21.58,89.09,24,92.06a2,2,0,0,0,1.23,1H100.7c3.56,0,9.58-4.43,9.58-21.05V40.92a1.65,1.65,0,0,0-1.65-1.65H48.69L37.8,50.4v18h62.35v3.26H27.21Z" transform="translate(-0.09 -0.63)"/><g id="Layer_3_copy_14" data-name="Layer 3 copy 14"><rect class="cls-3" x="94.68" y="82.56" width="3.26" height="7.32" transform="translate(8.83 180.84) rotate(-89.3)"/><path class="cls-3" d="M99.38,96.28c-5.25,0-9.68-8.14-9.68-13.25,0-5,2.95-14.66,9.76-14.66a6.74,6.74,0,0,1,5.91,3.12c2,3.14,1.75,8.08-.67,13.22a5.33,5.33,0,0,1-4.34,3.18A4.18,4.18,0,0,1,96.51,86c-0.61-.94-1.33-2.86-0.26-6H93.32A15.24,15.24,0,0,0,93,83c0,3.8,3.59,10,6.42,10v3.26ZM94.31,76.71h5.28l1,1.61-0.44.88c-1.36,2.6-1.35,4.29-.89,5a0.94,0.94,0,0,0,.9.43,2.08,2.08,0,0,0,1.62-1.32c1.91-4.06,2.24-7.93.86-10.09a3.5,3.5,0,0,0-3.16-1.61C97.2,71.62,95.43,74,94.31,76.71Z" transform="translate(-0.09 -0.63)"/></g><g id="Layer_5_copy_13" data-name="Layer 5 copy 13"><path class="cls-5" d="M86.47,89H26.09a0.7,0.7,0,0,1,0-1.4H86.47A0.7,0.7,0,0,1,86.47,89Z" transform="translate(-0.09 -0.63)"/><path class="cls-5" d="M85.53,83H25.14a0.7,0.7,0,1,1,0-1.4H85.53A0.7,0.7,0,0,1,85.53,83Z" transform="translate(-0.09 -0.63)"/><path class="cls-5" d="M103.66,63.49H43.28a0.7,0.7,0,1,1,0-1.4h60.38A0.7,0.7,0,1,1,103.66,63.49Z" transform="translate(-0.09 -0.63)"/><path class="cls-5" d="M103.66,57H43.28a0.7,0.7,0,1,1,0-1.4h60.38A0.7,0.7,0,1,1,103.66,57Z" transform="translate(-0.09 -0.63)"/></g><path class="cls-5" d="M100.81,51.32H79.14a3.55,3.55,0,1,1,0-7.1h21.68A3.55,3.55,0,1,1,100.81,51.32Zm-21.68-5.7a2.15,2.15,0,1,0,0,4.3h21.68a2.15,2.15,0,1,0,0-4.3H79.14Z" transform="translate(-0.09 -0.63)"/></g><path class="cls-6" d="M0.51,160.61c0.41-.79.76-1.62,1.24-2.37a4.77,4.77,0,0,1,5.42-2,2.54,2.54,0,0,1,2.24,2.42,0.48,0.48,0,0,0,.13.15c0.38-.43.75-0.86,1.14-1.27a4.47,4.47,0,0,1,3.48-1.44,3.35,3.35,0,0,1,3.28,2.85c0.58-.59,1.15-1.27,1.82-1.83,2.24-1.88,5.65-1.13,6.44,1.65a3.71,3.71,0,0,1-.19,2.31c-0.75,2.07-1.52,4.13-2.27,6.2a3.63,3.63,0,0,0-.23,1,0.94,0.94,0,0,0,1.29,1,2.28,2.28,0,0,0,1.37-1.15q0.48-.84.91-1.71c0.27-.54.6-0.15,0.9-0.09s0.21,0.32.11,0.54a8.25,8.25,0,0,1-1.92,3.09,4.51,4.51,0,0,1-2.54,1.1,4.75,4.75,0,0,1-3.52-.73,2.52,2.52,0,0,1-.85-3.19c0.55-1.64,1.19-3.24,1.77-4.87a9.15,9.15,0,0,0,.93-3.21,0.87,0.87,0,0,0-1.3-.89,4.85,4.85,0,0,0-2.93,3.31c-0.56,1.72-1.13,3.44-1.69,5.16-0.4,1.22-.79,2.45-1.2,3.67a0.55,0.55,0,0,1-.33.35c-1.42,0-2.85,0-4.35,0,0.27-.84.52-1.63,0.78-2.41,0.89-2.7,1.81-5.39,2.67-8.1a4.31,4.31,0,0,0,.09-1.52c0-.48-0.59-0.67-1.19-0.48A4.73,4.73,0,0,0,9.78,160,13,13,0,0,0,8,164c-0.71,2.06-1.38,4.14-2.08,6.21a0.57,0.57,0,0,1-.33.36c-1.42,0-2.85,0-4.33,0l1-3C3.19,165,4.07,162.52,4.89,160A4.23,4.23,0,0,0,5,158.38a0.62,0.62,0,0,0-.91-0.52,3.49,3.49,0,0,0-1.94,1.92,8.71,8.71,0,0,0-.5,1.06c-0.14.36-.32,0.48-0.69,0.28A1.88,1.88,0,0,0,.51,161Q0.51,160.81.51,160.61Z" transform="translate(-0.09 -0.63)"/><path class="cls-6" d="M68,177.94a0.55,0.55,0,0,1,0-.75,0.53,0.53,0,0,1,.41-0.26,2.56,2.56,0,0,0,2.76-2.1c0.73-2.22,1.39-4.46,2.09-6.69s1.44-4.58,2.16-6.88c0.21-.68.39-1.37,0.56-2.05a1.1,1.1,0,0,0-.25-1.26,1,1,0,0,0-1.3.25A16.86,16.86,0,0,0,73,160.08a3,3,0,0,0-.33.74,0.46,0.46,0,0,1-.74.31c-0.37-.16-0.5-0.31-0.32-0.71A8.15,8.15,0,0,1,73.81,157a4,4,0,0,1,2.43-.91,8.71,8.71,0,0,1,2,.2,2.35,2.35,0,0,1,1.89,1.85c0,0.19.12,0.38,0.19,0.57A10.38,10.38,0,0,1,83,156.42a4.24,4.24,0,0,1,5.92,3,10.24,10.24,0,0,1-1.84,7.92,8.29,8.29,0,0,1-3.81,3.16,5.85,5.85,0,0,1-4.08.36c-0.8-.25-1.08-0.48-1.88-1.69-0.33,1.06-.66,2.07-1,3.1s-0.53,1.89-.79,2.84,0,1.47,1.07,1.62l1.91,0.24-0.37,1H68Zm16.44-17.56a17.05,17.05,0,0,0-.44-1.76,0.82,0.82,0,0,0-1.1-.56,6.07,6.07,0,0,0-1.41.78,5.27,5.27,0,0,0-1.83,2.93c-0.51,1.86-1.17,3.67-1.72,5.52a2,2,0,0,0,1.52,2.3,2.52,2.52,0,0,0,2.46-1.35A13.81,13.81,0,0,0,84.42,160.38Z" transform="translate(-0.09 -0.63)"/><path class="cls-6" d="M69,147.81A2.49,2.49,0,0,1,71,150.72a2.92,2.92,0,0,1-2.72,2.74,2.22,2.22,0,0,1-2.41-1.84c-0.44-1.55.73-3.61,2.36-3.72a0.31,0.31,0,0,0,.12-0.09H69Z" transform="translate(-0.09 -0.63)"/><path class="cls-6" d="M37.55,147.81a2.55,2.55,0,0,1,2,2.81,3.11,3.11,0,0,1-2.75,2.85,2.52,2.52,0,0,1-2.47-3,3.11,3.11,0,0,1,2.54-2.63h0.72Z" transform="translate(-0.09 -0.63)"/><path class="cls-6" d="M40.78,170.61c0.23-.7.43-1.33,0.64-1.95,0.93-2.72,1.87-5.44,2.78-8.17a8.53,8.53,0,0,0,.35-1.58,0.82,0.82,0,0,0-.38-1,1.2,1.2,0,0,0-1.27.31,5.66,5.66,0,0,0-1.59,2.24c-0.42.93-.25,0.94-1.38,0.48,0.16-.41.31-0.83,0.49-1.24a6.66,6.66,0,0,1,1.83-2.62,4.91,4.91,0,0,1,4.34-.85,2.65,2.65,0,0,1,2.13,1.84,6,6,0,0,1,.14.75A16.25,16.25,0,0,1,50.7,157a4.29,4.29,0,0,1,4.79-.49,3.35,3.35,0,0,1,1.63,4c-0.72,2.12-1.51,4.21-2.26,6.31a6.39,6.39,0,0,0-.34,1.27,0.94,0.94,0,0,0,1.37,1,3.05,3.05,0,0,0,1.53-1.58,10.78,10.78,0,0,0,.61-1.23c0.23-.54.59-0.22,0.89-0.14s0.25,0.35.13,0.6c-0.37.72-.68,1.49-1.12,2.17a4.4,4.4,0,0,1-3.35,2,4.8,4.8,0,0,1-3.61-.82,2.33,2.33,0,0,1-.9-2.44c0.46-1.47,1-2.92,1.49-4.37,0.43-1.23.88-2.45,1.29-3.69a1.34,1.34,0,0,0-.18-1.45,1.21,1.21,0,0,0-1.43,0,4.7,4.7,0,0,0-1.82,1.54,12.64,12.64,0,0,0-2,4.41c-0.7,2-1.37,4.08-2.07,6.11a0.52,0.52,0,0,1-.36.3C43.65,170.62,42.28,170.61,40.78,170.61Z" transform="translate(-0.09 -0.63)"/><path class="cls-6" d="M96.3,171.14A5.51,5.51,0,0,1,91.13,168a6.06,6.06,0,0,1-.45-3.59,9.78,9.78,0,0,1,1.89-4.65,8.75,8.75,0,0,1,4.87-3.27,13.35,13.35,0,0,1,2.76-.41,5.3,5.3,0,0,1,5.42,4.31,10.53,10.53,0,0,1,0,2.6,8.63,8.63,0,0,1-1.66,4.32,8.51,8.51,0,0,1-4.86,3.29C98.18,170.84,97.24,171,96.3,171.14ZM101.14,160c-0.06-.43-0.13-1.16-0.26-1.88a0.91,0.91,0,0,0-1-.79,2.54,2.54,0,0,0-2.21,1.34,15.7,15.7,0,0,0-2.44,9.53c0.05,1.53,1.09,2,2.45,1.32a4.05,4.05,0,0,0,1.58-1.76A16.76,16.76,0,0,0,101.14,160Z" transform="translate(-0.09 -0.63)"/><path class="cls-6" d="M117.44,157.79a3.13,3.13,0,0,0-2.6-.38,2.14,2.14,0,0,0-1.55,2.84,2.7,2.7,0,0,0,1.26,1.23c1,0.6,2,1.12,2.91,1.77a3.72,3.72,0,0,1,.5,5.74A6.93,6.93,0,0,1,114,170.9a8.83,8.83,0,0,1-5.67-.77,3.22,3.22,0,0,1-1.48-4.54,2.61,2.61,0,0,1,3.94-.44,2,2,0,0,1-1.24,3.2,4.6,4.6,0,0,0-.52.15,2.11,2.11,0,0,0,.29.5,3.34,3.34,0,0,0,3,.74,2.84,2.84,0,0,0,2-1.12,1.8,1.8,0,0,0-.12-2.29,6.92,6.92,0,0,0-1.18-.89c-0.91-.59-1.9-1.08-2.76-1.73a3.67,3.67,0,0,1-.39-5.53,7,7,0,0,1,5.08-2.12,6.84,6.84,0,0,1,3.76.92,2.73,2.73,0,0,1,1,3.88,2.41,2.41,0,0,1-2.66.93,2.3,2.3,0,0,1-1-.42c-1-.81-0.85-2.14.33-3C116.78,158.21,117.08,158,117.44,157.79Z" transform="translate(-0.09 -0.63)"/><path class="cls-6" d="M124.19,157.82h-2.84a0.66,0.66,0,0,1,0-.19c0.38-1.16.38-1.16,1.61-1.16,0.45,0,.89,0,1.34,0a0.48,0.48,0,0,0,.54-0.42c0.36-1.3.77-2.6,1.12-3.9a0.61,0.61,0,0,1,.72-0.53c1.08,0,2.16,0,3.25,0a3.65,3.65,0,0,1,.59.1l-1.43,4.72H133c-0.09.35-.16,0.65-0.24,0.94a0.51,0.51,0,0,1-.59.42c-1.15,0-2.3,0-3.49,0-0.78,2.6-1.55,5.18-2.31,7.76-0.19.63-.37,1.27-0.52,1.91a3.68,3.68,0,0,0-.09,1.06,1.1,1.1,0,0,0,1.39.66,3.2,3.2,0,0,0,1.86-1.57,9.35,9.35,0,0,0,.58-1.13c0.3-.65.39-0.69,1-0.37l0.34,0.2c-0.48.91-.91,1.84-1.45,2.69a4.37,4.37,0,0,1-3,1.85,5.13,5.13,0,0,1-4.12-.65,2.37,2.37,0,0,1-1-2.63c0.51-1.84,1-3.68,1.59-5.51,0.39-1.33.82-2.65,1.22-4A1.19,1.19,0,0,0,124.19,157.82Z" transform="translate(-0.09 -0.63)"/><path class="cls-6" d="M29.26,161.22l-1-.39a10.09,10.09,0,0,1,1.95-3.47,5.24,5.24,0,0,1,5.76-.78A2.46,2.46,0,0,1,37.23,160c-0.81,2.39-1.77,4.72-2.63,7.1a5.09,5.09,0,0,0-.23,1.54,0.89,0.89,0,0,0,1.18.65,2.25,2.25,0,0,0,1.36-1.08,14.21,14.21,0,0,0,.94-1.75c0.24-.59.57-0.2,0.86-0.15s0.32,0.32.19,0.58c-0.42.78-.77,1.59-1.26,2.32A4.35,4.35,0,0,1,34.24,171a4.88,4.88,0,0,1-3.1-.6,2.3,2.3,0,0,1-1.12-3c0.65-2,1.5-4,2.26-6a6.63,6.63,0,0,0,.66-2.65,0.91,0.91,0,0,0-1.24-.86,2.33,2.33,0,0,0-1.39,1.35C29.94,159.87,29.61,160.54,29.26,161.22Z" transform="translate(-0.09 -0.63)"/><path class="cls-6" d="M60.75,161.21c-1.06-.34-1.07-0.35-0.62-1.29a15.1,15.1,0,0,1,1.06-2,4.54,4.54,0,0,1,3.68-1.88,4.29,4.29,0,0,1,2.25.34c1.72,0.84,2.13,1.95,1.57,3.58-0.81,2.37-1.76,4.69-2.62,7a4.45,4.45,0,0,0-.25,1.29,0.89,0.89,0,0,0,1.23.89,2.59,2.59,0,0,0,1.53-1.4,14.5,14.5,0,0,0,.74-1.45c0.23-.53.56-0.18,0.84-0.12s0.35,0.21.22,0.52A6.65,6.65,0,0,1,68,170.25a5.12,5.12,0,0,1-5.35.16,2.26,2.26,0,0,1-1.13-3c0.66-2,1.51-4,2.24-6a15.18,15.18,0,0,0,.68-2.34,1.41,1.41,0,0,0-.29-1,0.94,0.94,0,0,0-1.14-.13,2.65,2.65,0,0,0-1.25,1.36C61.38,159.92,61.08,160.56,60.75,161.21Z" transform="translate(-0.09 -0.63)"/></svg>