<svg id="Layer_1" data-name="Layer 1" xmlns="http://www.w3.org/2000/svg" viewBox="0 0 108.89 77.47"><defs><style>.cls-1,.cls-2{fill:none;stroke:#000;stroke-miterlimit:10;}.cls-1{stroke-width:3.5px;}.cls-2{stroke-linecap:round;stroke-width:1.5px;}</style></defs><title>minipostLogoText</title><g id="Layer_7" data-name="Layer 7"><path class="cls-1" d="M32.67,43.67V34.33L46.5,20.5h73.13V46.63c0,16.94-7.95,21.5-12.87,21.5H20.08a4.11,4.11,0,0,1-2.86-1.48c-5.14-5.23-3.72-20.14,4.9-21.89h84" transform="translate(-12.49 -18.75)"/><g id="Layer_3_copy" data-name="Layer 3 copy"><line class="cls-1" x1="93.42" y1="41.43" x2="85.01" y2="41.34"/><path class="cls-1" d="M105.24,68.13c-4.68,0-9.24-6.9-9.24-11s3-12.36,9.33-12.36,8.47,6,4.33,13.29c-2.32,4.07-10.07,2.35-5.22-5.3a0.05,0.05,0,0,0,0-.08h-8" transform="translate(-12.49 -18.75)"/></g><polyline class="cls-1" points="20.39 15.58 34.01 15.58 34.01 1.75"/></g><path d="M27.56,86c0.24-.47.45-1,0.74-1.4a2.82,2.82,0,0,1,3.2-1.2,1.51,1.51,0,0,1,1.33,1.43,0.28,0.28,0,0,0,.08.09c0.23-.25.45-0.51,0.68-0.75a2.65,2.65,0,0,1,2.06-.85A2,2,0,0,1,37.58,85c0.35-.35.68-0.75,1.08-1.08a2.33,2.33,0,0,1,3.81,1,2.19,2.19,0,0,1-.11,1.36c-0.45,1.22-.9,2.45-1.34,3.67a2.15,2.15,0,0,0-.14.58,0.55,0.55,0,0,0,.76.57,1.35,1.35,0,0,0,.81-0.68q0.28-.5.54-1c0.16-.32.36-0.09,0.53-0.05s0.12,0.19.07,0.32a4.88,4.88,0,0,1-1.14,1.83,2.67,2.67,0,0,1-1.5.65,2.81,2.81,0,0,1-2.08-.43,1.49,1.49,0,0,1-.5-1.89c0.32-1,.71-1.92,1-2.88a5.42,5.42,0,0,0,.55-1.9,0.51,0.51,0,0,0-.77-0.52,2.87,2.87,0,0,0-1.73,2c-0.33,1-.67,2-1,3.05-0.24.72-.47,1.45-0.71,2.17a0.33,0.33,0,0,1-.2.21c-0.84,0-1.69,0-2.57,0,0.16-.5.31-1,0.46-1.43,0.53-1.6,1.07-3.19,1.58-4.79a2.55,2.55,0,0,0,.05-0.9c0-.28-0.35-0.4-0.7-0.28A2.8,2.8,0,0,0,33,85.59,7.7,7.7,0,0,0,32,88c-0.42,1.22-.82,2.45-1.23,3.68a0.34,0.34,0,0,1-.19.21c-0.84,0-1.68,0-2.56,0l0.61-1.79c0.51-1.5,1-3,1.51-4.51a2.5,2.5,0,0,0,.08-0.94,0.37,0.37,0,0,0-.54-0.31,2.06,2.06,0,0,0-1.15,1.13,5.15,5.15,0,0,0-.29.63c-0.08.21-.19,0.28-0.41,0.17a1.11,1.11,0,0,0-.29-0.07Q27.56,86.09,27.56,86Z" transform="translate(-12.49 -18.75)"/><path d="M67.48,96.22a0.32,0.32,0,0,1,0-.45,0.31,0.31,0,0,1,.24-0.16,1.51,1.51,0,0,0,1.63-1.24c0.43-1.31.82-2.64,1.24-4s0.85-2.71,1.28-4.07c0.12-.4.23-0.81,0.33-1.21a0.65,0.65,0,0,0-.15-0.74,0.58,0.58,0,0,0-.77.15,10,10,0,0,0-.86,1.11,1.75,1.75,0,0,0-.2.44,0.27,0.27,0,0,1-.44.18c-0.22-.09-0.3-0.18-0.19-0.42a4.82,4.82,0,0,1,1.33-2,2.38,2.38,0,0,1,1.44-.54,5.15,5.15,0,0,1,1.2.12,1.39,1.39,0,0,1,1.12,1.09c0,0.11.07,0.22,0.11,0.34a6.14,6.14,0,0,1,1.58-1.36,2.51,2.51,0,0,1,3.5,1.76,6.06,6.06,0,0,1-1.09,4.69,4.9,4.9,0,0,1-2.25,1.87,3.46,3.46,0,0,1-2.42.21A1.78,1.78,0,0,1,73,91c-0.2.63-.39,1.23-0.57,1.83S72.13,94,72,94.53a0.64,0.64,0,0,0,.63,1l1.13,0.14-0.22.59h-6Zm9.73-10.39a10.09,10.09,0,0,0-.26-1,0.48,0.48,0,0,0-.65-0.33,3.59,3.59,0,0,0-.84.46,3.12,3.12,0,0,0-1.08,1.73c-0.3,1.1-.69,2.17-1,3.27a1.17,1.17,0,0,0,.9,1.36,1.49,1.49,0,0,0,1.46-.8A8.17,8.17,0,0,0,77.21,85.83Z" transform="translate(-12.49 -18.75)"/><path d="M68.09,78.39a1.47,1.47,0,0,1,1.15,1.72,1.73,1.73,0,0,1-1.61,1.62,1.31,1.31,0,0,1-1.43-1.09,1.79,1.79,0,0,1,1.39-2.2,0.18,0.18,0,0,0,.07-0.05h0.43Z" transform="translate(-12.49 -18.75)"/><path d="M49.47,78.39a1.51,1.51,0,0,1,1.16,1.66A1.84,1.84,0,0,1,49,81.74a1.49,1.49,0,0,1-1.46-1.79A1.84,1.84,0,0,1,49,78.39h0.43Z" transform="translate(-12.49 -18.75)"/><path d="M51.39,91.88c0.14-.42.25-0.78,0.38-1.15,0.55-1.61,1.11-3.22,1.65-4.84a5,5,0,0,0,.2-0.94,0.48,0.48,0,0,0-.22-0.6,0.71,0.71,0,0,0-.75.18,3.35,3.35,0,0,0-.94,1.33c-0.25.55-.15,0.56-0.82,0.28,0.1-.24.18-0.49,0.29-0.73a3.94,3.94,0,0,1,1.08-1.55,2.91,2.91,0,0,1,2.57-.5,1.57,1.57,0,0,1,1.26,1.09,3.52,3.52,0,0,1,.09.44,9.62,9.62,0,0,1,1.08-1,2.54,2.54,0,0,1,2.84-.29,2,2,0,0,1,1,2.37c-0.42,1.25-.9,2.49-1.34,3.74a3.78,3.78,0,0,0-.2.75,0.56,0.56,0,0,0,.81.61,1.8,1.8,0,0,0,.9-0.93,6.38,6.38,0,0,0,.36-0.73c0.14-.32.35-0.13,0.53-0.08s0.15,0.21.08,0.35c-0.22.43-.4,0.88-0.66,1.29a2.6,2.6,0,0,1-2,1.18,2.84,2.84,0,0,1-2.13-.48,1.38,1.38,0,0,1-.53-1.44c0.27-.87.58-1.72,0.88-2.59s0.52-1.45.76-2.19a0.79,0.79,0,0,0-.1-0.86,0.72,0.72,0,0,0-.85,0,2.78,2.78,0,0,0-1.08.91,7.48,7.48,0,0,0-1.16,2.61c-0.41,1.2-.81,2.41-1.22,3.61a0.31,0.31,0,0,1-.21.18C53.09,91.89,52.27,91.88,51.39,91.88Z" transform="translate(-12.49 -18.75)"/><path d="M84.24,92.19a3.26,3.26,0,0,1-3.06-1.85,3.58,3.58,0,0,1-.27-2.13A5.79,5.79,0,0,1,82,85.46a5.18,5.18,0,0,1,2.88-1.94,7.9,7.9,0,0,1,1.63-.24,3.13,3.13,0,0,1,3.21,2.55,6.23,6.23,0,0,1,0,1.54,5.1,5.1,0,0,1-1,2.56,5,5,0,0,1-2.88,1.95C85.35,92,84.79,92.09,84.24,92.19Zm2.86-6.61c0-.26-0.08-0.69-0.15-1.11A0.54,0.54,0,0,0,86.37,84a1.5,1.5,0,0,0-1.31.79,9.29,9.29,0,0,0-1.45,5.64c0,0.91.65,1.2,1.45,0.78a2.4,2.4,0,0,0,.94-1A9.92,9.92,0,0,0,87.1,85.59Z" transform="translate(-12.49 -18.75)"/><path d="M96.74,84.3a1.85,1.85,0,0,0-1.54-.23,1.27,1.27,0,0,0-.92,1.68,1.6,1.6,0,0,0,.74.73c0.57,0.36,1.17.66,1.72,1a2.2,2.2,0,0,1,.29,3.4,4.1,4.1,0,0,1-2.32,1.13,5.23,5.23,0,0,1-3.36-.46,1.91,1.91,0,0,1-.88-2.69,1.54,1.54,0,0,1,2.33-.26,1.16,1.16,0,0,1-.73,1.89,2.72,2.72,0,0,0-.31.09,1.25,1.25,0,0,0,.17.3,2,2,0,0,0,1.78.44,1.68,1.68,0,0,0,1.21-.66,1.06,1.06,0,0,0-.07-1.36,4.1,4.1,0,0,0-.7-0.52c-0.54-.35-1.12-0.64-1.63-1a2.17,2.17,0,0,1-.23-3.27,4.16,4.16,0,0,1,3-1.26,4,4,0,0,1,2.23.55,1.61,1.61,0,0,1,.59,2.29,1.43,1.43,0,0,1-1.57.55A1.36,1.36,0,0,1,96,86.41a1,1,0,0,1,.2-1.75Z" transform="translate(-12.49 -18.75)"/><path d="M100.74,84.32H99.06a0.39,0.39,0,0,1,0-.11c0.22-.68.22-0.68,1-0.68h0.79a0.28,0.28,0,0,0,.32-0.25c0.22-.77.45-1.54,0.66-2.31a0.36,0.36,0,0,1,.42-0.31c0.64,0,1.28,0,1.92,0a2.16,2.16,0,0,1,.35.06l-0.84,2.79H106c-0.05.21-.1,0.38-0.14,0.55a0.3,0.3,0,0,1-.35.25c-0.68,0-1.36,0-2.06,0L102,88.91c-0.11.37-.22,0.75-0.31,1.13a2.18,2.18,0,0,0-.05.63,0.65,0.65,0,0,0,.82.39,1.89,1.89,0,0,0,1.1-.93,5.53,5.53,0,0,0,.35-0.67c0.18-.38.23-0.41,0.61-0.22l0.2,0.12c-0.29.54-.54,1.09-0.86,1.59A2.59,2.59,0,0,1,102.12,92a3,3,0,0,1-2.44-.39,1.4,1.4,0,0,1-.61-1.55c0.3-1.09.62-2.18,0.94-3.26,0.23-.79.48-1.57,0.72-2.35A0.7,0.7,0,0,0,100.74,84.32Z" transform="translate(-12.49 -18.75)"/><path d="M44.57,86.33L44,86.1A6,6,0,0,1,45.13,84a3.1,3.1,0,0,1,3.41-.46,1.45,1.45,0,0,1,.74,2c-0.48,1.41-1,2.8-1.56,4.2a3,3,0,0,0-.14.91,0.53,0.53,0,0,0,.7.38,1.33,1.33,0,0,0,.8-0.64,8.41,8.41,0,0,0,.55-1c0.14-.35.34-0.12,0.51-0.09s0.19,0.19.11,0.34c-0.25.46-.46,0.94-0.74,1.38a2.57,2.57,0,0,1-2,1.1,2.89,2.89,0,0,1-1.84-.36A1.36,1.36,0,0,1,45,90c0.39-1.21.89-2.39,1.34-3.58a3.92,3.92,0,0,0,.39-1.57A0.54,0.54,0,0,0,46,84.34a1.38,1.38,0,0,0-.82.8C45,85.53,44.78,85.93,44.57,86.33Z" transform="translate(-12.49 -18.75)"/><path d="M63.2,86.32c-0.62-.2-0.63-0.21-0.37-0.77a8.93,8.93,0,0,1,.62-1.16,2.69,2.69,0,0,1,2.18-1.11,2.54,2.54,0,0,1,1.33.2,1.52,1.52,0,0,1,.93,2.12c-0.48,1.4-1,2.78-1.55,4.17a2.63,2.63,0,0,0-.15.76,0.52,0.52,0,0,0,.73.53,1.53,1.53,0,0,0,.91-0.83,8.58,8.58,0,0,0,.44-0.86c0.14-.32.33-0.11,0.5-0.07s0.21,0.13.13,0.31a3.93,3.93,0,0,1-1.43,2.05,3,3,0,0,1-3.16.09A1.34,1.34,0,0,1,63.64,90c0.39-1.2.89-2.37,1.33-3.56a9,9,0,0,0,.4-1.38,0.83,0.83,0,0,0-.17-0.6,0.56,0.56,0,0,0-.67-0.08,1.57,1.57,0,0,0-.74.81C63.58,85.56,63.4,85.94,63.2,86.32Z" transform="translate(-12.49 -18.75)"/><g id="Layer_5" data-name="Layer 5"><line class="cls-2" x1="7.39" y1="43.38" x2="79.14" y2="43.38"/><line class="cls-2" x1="6.26" y1="37.69" x2="78.01" y2="37.69"/><line class="cls-2" x1="8.64" y1="31.69" x2="80.39" y2="31.69"/></g></svg>
