<svg id="Layer_1" data-name="Layer 1" xmlns="http://www.w3.org/2000/svg" xmlns:xlink="http://www.w3.org/1999/xlink" viewBox="0 0 1050 878.4"><defs><style>.cls-1{fill:none;}.cls-2{clip-path:url(#clip-path);}.cls-3{fill:url(#linear-gradient);}.cls-4{fill:url(#linear-gradient-2);}.cls-5,.cls-6{fill:#fff;}.cls-6{stroke:#fff;stroke-miterlimit:10;stroke-width:4px;}</style><clipPath id="clip-path"><path class="cls-1" d="M842.9,878.4H207c-114.3,0-207-92.7-207-207V207C0,92.7,92.7,0,207,0H843c114.3,0,207,92.7,207,207V671.5C1049.9,785.7,957.2,878.4,842.9,878.4Z"/></clipPath><linearGradient id="linear-gradient" x1="241.42" y1="334.33" x2="808.54" y2="-647.95" gradientTransform="translate(0 596)" gradientUnits="userSpaceOnUse"><stop offset="0" stop-color="#e1746e"/><stop offset="0.32" stop-color="#f8a89c"/><stop offset="0.54" stop-color="#eea88a"/><stop offset="1" stop-color="#fbc165"/></linearGradient><linearGradient id="linear-gradient-2" x1="633.16" y1="1013.81" x2="467.46" y2="503.85" gradientUnits="userSpaceOnUse"><stop offset="0" stop-color="#cc8489"/><stop offset="0.54" stop-color="#f69693"/><stop offset="1" stop-color="#f6cee2"/></linearGradient></defs><title>minireel-mangologo-notext</title><g id="Layer_17_copy_3" data-name="Layer 17 copy 3"><g class="cls-2"><path class="cls-3" d="M842.9,878.4H207c-114.3,0-207-92.7-207-207V207C0,92.7,92.7,0,207,0H843c114.3,0,207,92.7,207,207V671.5C1049.9,785.7,957.2,878.4,842.9,878.4Z"/></g><g class="cls-2"><polygon class="cls-4" points="1049.9 483.17 0 655.74 0 878.4 1049.9 878.4 1049.9 483.17"/></g></g><g id="Layer_2_copy_9" data-name="Layer 2 copy 9"><path class="cls-5" d="M859.4,423.2c0-32.8-9.7-64.4-28.8-93.9-17.7-27.3-42.6-51.5-74.2-72.1-62.5-40.8-145-63.2-232.3-63.2s-169.8,22.5-232.3,63.2c-31.6,20.6-56.5,44.9-74.2,72.1-19.1,29.5-28.8,61.1-28.8,93.9q0,5.25.3,10.5L188.8,478v0.2c0,32.8,9.7,64.4,28.8,93.9,17.7,27.3,42.6,51.5,74.2,72.1,62.5,40.8,145,63.2,232.3,63.2s169.8-22.5,232.3-63.2c31.6-20.6,56.5-44.9,74.2-72.1,19.1-29.5,28.8-61.1,28.8-93.9V439.5a32.72,32.72,0,0,0-.4-5.4C859.2,430.5,859.4,426.8,859.4,423.2ZM758.5,350.8c0,13.4-15.6,24.3-34.8,24.3s-34.8-10.9-34.8-24.3,15.6-24.3,34.8-24.3S758.5,337.4,758.5,350.8ZM528.6,262c19.2,0,34.8,10.9,34.8,24.3s-15.6,24.3-34.8,24.3-34.8-10.9-34.8-24.3S509.4,262,528.6,262ZM320.5,326.6c19.2,0,34.8,10.9,34.8,24.3s-15.6,24.3-34.8,24.3-34.8-10.9-34.8-24.3S301.3,326.6,320.5,326.6ZM267.6,403c1-8.1,66.1-13.9,100.4-17.4,49.2-4.9,63.6-6.6,53.3-19.4s-71.1-57.4-59.3-66.3c8.7-6.6,31.7,19.7,80.1,37.7,29.4,10.9,42.7,8.2,93.2,8.2,44,0,76.5-2.8,110.1-21.5,45.7-25.5,52.7-31.4,57.6-26.7,7.5,7.1-33.6,34.1-61.1,61.6-9.3,9.4-34.6,29.1,29.2,29.3,54.1,0.2,30.9.5,68.7,0.5s37.9,1,37.9,7.7c0,11.1-52,9.7-97.8,15.4-46,5.7-64.4,17.5-36.6,41s67.5,45.7,69,58.5-18.5,5.7-53.6-13.6-87.5-28.1-134.9-27.5-109.2,19.6-138,33.5-55.6,19.1-58.7,10.8,17.5-19.6,56.6-38.4,47.1-36.8,41.6-46.6-63.6-14.8-102-15.9S266.5,411.1,267.6,403Zm495.7,50.4c0,13.4-15.6,24.3-34.8,24.3s-34.8-10.9-34.8-24.3,15.6-24.3,34.8-24.3S763.3,440,763.3,453.4Zm-194.2,88c0,13.4-15.6,24.3-34.8,24.3s-34.8-10.9-34.8-24.3,15.6-24.3,34.8-24.3S569.1,528,569.1,541.4ZM320.5,481.1c-19.2,0-34.8-10.9-34.8-24.3s15.6-24.3,34.8-24.3,34.8,10.9,34.8,24.3S339.7,481.1,320.5,481.1ZM521.9,675.2c-174.3,0-315.6-92.2-315.6-206,0-36.1,6.1-39.8,6.1-39.8s7.2-2.2,7.2,9.8c0,52.3,81.4,183.2,302.3,183.2,207.1,0,304.7-113.9,304.7-180.9,0,0,.1-12.4,4.9-12.4,5.1,0,6-3.9,6,40.1C837.6,582.9,696.3,675.2,521.9,675.2Z"/><ellipse class="cls-6" cx="528.6" cy="404.2" rx="51.1" ry="33.3"/></g></svg>
