<?xml version="1.0" encoding="utf-8"?>
<!-- Generator: Adobe Illustrator 19.2.1, SVG Export Plug-In . SVG Version: 6.00 Build 0)  -->
<svg version="1.1" id="Layer_1" xmlns="http://www.w3.org/2000/svg" xmlns:xlink="http://www.w3.org/1999/xlink" x="0px" y="0px"
	 viewBox="0 0 1051.3 1162.1" style="enable-background:new 0 0 1051.3 1162.1;" xml:space="preserve">
<style type="text/css">
	.st0{display:none;}
	.st1{display:inline;}
	.st2{fill:#E692BE;}
	.st3{clip-path:url(#SVGID_2_);fill:url(#SVGID_3_);}
	.st4{clip-path:url(#SVGID_5_);fill:url(#SVGID_6_);}
	.st5{display:none;fill:#010101;}
	.st6{fill:#FFFFFF;}
	.st7{fill:#FFFFFF;stroke:#FFFFFF;stroke-width:4;stroke-miterlimit:10;}
</style>
<g id="Layer_6" class="st0">
	<g class="st1">
		<path class="st2" d="M1081.6,1154.8c-2.1,2.7-4.9,3.5-8.3,3.5c-18.1-0.1-36.1,0-54.2-0.2c-2.4,0-5.3-0.9-7-2.4
			c-2.9-2.7-1.3-7.8,2.7-9c2.2-0.6,4.5-0.6,6.8-0.6c8.9-0.3,12.3-3.6,12.3-12.5c0-29.1,0-58.1,0-87.2c0-9.8,0-19.7,0-29.5
			c0-8.7-2.5-11.3-11.3-11.6c-2-0.1-4.1,0-6.1-0.1c-3.8-0.3-5.8-2.5-5.8-6.2s2-6.2,5.8-6.2c12.4-0.2,24.9-0.2,37.3,0
			c3.7,0,5.7,2.4,6.1,6.1c0.1,1.3,0.1,2.6,0.1,3.9c0,42.8,0,85.6,0,128.4c0,1,0,2,0,3c0.2,8.9,3.3,12,12.1,12c3.7,0,7.2,0.1,9.6,3.5
			C1081.6,1151.3,1081.6,1153.1,1081.6,1154.8z"/>
		<path class="st2" d="M-11.5,1149.6c2.2-2.6,4.9-3.9,8.3-3.5c1.7,0.2,3.5,0.1,5.2,0c7-0.4,10.8-3.9,10.8-10.9
			c0.2-22.4,0.2-44.8,0-67.2c0-7.4-2.9-9.7-11.9-10.3c-2-0.1-4,0-6.1,0c-3.7,0-5.6-1.9-5.6-5.7c0-3.7,1.8-5.7,5.5-5.7
			c12.6,0,25.2,0,37.7,0c4.1,0,6,2.4,6.2,6.3c0.1,2.7,0,5.4,0,8.5c1.7-0.3,2.6-0.5,3.6-0.6c4.3-0.5,6.9,2.7,5.5,6.8
			c-0.4,1.1-0.9,2.1-1.6,3c-5.5,7.1-7.1,15.5-7.3,24c-0.3,13.9-0.1,27.8-0.1,41.6c0,8,2.3,10.2,10.4,10.3c5.2,0.1,7.8,2.1,7.8,6
			c0,4-2.6,6.1-7.8,6.1c-17.5,0-35-0.1-52.5,0.1c-3.5,0-6.2-0.9-8.3-3.5C-11.5,1153.1-11.5,1151.3-11.5,1149.6z"/>
		<path class="st2" d="M280.4,989c1.6,0,3.2,0.3,4.7,0.9c1.9,0.8,3.8,1.5,5.6,2.5c8.6,5,8.9,17.4,3.9,23.5
			c-6.5,7.9-18.3,9.2-25.4,2.8c-10.4-9.6-7.2-24.3,6.2-28.7c0.2-0.1,0.4-0.1,0.5-0.2C277.3,989.2,278.8,989,280.4,989L280.4,989z"/>
		<path class="st2" d="M546.4,989c0.8,0,1.6,0.2,2.4,0.5c2.3,0.9,4.6,1.8,6.7,3c8.6,5,8.9,17.4,3.9,23.5c-6.5,7.9-18.3,9.2-25.4,2.8
			c-10.4-9.6-7.2-24.3,6.2-28.7l0,0C541.9,989.4,544.7,989,546.4,989L546.4,989z"/>
		<path class="st2" d="M793.7,1103.6c-13,0-26,0.1-39.1-0.1c-4.1-0.1-5.8,1.1-5.6,5.4c1.4,28.4,20.1,43.7,45.3,41.4
			c14.1-1.3,23.7-9.7,29.4-22.7c1.2-2.8,1.7-6.7,5.7-6.9c2.7-0.1,5.9,0.4,7.9,1.9c1.2,1,1.2,4.7,0.5,6.7
			c-4.2,11.6-12,20.3-22.8,26.2c-20.4,11.2-59.2,8.3-76.9-11.6c-8.3-9.3-13.5-19.9-14.6-32.1c-1.7-17.9,0.9-34.9,13.5-49
			c11.3-12.6,25.5-19.5,42.1-20.5c12.6-0.8,25.2,0.3,36.4,7.7c15.5,10.1,23.5,24.5,25.6,42.6c0.1,0.7,0.1,1.4,0.2,2.2
			c1,6.3-1.2,8.8-7.7,8.8C820.3,1103.6,807,1103.6,793.7,1103.6z M782.9,1090.8c9.7,0,19.4-0.1,29.1,0c2.9,0,4.5-0.8,4-3.9
			c-0.6-3.4-0.9-6.9-1.7-10.2c-3.5-13.9-12.3-22.7-26.7-24c-12.6-1.1-23.5,3.8-30.3,14.9c-3.3,5.4-4.8,11.9-6.7,18
			c-1.3,4.1-0.3,5.1,4.1,5.1C764.1,1090.8,773.5,1090.8,782.9,1090.8z"/>
		<path class="st2" d="M940.5,1103.6c-13.2,0-26.3,0.1-39.5-0.1c-4-0.1-5.4,1.4-5.3,5.3c1.3,28.2,19.8,43.8,45.2,41.5
			c14.1-1.3,23.7-9.7,29.4-22.6c1.3-2.9,1.9-6.9,6-7.1c2.5-0.1,5.8,0.4,7.5,1.9c1.2,1.1,1.3,4.7,0.6,6.7
			c-3.8,10.7-10.8,18.9-20.5,24.9c-22,13.6-65.6,10.6-83.9-15.8c-8.8-12.7-11.3-26.7-10.2-41.6c1.2-17.9,9.2-32.3,23.7-42.9
			c9.6-7,20.4-10.9,32.1-11.6c16.1-1,31.3,1.6,43.7,13.1c10.9,10,16.9,22.5,18.4,37.1c0.1,0.7,0.1,1.4,0.2,2.2
			c1,6.3-1.1,8.9-7.6,8.9C967.2,1103.6,953.9,1103.6,940.5,1103.6z M929.7,1090.7c9.7,0,19.4-0.1,29.1,0c2.9,0,4.5-0.8,3.9-4
			c-0.6-3.4-0.9-6.9-1.7-10.2c-3.5-13.7-12.1-22.5-26.3-23.9c-12.6-1.2-23.6,3.5-30.4,14.5c-3.3,5.2-4.9,11.6-6.7,17.6
			c-1.6,5.4-0.9,5.9,4.8,5.9C911.5,1090.8,920.6,1090.8,929.7,1090.7z"/>
		<path class="st2" d="M203.7,1109.5c0,8.4-0.1,16.8,0,25.2c0.2,9,2.8,11.5,11.9,11.5c6.8,0,9.7,1.8,9.7,6c0.1,4.2-2.9,6.1-9.6,6.1
			c-15.9,0-31.8,0-47.8,0c-2,0-4.4,0-5.8-1c-1.5-1.1-2.9-3.4-3-5.2c0-1.6,1.6-3.5,2.9-4.8c0.8-0.8,2.4-1,3.7-1
			c9.6,0.2,12.1-2.2,12-12.8c-0.1-16.2,0-32.4-0.1-48.6c0-3.3-0.4-6.7-1.1-9.9c-3.1-13.8-15.9-21.5-29.6-17.7
			c-3.5,1-6.7,2.8-10.1,3.7c-1.9,0.5-4.9,0.7-6-0.4c-2.2-2.1-1.8-5,0.5-7.3c5.1-5.2,11.2-8.8,18.2-10.4c16.3-3.8,31.7-2.3,44.3,10.1
			c6.3,6.2,8.7,14.4,9,22.9c0.5,11.2,0.1,22.5,0.1,33.8C203.2,1109.5,203.5,1109.5,203.7,1109.5z"/>
		<path class="st2" d="M108,1158.3c-8,0-15.9,0.2-23.9-0.1c-2.2-0.1-5.1-1-6.5-2.6c-3.1-3.6-0.3-9.3,4.8-9.2
			c11.2,0.3,12.7-2.8,12.8-15c0.1-15.3,0.1-30.7,0-46c0-3.3-0.4-6.6-1.2-9.8c-3.5-14.8-16.7-21.9-31.7-17.4c-1,0.3-1.9,0.7-2.9,1
			c-2.5,0.8-5.3,2.6-7.3-0.6c-1.6-2.6-0.2-7.7,2.9-9c6.1-2.7,12.4-5.9,18.9-7c12.2-2,24.4-0.8,34.4,7.7c3.3,2.9,5.8,6.8,8.8,10
			c1.1,1.2,2.8,2.4,4.4,2.5c5.2,0.5,7.7,4.2,4.9,8.6c-3.7,5.8-5.2,12.2-5.2,18.9c0,15.8,0.1,31.5,0.2,47.3c0,6.4,2.2,8.4,8.7,8.6
			c6.5,0.2,9.2,2,9.2,6c0,4.2-2.9,6.1-9.6,6.1C122.5,1158.3,115.3,1158.3,108,1158.3z"/>
		<path class="st2" d="M470.5,1108.4c0,8.4,0,16.8,0,25.2c0,10.2,2.2,12.5,12.4,12.6c5,0.1,7.7,2.3,7.5,6.3
			c-0.3,3.8-2.5,5.8-6.3,5.8c-17.2,0-34.4,0.1-51.6,0c-4.4,0-7-2.6-6.9-6.2c0.1-3.4,2.6-6.2,6.7-5.8c10.2,1.1,12.2-3.1,12.3-13.5
			c0.1-17.1-0.1-34.1-0.1-51.2c0-17.4-15.3-26.6-30.6-23.6c-2.8,0.6-5.5,1.7-8.2,2.6c-3,0.9-5.9,0.8-7.5-2.4
			c-1.5-3.1-0.4-6.1,2.6-7.3c7.3-2.9,14.7-6.1,22.3-7.8c9.5-2.1,19.3-1.6,28.1,3.5c11.1,6.4,16.9,16.6,18.3,28.9
			c1.2,10.9,1.1,21.9,1.5,32.8C470.7,1108.4,470.6,1108.4,470.5,1108.4z"/>
		<path class="st2" d="M638.1,1158.3c-9.8,0-19.7,0-29.5,0c-5.3,0-7.8-2-7.9-5.9c-0.1-4,2.5-6.1,7.6-6.2
			c13.7-0.2,16.1-2.9,15.7-16.9c-0.3-13.4-0.5-26.9-0.6-40.3c-0.1-6.5,0.1-13,0-19.5c-0.1-7.8-2.5-10.3-10.3-10.9
			c-2.2-0.2-4.3,0-6.5-0.1c-4.1-0.3-6.6-2.6-6.6-6.1c0-3.6,2.7-6.1,6.9-6.1c11.7,0,23.4,0,35.1,0c5.1,0,7.1,2,7.2,7.1
			c0.1,4.4-0.8,8.9,4.5,11.7c1.1,0.5,1.4,4.4,0.7,6.2c-3.6,8.4-5,17.1-5.1,26.1c-0.1,11.7,0,23.4,0,35.1c0,10.3,3.5,13.7,13.9,13.7
			c2,0,4.1,0,6.1,0c4.5,0.1,6.9,2.3,6.9,6c0,3.8-2.4,6.1-6.8,6.1C658.9,1158.3,648.5,1158.3,638.1,1158.3z"/>
		<path class="st2" d="M371.2,1158.3c-8.8,0-17.7,0.2-26.5-0.1c-2.3-0.1-5.4-1.2-6.7-2.9c-2.9-3.8,0.1-8.6,5.3-9
			c2.9-0.3,5.8,0.1,8.6-0.5c5.7-1.1,8.1-3.6,8.1-9.4c0.2-22.7,0.2-45.4,0-68.1c-0.1-6.7-3.3-9.3-10.7-9.7c-2.3-0.1-4.6,0.1-6.9-0.1
			c-3.6-0.3-5.5-2.4-5.7-5.9c-0.1-3.4,2.3-6.1,5.9-6.1c12.3-0.1,24.6-0.1,36.9,0c3.6,0,5.4,2.4,5.8,5.8c0.2,1.7,0,3.5,0.1,5.2
			c0.1,2.2,0.5,3.6,3.3,4c5.8,1,7.5,4.7,4.2,9.7c-5.4,8.2-6.9,17.2-6.7,26.8c0.2,13,0,26,0.1,39c0,6.7,2.4,9.1,9.1,9.2c1,0,2,0,3,0
			c4.5,0.1,6.9,2.2,7,6c0,3.8-2.4,6.1-6.8,6.1C389.4,1158.3,380.3,1158.3,371.2,1158.3z"/>
		<path class="st2" d="M295.9,1095.8c0,13.9-0.1,27.8,0,41.7c0,6.2,2.5,8.5,8.8,8.7c1,0,2,0,3,0c5.5,0,8.2,2.1,8.1,6.2
			s-2.7,5.9-8.3,5.9c-12.7,0-25.5,0-38.2,0c-5.2,0-10.4,0-15.6,0c-4.8-0.1-7.3-2.3-7.2-6.1c0.1-3.8,2.6-5.8,7.4-6
			c2.7-0.1,5.5,0,8.2-0.5c5.7-1.2,7.7-3.4,7.8-9.2c0.1-23,0.1-46,0-69c0-5.8-3.4-8.4-10.1-8.9c-1.9-0.1-3.8,0.1-5.6-0.1
			c-4.1-0.3-6.6-2.7-6.5-6.2c0.1-3.6,2.8-6,7-6c11.1,0,22.3,0,33.4,0c5.7,0,7.7,2,7.8,7.9C296,1068.1,295.9,1082,295.9,1095.8
			C295.8,1095.8,295.8,1095.8,295.9,1095.8z"/>
		<path class="st2" d="M560.7,1096.2c0,13.7-0.1,27.5,0,41.2c0,6.2,2.5,8.5,8.8,8.7c1,0,2,0,3,0c5.5,0,8.2,2.1,8.1,6.2
			c-0.1,4-2.6,5.9-7.9,5.9c-12.9,0-25.8,0-38.6,0c-5.2,0-10.4,0-15.6,0c-4.8-0.1-7.3-2.3-7.2-6.1c0.1-3.8,2.6-5.8,7.4-6
			c2.7-0.1,5.5,0,8.2-0.5c5.7-1.2,7.7-3.4,7.8-9.2c0.1-23,0.1-46,0-69c0-5.8-3.4-8.4-10.1-8.9c-1.9-0.1-3.8,0.1-5.6-0.1
			c-4.1-0.3-6.6-2.7-6.5-6.2c0.1-3.6,2.8-6,7-6c11.1,0,22.3,0,33.4,0c5.7,0,7.7,2,7.8,7.9C560.8,1068.1,560.7,1082.2,560.7,1096.2
			C560.6,1096.2,560.6,1096.2,560.7,1096.2z"/>
		<path class="st2" d="M683.6,1052.2c-3.3,0.2-6.6,0.3-10,0.5c-1.6,0.1-3.2,0.7-4.6,0.4c-1.2-0.2-2.9-1.4-3.1-2.4
			c-0.3-1.3,0.3-3.5,1.3-4.1c7.8-5,16.4-6.5,25.2-3.4c8.7,3,14,9.2,14.9,18.8c0.6,7.1-4.6,14.8-11,16.2c-7.9,1.7-15.2-2.1-16.8-9.7
			c-0.7-3.3,0.8-7.2,1.7-10.6c0.4-1.5,1.9-2.8,2.9-4.2C683.9,1053.2,683.7,1052.7,683.6,1052.2z"/>
	</g>
</g>
<g id="Layer_17_copy_3">
	<g>
		<g>
			<defs>
				<path id="SVGID_1_" d="M842.9,878.4H207c-114.3,0-207-92.7-207-207V207C0,92.7,92.7,0,207,0h636c114.3,0,207,92.7,207,207v464.5
					C1049.9,785.7,957.2,878.4,842.9,878.4z"/>
			</defs>
			<clipPath id="SVGID_2_">
				<use xlink:href="#SVGID_1_"  style="overflow:visible;"/>
			</clipPath>
			
				<linearGradient id="SVGID_3_" gradientUnits="userSpaceOnUse" x1="241.4223" y1="225.6743" x2="808.5385" y2="1207.9484" gradientTransform="matrix(1 0 0 -1 0 1156)">
				<stop  offset="0" style="stop-color:#E1746E"/>
				<stop  offset="0.3163" style="stop-color:#F8A89C"/>
				<stop  offset="0.5357" style="stop-color:#EEA88A"/>
				<stop  offset="1" style="stop-color:#FBC165"/>
			</linearGradient>
			<path class="st3" d="M842.9,878.4H207c-114.3,0-207-92.7-207-207V207C0,92.7,92.7,0,207,0h636c114.3,0,207,92.7,207,207v464.5
				C1049.9,785.7,957.2,878.4,842.9,878.4z"/>
		</g>
		<g>
			<defs>
				<path id="SVGID_4_" d="M842.9,878.4H207c-114.3,0-207-92.7-207-207V207C0,92.7,92.7,0,207,0h636c114.3,0,207,92.7,207,207v464.5
					C1049.9,785.7,957.2,878.4,842.9,878.4z"/>
			</defs>
			<clipPath id="SVGID_5_">
				<use xlink:href="#SVGID_4_"  style="overflow:visible;"/>
			</clipPath>
			
				<linearGradient id="SVGID_6_" gradientUnits="userSpaceOnUse" x1="642.8766" y1="-74.009" x2="406.4658" y2="653.5882" gradientTransform="matrix(1 0 0 -1 0 1156)">
				<stop  offset="0" style="stop-color:#CC8489"/>
				<stop  offset="0.5357" style="stop-color:#F69693"/>
				<stop  offset="1" style="stop-color:#F6CEE2"/>
			</linearGradient>
			<polyline class="st4" points="-132.4,677.5 1231,453.4 1280.6,1022.8 -270.4,1005.9 			"/>
		</g>
	</g>
	<g id="Layer_55_copy">
	</g>
	<rect y="803.5" class="st5" width="13" height="298.5"/>
	<rect x="1043.4" y="803.5" class="st5" width="13" height="298.5"/>
</g>
<g id="Layer_2_copy_9">
	<g>
		<g>
			<path class="st6" d="M859.4,423.2c0-32.8-9.7-64.4-28.8-93.9c-17.7-27.3-42.6-51.5-74.2-72.1c-62.5-40.8-145-63.2-232.3-63.2
				s-169.8,22.5-232.3,63.2c-31.6,20.6-56.5,44.9-74.2,72.1c-19.1,29.5-28.8,61.1-28.8,93.9c0,3.5,0.1,7,0.3,10.5l-0.3,44.3v0.2
				c0,32.8,9.7,64.4,28.8,93.9c17.7,27.3,42.6,51.5,74.2,72.1c62.5,40.8,145,63.2,232.3,63.2s169.8-22.5,232.3-63.2
				c31.6-20.6,56.5-44.9,74.2-72.1c19.1-29.5,28.8-61.1,28.8-93.9v-38.7c0-1.8-0.1-3.6-0.4-5.4C859.2,430.5,859.4,426.8,859.4,423.2
				z M758.5,350.8c0,13.4-15.6,24.3-34.8,24.3s-34.8-10.9-34.8-24.3s15.6-24.3,34.8-24.3C742.9,326.6,758.5,337.4,758.5,350.8z
				 M528.6,262c19.2,0,34.8,10.9,34.8,24.3s-15.6,24.3-34.8,24.3s-34.8-10.9-34.8-24.3S509.4,262,528.6,262z M320.5,326.6
				c19.2,0,34.8,10.9,34.8,24.3s-15.6,24.3-34.8,24.3s-34.8-10.9-34.8-24.3C285.7,337.4,301.3,326.6,320.5,326.6z M267.6,403
				c1-8.1,66.1-13.9,100.4-17.4c49.2-4.9,63.6-6.6,53.3-19.4s-71.1-57.4-59.3-66.3c8.7-6.6,31.7,19.7,80.1,37.7
				c29.4,10.9,42.7,8.2,93.2,8.2c44,0,76.5-2.8,110.1-21.5c45.7-25.5,52.7-31.4,57.6-26.7c7.5,7.1-33.6,34.1-61.1,61.6
				c-9.3,9.4-34.6,29.1,29.2,29.3c54.1,0.2,30.9,0.5,68.7,0.5s37.9,1,37.9,7.7c0,11.1-52,9.7-97.8,15.4c-46,5.7-64.4,17.5-36.6,41
				s67.5,45.7,69,58.5s-18.5,5.7-53.6-13.6c-35-19.3-87.5-28.1-134.9-27.5c-47.4,0.5-109.2,19.6-138,33.5s-55.6,19.1-58.7,10.8
				c-3.1-8.2,17.5-19.6,56.6-38.4s47.1-36.8,41.6-46.6c-5.5-9.8-63.6-14.8-102-15.9S266.5,411.1,267.6,403z M763.3,453.4
				c0,13.4-15.6,24.3-34.8,24.3s-34.8-10.9-34.8-24.3s15.6-24.3,34.8-24.3S763.3,440,763.3,453.4z M569.1,541.4
				c0,13.4-15.6,24.3-34.8,24.3s-34.8-10.9-34.8-24.3c0-13.4,15.6-24.3,34.8-24.3C553.6,517.1,569.1,528,569.1,541.4z M320.5,481.1
				c-19.2,0-34.8-10.9-34.8-24.3s15.6-24.3,34.8-24.3s34.8,10.9,34.8,24.3C355.2,470.2,339.7,481.1,320.5,481.1z M521.9,675.2
				c-174.3,0-315.6-92.2-315.6-206c0-36.1,6.1-39.8,6.1-39.8s7.2-2.2,7.2,9.8c0,52.3,81.4,183.2,302.3,183.2
				c207.1,0,304.7-113.9,304.7-180.9c0,0,0.1-12.4,4.9-12.4c5.1,0,6-3.9,6,40.1C837.6,582.9,696.3,675.2,521.9,675.2z"/>
		</g>
	</g>
	<ellipse class="st7" cx="528.6" cy="404.2" rx="51.1" ry="33.3"/>
</g>
<g id="Layer_5">
	<path class="st2" d="M1051.2,1153.7c0,1-0.5,2-1.3,2.7c-1.9,1.6-4.3,2.1-7.1,2.1c-18.1-0.1-36.2,0-54.2-0.2c-2.5,0-5-0.8-7-2.4
		c-2.9-2.7-1.3-7.8,2.7-9c2.2-0.5,4.5-0.7,6.8-0.6c8.9-0.3,12.3-3.6,12.3-12.5c0-29.1,0-58.1,0-87.2c0-9.8,0-19.7,0-29.5
		c0-8.7-2.5-11.3-11.3-11.6c-2-0.1-4.1,0-6.1-0.1c-3.8-0.3-5.8-2.5-5.8-6.2s2-6.2,5.8-6.3c12.4-0.2,24.9-0.2,37.3,0
		c3.7,0,5.7,2.4,6.1,6.1c0.1,1.3,0.1,2.6,0.1,3.9c0,42.8,0,85.6,0,128.4c0,1,0,2,0,3c0.2,8.9,3.3,12,12.1,12c2.3,0,4.6,0,6.5,0.9
		c1.9,0.9,3.1,2.8,3,4.9L1051.2,1153.7z"/>
	<path class="st2" d="M0.1,1149.7c1.9-2.6,5.1-3.9,8.3-3.5c1.7,0.1,3.5,0.1,5.2,0c7-0.4,10.8-3.9,10.9-10.9
		c0.2-22.4,0.2-44.8,0-67.2c0-7.4-2.9-9.7-11.9-10.3c-2-0.1-4,0-6.1,0c-3.7,0-5.6-1.9-5.6-5.7c0-3.8,1.8-5.7,5.5-5.7
		c12.6,0,25.2,0,37.7,0c4.1,0,6,2.4,6.2,6.3c0.1,2.7,0,5.4,0,8.5c1.7-0.3,2.6-0.5,3.6-0.6c4.3-0.5,6.9,2.7,5.5,6.8
		c-0.4,1.1-0.9,2.1-1.6,3c-5.5,7.1-7.1,15.5-7.3,24c-0.3,13.9-0.1,27.8-0.1,41.6c0,8,2.3,10.2,10.4,10.3c5.2,0.1,7.8,2.1,7.8,6
		s-2.6,6.1-7.8,6.1c-17.5,0-35-0.1-52.5,0.1c-3.4,0-6.2-0.9-8.3-3.5L0.1,1149.7L0.1,1149.7z"/>
	<path class="st2" d="M285.9,989.1c1.6,0,3.2,0.3,4.7,0.9c1.9,0.7,3.8,1.6,5.6,2.5c8.6,5,8.9,17.4,3.9,23.5
		c-6.5,7.9-18.3,9.3-25.4,2.8c-10.4-9.6-7.2-24.3,6.2-28.7l0.5-0.2C282.9,989.3,284.4,989.1,285.9,989.1L285.9,989.1L285.9,989.1z"
		/>
	<path class="st2" d="M540,989.1c0.8,0,1.6,0.2,2.4,0.5c2.3,0.8,4.5,1.8,6.7,3c8.6,5,8.9,17.4,3.9,23.5c-6.5,7.9-18.3,9.3-25.4,2.8
		c-10.5-9.6-7.3-24.4,6.1-28.8l0,0C535.8,989.5,537.9,989.2,540,989.1L540,989.1L540,989.1z"/>
	<path class="st2" d="M775.3,1103.7c-13,0-26,0.1-39.1-0.1c-4-0.1-5.8,1.1-5.6,5.4c1.4,28.4,20.1,43.7,45.3,41.4
		c14.1-1.3,23.7-9.7,29.4-22.6c1.2-2.8,1.7-6.7,5.7-6.9c2.7-0.1,5.9,0.4,7.9,1.9c1.2,1,1.2,4.7,0.5,6.7c-4.2,11.6-12,20.3-22.8,26.2
		c-20.4,11.2-59.2,8.3-76.9-11.6c-8.3-9.3-13.5-19.9-14.6-32.1c-1.7-17.9,0.9-34.9,13.5-49c10.7-12.3,25.9-19.7,42.1-20.5
		c12.7-0.8,25.2,0.3,36.4,7.7c15.5,10.1,23.5,24.5,25.6,42.6c0.1,0.7,0.1,1.4,0.2,2.2c1,6.3-1.2,8.8-7.7,8.8
		C801.9,1103.7,788.6,1103.7,775.3,1103.7z M764.5,1090.9c9.7,0,19.4-0.1,29.1,0c2.8,0,4.5-0.8,4-3.9c-0.6-3.4-0.9-6.9-1.7-10.2
		c-3.5-13.9-12.3-22.7-26.7-24c-12.6-1.1-23.5,3.8-30.3,14.9c-3.3,5.4-4.8,11.9-6.7,18c-1.3,4.1-0.3,5.1,4.2,5.1
		C745.7,1090.9,755.1,1090.9,764.5,1090.9L764.5,1090.9z"/>
	<path class="st2" d="M916.1,1103.7c-13.2,0-26.3,0.1-39.5-0.1c-4-0.1-5.4,1.4-5.3,5.3c1.3,28.2,19.8,43.8,45.2,41.5
		c14.1-1.3,23.7-9.7,29.4-22.6c1.3-2.9,1.9-6.9,6-7.1c2.5-0.1,5.8,0.4,7.5,1.9c1.2,1.1,1.3,4.7,0.6,6.7c-3.7,10.4-11,19.3-20.5,24.9
		c-22,13.6-65.6,10.6-83.9-15.8c-8.8-12.7-11.3-26.7-10.2-41.6c1.3-17.9,9.2-32.3,23.7-42.9c9.4-6.9,20.5-10.9,32.1-11.6
		c16.1-1,31.3,1.6,43.7,13.1c10.9,10,16.9,22.5,18.4,37.1c0.1,0.7,0.1,1.4,0.2,2.2c1,6.3-1.1,8.9-7.6,8.9
		C942.7,1103.7,929.4,1103.7,916.1,1103.7z M905.2,1090.9c9.7,0,19.4-0.1,29.1,0c2.9,0,4.5-0.8,3.9-4c-0.6-3.4-0.9-6.9-1.7-10.2
		c-3.5-13.7-12.1-22.5-26.3-23.9c-12.7-1.2-23.6,3.5-30.4,14.5c-3.3,5.2-4.9,11.6-6.7,17.6c-1.6,5.4-0.9,5.9,4.8,5.9
		C887,1090.9,896.1,1090.9,905.2,1090.9z"/>
	<path class="st2" d="M215.3,1109.6c0,8.4-0.1,16.8,0,25.2c0.2,9,2.8,11.5,11.9,11.5c6.8,0,9.7,1.8,9.7,6s-2.9,6.1-9.6,6.1
		c-15.9,0-31.8,0-47.8,0c-2,0-4.4,0-5.8-1c-1.7-1.2-2.8-3.1-3-5.2c0-1.6,1.6-3.5,2.9-4.8c0.8-0.8,2.4-1,3.7-1
		c9.6,0.2,12.1-2.2,12-12.8c-0.1-16.2,0-32.4-0.1-48.6c0-3.3-0.4-6.6-1.1-9.9c-3.1-13.8-15.9-21.5-29.6-17.7
		c-3.5,1-6.7,2.8-10.1,3.7c-1.9,0.5-4.9,0.7-6-0.4c-2.2-2.1-1.8-5,0.5-7.3c4.9-5.1,11.3-8.8,18.2-10.4c16.3-3.8,31.6-2.3,44.3,10.1
		c6.3,6.2,8.7,14.4,9,22.9c0.5,11.2,0.1,22.5,0.1,33.8L215.3,1109.6L215.3,1109.6z"/>
	<path class="st2" d="M119.6,1158.4c-8,0-15.9,0.2-23.9-0.1c-2.2-0.1-5.1-1-6.4-2.6c-3.1-3.5-0.3-9.3,4.8-9.2
		c11.2,0.3,12.7-2.8,12.8-15c0.1-15.3,0.1-30.7,0-46c0-3.3-0.4-6.6-1.1-9.9c-3.5-14.7-16.7-21.9-31.8-17.4c-1,0.3-1.9,0.7-2.9,1
		c-2.5,0.8-5.3,2.6-7.3-0.6c-1.6-2.6-0.2-7.7,2.9-9c6.1-2.7,12.4-5.9,18.9-7c12.2-2,24.4-0.8,34.4,7.7c3.3,2.9,5.8,6.8,8.8,10
		c1.1,1.3,2.7,2.2,4.4,2.5c5.2,0.5,7.7,4.2,4.9,8.6c-3.5,5.7-5.3,12.3-5.2,18.9c0,15.8,0.1,31.5,0.2,47.3c0,6.4,2.2,8.4,8.7,8.6
		s9.2,2,9.3,6s-2.9,6.1-9.6,6.1L119.6,1158.4L119.6,1158.4z"/>
	<path class="st2" d="M470,1108.5c0,8.4,0,16.8,0,25.2c0,10.2,2.2,12.4,12.4,12.6c5,0.1,7.7,2.3,7.5,6.3c-0.3,3.8-2.5,5.8-6.3,5.8
		c-17.2,0-34.4,0.1-51.6,0c-4.4,0-7-2.6-6.9-6.1c-0.1-3.2,2.5-5.8,5.7-5.9c0.4,0,0.7,0,1.1,0.1c10.2,1.1,12.2-3.2,12.3-13.5
		c0.1-17.1-0.1-34.1-0.1-51.2c0-17.4-15.3-26.6-30.6-23.6c-2.8,0.7-5.5,1.6-8.3,2.6c-3,0.9-5.9,0.8-7.5-2.4
		c-1.6-3.2-0.4-6.1,2.6-7.3c7.3-2.9,14.7-6.1,22.3-7.8c9.5-2.1,19.3-1.6,28.1,3.5c11.1,6.4,16.9,16.6,18.3,28.9
		c1.3,10.9,1.1,21.9,1.5,32.8H470z"/>
	<path class="st2" d="M625.6,1158.4c-9.8,0-19.7,0-29.5,0c-5.3,0-7.8-2-7.9-5.9c-0.1-3.9,2.5-6.1,7.6-6.2
		c13.7-0.2,16.1-2.9,15.7-16.9c-0.3-13.4-0.5-26.9-0.7-40.3c-0.1-6.5,0-13,0-19.5c-0.1-7.8-2.5-10.3-10.3-10.9
		c-2.2-0.2-4.3,0-6.5-0.1c-4.1-0.3-6.6-2.6-6.6-6.1c0-3.6,2.7-6.1,6.9-6.1c11.7,0,23.4,0,35.2,0c5.1,0,7.1,2,7.2,7.1
		c0.1,4.4-0.8,8.9,4.5,11.6c1.1,0.5,1.4,4.4,0.7,6.1c-3.4,8.3-5.2,17.2-5.1,26.1c-0.1,11.7,0,23.4,0,35.1c0,10.3,3.5,13.7,13.9,13.7
		c2,0,4,0,6.1,0c4.5,0.1,6.9,2.3,6.9,6s-2.4,6-6.8,6.1C646.4,1158.4,636,1158.4,625.6,1158.4z"/>
	<path class="st2" d="M370.7,1158.4c-8.8,0-17.7,0.2-26.5-0.1c-2.3-0.1-5.4-1.2-6.7-2.9c-2.9-3.8,0.1-8.5,5.3-9
		c2.9-0.3,5.8,0.1,8.6-0.4c5.7-1.1,8.1-3.6,8.1-9.4c0.2-22.7,0.2-45.4,0-68.1c-0.1-6.7-3.3-9.3-10.7-9.7c-2.3-0.1-4.6,0.1-6.9-0.1
		c-3.6-0.3-5.5-2.4-5.6-5.9c-0.2-3.2,2.1-5.9,5.3-6.1c0.2,0,0.4,0,0.6,0c12.3-0.1,24.6-0.1,36.9,0c3.6,0,5.4,2.4,5.8,5.8
		c0.2,1.7,0,3.5,0.1,5.2c0.1,2.2,0.5,3.6,3.3,4c5.8,1,7.5,4.7,4.2,9.7c-5.4,8.3-6.9,17.2-6.7,26.8c0.2,13,0,26,0.1,39
		c0,6.7,2.4,9.1,9.1,9.2c1,0,2,0,3,0c4.5,0.1,6.9,2.3,7,6s-2.4,6.1-6.8,6.1C388.9,1158.4,379.8,1158.4,370.7,1158.4z"/>
	<path class="st2" d="M301.4,1095.9c0,13.9-0.1,27.8,0,41.7c0,6.2,2.5,8.5,8.8,8.7c1,0,2,0,3,0c5.5,0,8.2,2.1,8.1,6.2
		s-2.7,5.9-8.3,5.9h-38.2c-5.2,0-10.4,0-15.6,0c-4.8,0-7.3-2.3-7.3-6.1s2.6-5.9,7.4-6c2.7,0.1,5.5-0.1,8.2-0.5
		c5.7-1.2,7.7-3.4,7.8-9.2c0.1-23,0.1-46,0-69c0-5.8-3.4-8.4-10.1-8.9c-1.9-0.1-3.8,0.1-5.6-0.1c-4.1-0.3-6.6-2.7-6.5-6.1
		c0.1-3.6,2.8-6,7-6c11.1,0,22.3,0,33.4,0c5.7,0,7.7,2,7.8,7.9c0.1,13.9,0,27.8,0,41.7L301.4,1095.9L301.4,1095.9z"/>
	<path class="st2" d="M554.2,1096.3c0,13.7-0.1,27.5,0,41.2c0,6.2,2.5,8.5,8.8,8.7c1,0,2,0,3,0c5.5,0,8.2,2.1,8.1,6.2
		s-2.6,5.9-7.9,5.9c-12.9,0-25.8,0-38.6,0c-5.2,0-10.4,0-15.6,0c-4.8,0-7.3-2.3-7.2-6.1c0.1-3.8,2.6-5.8,7.4-6
		c2.7,0.1,5.5-0.1,8.2-0.5c5.7-1.2,7.7-3.4,7.8-9.2c0.1-23,0.1-46,0-69c0-5.8-3.4-8.4-10.1-8.9c-1.9-0.1-3.8,0.1-5.6-0.1
		c-4.1-0.3-6.6-2.7-6.5-6.1c0.1-3.6,2.8-6,7-6c11.1,0,22.3,0,33.4,0c5.7,0,7.7,2,7.8,7.9C554.3,1068.3,554.2,1082.4,554.2,1096.3
		L554.2,1096.3L554.2,1096.3z"/>
	<path class="st2" d="M671.1,1052.3c-3.3,0.2-6.6,0.3-10,0.5c-1.6,0.1-3.2,0.7-4.6,0.4c-1.2-0.2-2.9-1.4-3.1-2.4
		c-0.3-1.3,0.3-3.5,1.3-4.1c7.8-5,16.5-6.5,25.2-3.4s14,9.2,14.9,18.8c0.6,7.1-4.6,14.8-11,16.2c-7.9,1.7-15.3-2.1-16.8-9.7
		c-0.7-3.3,0.8-7.2,1.7-10.6c0.4-1.5,1.9-2.8,2.9-4.2L671.1,1052.3z"/>
</g>
</svg>
