<?xml version="1.0" encoding="utf-8"?>
<!-- Generator: Adobe Illustrator 19.2.1, SVG Export Plug-In . SVG Version: 6.00 Build 0)  -->
<svg version="1.1" id="Layer_1" xmlns="http://www.w3.org/2000/svg" xmlns:xlink="http://www.w3.org/1999/xlink" x="0px" y="0px"
	 viewBox="0 0 133 152.4" style="enable-background:new 0 0 133 152.4;" xml:space="preserve">
<style type="text/css">
	.st0{display:none;fill:none;stroke:#000000;stroke-width:4;stroke-miterlimit:10;}
	.st1{display:none;fill:none;stroke:#000000;stroke-width:3.5;stroke-miterlimit:10;}
	.st2{display:none;}
	.st3{display:inline;fill:none;stroke:#000000;stroke-width:3.5;stroke-miterlimit:10;}
	.st4{display:inline;}
	.st5{clip-path:url(#SVGID_2_);fill:url(#SVGID_3_);}
	.st6{clip-path:url(#SVGID_5_);fill:url(#SVGID_6_);}
	.st7{fill:none;stroke:#000000;stroke-width:3.5;stroke-miterlimit:10;}
	.st8{display:none;clip-path:url(#SVGID_8_);fill:url(#SVGID_9_);}
	.st9{clip-path:url(#SVGID_8_);fill:url(#SVGID_10_);}
	.st10{clip-path:url(#SVGID_12_);fill:url(#SVGID_13_);}
	.st11{fill:none;stroke:#000000;stroke-width:1.5;stroke-linecap:round;stroke-miterlimit:10;}
	.st12{fill:#FFFFFF;}
	.st13{display:inline;fill:none;stroke:#FFFFFF;stroke-width:3.5;stroke-miterlimit:10;}
	.st14{fill:none;stroke:#FFFFFF;stroke-width:3.5;stroke-miterlimit:10;}
	.st15{fill:none;stroke:#FFFFFF;stroke-width:1.5;stroke-linecap:round;stroke-miterlimit:10;}
	.st16{display:inline;fill:none;stroke:#FFFFFF;stroke-width:1.5;stroke-miterlimit:10;}
	.st17{fill:none;stroke:#000000;stroke-width:1.5;stroke-miterlimit:10;}
	.st18{fill:none;stroke:#000000;stroke-width:4;stroke-miterlimit:10;}
	.st19{display:inline;fill:#FFFFFF;}
	.st20{display:inline;fill:none;}
	.st21{display:inline;fill:none;stroke:#000000;stroke-width:1.5;stroke-linecap:round;stroke-miterlimit:10;}
	.st22{display:none;fill:none;stroke:#FFFFFF;stroke-width:1.5;stroke-miterlimit:10;}
</style>
<image style="display:none;overflow:visible;" width="2550" height="3300" xlink:href="H:\CANON_SC\IMAGE\0001\SCN_0050.jpg"  transform="matrix(-0.24 0 0 -0.24 301 526.3958)">
</image>
<path class="st0" d="M32.7,90.1V62.4h90c0,0,0,13.6,0,30.6c0,22.8-13,24.7-13,24.7H18.3c-9.5-11.8-5.1-24,3.8-26.6h84"/>
<path class="st1" d="M32.7,90.1V76.2l13.8-13.8h76.2c0,0,0,13.6,0,30.6c0,22.8-13,24.7-13,24.7H20.1c-1.1,0-2.2-0.6-2.9-1.5
	c-8-11.3-3.6-22.6,4.9-25.1h84"/>
<path class="st1" d="M109.7,117.7C99,117.7,96,107.6,96,103.5s3-12.4,9.3-12.4c6.3,0,7.7,5.6,4.3,13.3l-13.8-0.2"/>
<g id="Layer_3" class="st2">
	<line class="st3" x1="105.9" y1="106.6" x2="97.5" y2="106.5"/>
	<path class="st3" d="M109.7,117.7C99,117.7,96,107.6,96,103.5s3-12.4,9.3-12.4c6.3,0,8.5,6,4.3,13.3c-2.3,4.1-10.1,2.3-5.2-5.3
		c0,0,0-0.1,0-0.1h-8"/>
</g>
<g id="Layer_12" class="st2">
	<g class="st4">
		<g>
			<defs>
				<path id="SVGID_1_" d="M106.8,111.9H26.2C11.7,111.9,0,100.2,0,85.7V26.9C0,12.4,11.7,0.6,26.2,0.6h80.6
					c14.5,0,26.2,11.7,26.2,26.2v58.8C133,100.2,121.2,111.9,106.8,111.9z"/>
			</defs>
			<clipPath id="SVGID_2_">
				<use xlink:href="#SVGID_1_"  style="overflow:visible;"/>
			</clipPath>

				<linearGradient id="SVGID_3_" gradientUnits="userSpaceOnUse" x1="30.5802" y1="142.3184" x2="102.4149" y2="266.7398" gradientTransform="matrix(1 0 0 -1 0 260.7918)">
				<stop  offset="0" style="stop-color:#E1746E"/>
				<stop  offset="0.3163" style="stop-color:#F8A89C"/>
				<stop  offset="0.5357" style="stop-color:#EEA88A"/>
				<stop  offset="1" style="stop-color:#FBC165"/>
			</linearGradient>
			<path class="st5" d="M106.8,111.9H26.2C11.7,111.9,0,100.2,0,85.7V26.9C0,12.4,11.7,0.6,26.2,0.6h80.6
				c14.5,0,26.2,11.7,26.2,26.2v58.8C133,100.2,121.2,111.9,106.8,111.9z"/>
		</g>
		<g>
			<defs>
				<path id="SVGID_4_" d="M106.8,111.9H26.2C11.7,111.9,0,100.2,0,85.7V26.9C0,12.4,11.7,0.6,26.2,0.6h80.6
					c14.5,0,26.2,11.7,26.2,26.2v58.8C133,100.2,121.2,111.9,106.8,111.9z"/>
			</defs>
			<clipPath id="SVGID_5_">
				<use xlink:href="#SVGID_4_"  style="overflow:visible;"/>
			</clipPath>

				<linearGradient id="SVGID_6_" gradientUnits="userSpaceOnUse" x1="81.431" y1="104.3585" x2="51.4857" y2="196.5208" gradientTransform="matrix(1 0 0 -1 0 260.7918)">
				<stop  offset="0" style="stop-color:#CC8489"/>
				<stop  offset="0.5357" style="stop-color:#F69693"/>
				<stop  offset="1" style="stop-color:#F6CEE2"/>
			</linearGradient>
			<polyline class="st6" points="-16.8,86.4 155.9,58.1 162.2,130.2 -34.3,128 			"/>
		</g>
	</g>
	<path class="st7" d="M32.5,55.6v-9.3l13.8-13.8h73.1c0,0,0,9.1,0,26.1c0,16.9-7.9,21.5-12.9,21.5H19.9c-1.1,0-2.1-0.7-2.9-1.5
		c-5.1-5.2-3.7-20.1,4.9-21.9h84"/>
	<path class="st7" d="M34.8,61.2V40.8l12.8-14h67.7c0,0,0,20.3,0,37.3c0,16.9-7.4,21.5-11.9,21.5H23.1c-1.1,0-1.9-0.7-2.6-1.5
		C15.7,78.9,17,64,25,62.3h77.8"/>
	<path class="st7" d="M32.7,61.2V40.8l13.8-14h73.1c0,0,0,20.3,0,37.3c0,16.9-7.9,21.5-12.9,21.5H20.1c-1.1,0-2.1-0.7-2.9-1.5
		c-5.1-5.2-3.7-20.1,4.9-21.9h84"/>
</g>
<g id="gradientFinal" class="st2">
	<g class="st4">
		<g>
			<defs>
				<path id="SVGID_7_" d="M106.8,111.9H26.2C11.7,111.9,0,100.2,0,85.7V26.9C0,12.4,11.7,0.6,26.2,0.6h80.6
					c14.5,0,26.2,11.7,26.2,26.2v58.8C133,100.2,121.2,111.9,106.8,111.9z"/>
			</defs>
			<clipPath id="SVGID_8_">
				<use xlink:href="#SVGID_7_"  style="overflow:visible;"/>
			</clipPath>

				<linearGradient id="SVGID_9_" gradientUnits="userSpaceOnUse" x1="36.9529" y1="153.3563" x2="108.7876" y2="277.7777" gradientTransform="matrix(1 0 0 -1 0 260.7918)">
				<stop  offset="7.737604e-003" style="stop-color:#E1746E"/>
				<stop  offset="8.000018e-002" style="stop-color:#E8837C"/>
				<stop  offset="0.2285" style="stop-color:#F49E93"/>
				<stop  offset="0.3163" style="stop-color:#F8A89C"/>
				<stop  offset="0.4201" style="stop-color:#F2A891"/>
				<stop  offset="0.5357" style="stop-color:#EEA88A"/>
				<stop  offset="0.6954" style="stop-color:#F1AE82"/>
				<stop  offset="0.9496" style="stop-color:#F9BD6A"/>
				<stop  offset="1" style="stop-color:#FBC165"/>
			</linearGradient>
			<path class="st8" d="M106.8,111.9H26.2C11.7,111.9,0,100.2,0,85.7V26.9C0,12.4,11.7,0.6,26.2,0.6h80.6
				c14.5,0,26.2,11.7,26.2,26.2v58.8C133,100.2,121.2,111.9,106.8,111.9z"/>

				<linearGradient id="SVGID_10_" gradientUnits="userSpaceOnUse" x1="36.9529" y1="153.3563" x2="108.7876" y2="277.7777" gradientTransform="matrix(1 0 0 -1 0 260.7918)">
				<stop  offset="7.737604e-003" style="stop-color:#E1606E"/>
				<stop  offset="0.1043" style="stop-color:#EA7780"/>
				<stop  offset="0.2376" style="stop-color:#F49294"/>
				<stop  offset="0.3163" style="stop-color:#F89C9C"/>
				<stop  offset="0.4201" style="stop-color:#F2A391"/>
				<stop  offset="0.5357" style="stop-color:#EEA88A"/>
				<stop  offset="0.6954" style="stop-color:#F1AE82"/>
				<stop  offset="0.9496" style="stop-color:#F9BD6A"/>
				<stop  offset="1" style="stop-color:#FBC165"/>
			</linearGradient>
			<path class="st9" d="M106.8,111.9H26.2C11.7,111.9,0,100.2,0,85.7V26.9C0,12.4,11.7,0.6,26.2,0.6h80.6
				c14.5,0,26.2,11.7,26.2,26.2v58.8C133,100.2,121.2,111.9,106.8,111.9z"/>
		</g>
		<g>
			<defs>
				<path id="SVGID_11_" d="M106.8,111.9H26.2C11.7,111.9,0,100.2,0,85.7V26.9C0,12.4,11.7,0.6,26.2,0.6h80.6
					c14.5,0,26.2,11.7,26.2,26.2v58.8C133,100.2,121.2,111.9,106.8,111.9z"/>
			</defs>
			<clipPath id="SVGID_12_">
				<use xlink:href="#SVGID_11_"  style="overflow:visible;"/>
			</clipPath>

				<linearGradient id="SVGID_13_" gradientUnits="userSpaceOnUse" x1="81.431" y1="104.3585" x2="51.4857" y2="196.5208" gradientTransform="matrix(1 0 0 -1 0 260.7918)">
				<stop  offset="0" style="stop-color:#CC8489"/>
				<stop  offset="0.5357" style="stop-color:#F69693"/>
				<stop  offset="1" style="stop-color:#F6CEE2"/>
			</linearGradient>
			<polyline class="st10" points="-16.8,86.4 155.9,58.1 162.2,130.2 -34.3,128 			"/>
		</g>
	</g>
	<path class="st7" d="M32.5,55.6v-9.3l13.8-13.8h73.1c0,0,0,9.1,0,26.1c0,16.9-7.9,21.5-12.9,21.5H19.9c-1.1,0-2.1-0.7-2.9-1.5
		c-5.1-5.2-3.7-20.1,4.9-21.9h84"/>
	<path class="st7" d="M34.8,61.2V40.8l12.8-14h67.7c0,0,0,20.3,0,37.3c0,16.9-7.4,21.5-11.9,21.5H23.1c-1.1,0-1.9-0.7-2.6-1.5
		C15.7,78.9,17,64,25,62.3h77.8"/>
	<path class="st7" d="M32.7,61.2V40.8l13.8-14h73.1c0,0,0,20.3,0,37.3c0,16.9-7.9,21.5-12.9,21.5H20.1c-1.1,0-2.1-0.7-2.9-1.5
		c-5.1-5.2-3.7-20.1,4.9-21.9h84"/>
</g>
<g id="Layer_7" class="st2">
	<path class="st3" d="M32.7,51.7v-9.3l13.8-13.8h73.1c0,0,0,9.1,0,26.1c0,16.9-7.9,21.5-12.9,21.5H20.1c-1.1,0-2.1-0.7-2.9-1.5
		c-5.1-5.2-3.7-20.1,4.9-21.9h84"/>
	<g id="Layer_3_copy" class="st4">
		<line class="st7" x1="105.9" y1="68.3" x2="97.5" y2="68.2"/>
		<path class="st7" d="M105.2,76.2c-4.7,0-9.2-6.9-9.2-11s3-12.4,9.3-12.4c6.3,0,8.5,6,4.3,13.3c-2.3,4.1-10.1,2.3-5.2-5.3
			c0,0,0-0.1,0-0.1l-8,0"/>
	</g>
	<polyline class="st3" points="32.9,42.4 46.5,42.4 46.5,28.6 	"/>
	<g id="Layer_5_copy" class="st4">
		<line class="st11" x1="19.9" y1="70.2" x2="91.6" y2="70.2"/>
		<line class="st11" x1="18.8" y1="64.5" x2="90.5" y2="64.5"/>
		<line class="st11" x1="21.1" y1="58.5" x2="92.9" y2="58.5"/>
	</g>
</g>
<g id="Layer_7_copy_2" class="st2">
	<path class="st3" d="M32.7,59.9V39.5l13.8-14h73.1c0,0,0,20.3,0,37.3c0,16.9-7.9,21.5-12.9,21.5H20.1c-1.1,0-2.1-0.7-2.9-1.5
		c-5.1-5.2-3.7-20.1,4.9-21.9h84"/>
	<g id="Layer_3_copy_3" class="st4">
		<line class="st7" x1="105.9" y1="76.4" x2="97.5" y2="76.3"/>
		<path class="st7" d="M105.2,84.3c-4.7,0-9.2-6.9-9.2-11c0-4.1,3-12.4,9.3-12.4c6.3,0,8.5,6,4.3,13.3c-2.3,4.1-10.1,2.3-5.2-5.3
			c0,0,0-0.1,0-0.1l-8,0"/>
	</g>
	<polyline class="st3" points="32.9,39.5 46.5,39.5 46.5,25.7 	"/>
	<g id="Layer_5_copy_2" class="st4">
		<line class="st11" x1="19.9" y1="78.3" x2="91.6" y2="78.3"/>
		<line class="st11" x1="18.8" y1="72.6" x2="90.5" y2="72.6"/>
		<line class="st11" x1="21.1" y1="66.6" x2="92.9" y2="66.6"/>
	</g>
</g>
<g id="Layer_7_copy_3" class="st2">
	<path class="st3" d="M38.4,60.2V42.5l11.1-12.1h58.9c0,0,0,17.6,0,32.4c0,14.7-6.4,18.7-10.4,18.7H28.3c-0.9,0-1.7-0.6-2.3-1.3
		c-4.1-4.5-3-17.5,3.9-19h67.6"/>
	<g id="Layer_3_copy_4" class="st4">
		<line class="st7" x1="97.4" y1="74.6" x2="90.6" y2="74.5"/>
		<path class="st7" d="M96.9,81.5c-3.8,0-7.4-6-7.4-9.6c0-3.6,2.4-10.7,7.5-10.7c5.1,0,6.8,5.2,3.5,11.6c-1.9,3.5-8.1,2-4.2-4.6
			c0,0,0-0.1,0-0.1l-6.4,0"/>
	</g>
	<polyline class="st3" points="38.6,42.5 49.6,42.5 49.6,30.5 	"/>
	<g id="Layer_5_copy_3" class="st4">
		<line class="st11" x1="28.1" y1="76.3" x2="85.9" y2="76.3"/>
		<line class="st11" x1="27.2" y1="71.3" x2="85" y2="71.3"/>
		<line class="st11" x1="29.1" y1="66.1" x2="86.9" y2="66.1"/>
	</g>
</g>
<g id="Layer_7_copy_4" class="st2">
	<g class="st4">
		<path class="st12" d="M108.4,30.4c0,0,0,17.6,0,32.4c0,14.7-6.4,18.7-10.4,18.7H28.3c-0.9,0-1.7-0.6-2.3-1.3
			c-4.1-4.5-3-17.5,3.9-19h8.4h0.1V42.5l11.1-12.1H108.4 M111.4,27.4h-3H49.6h-1.3l-0.9,1L36.2,40.5l-0.8,0.9v1.2v15.6h-5.5h-0.3
			l-0.3,0.1c-3.6,0.8-6.4,3.7-7.8,8.1c-1.6,4.9-1.3,12,2.3,15.9c0.5,0.6,2.1,2.3,4.5,2.3h69.8c1.4,0,13.4-0.6,13.4-21.7V30.4V27.4
			L111.4,27.4z"/>
	</g>
	<path class="st13" d="M38.4,60.2V42.5l11.1-12.1h58.9c0,0,0,17.6,0,32.4c0,14.7-6.4,18.7-10.4,18.7H28.3c-0.9,0-1.7-0.6-2.3-1.3
		c-4.1-4.5-3-17.5,3.9-19h67.6"/>
	<g id="Layer_3_copy_5" class="st4">
		<line class="st14" x1="97.4" y1="74.6" x2="90.6" y2="74.5"/>
		<path class="st14" d="M96.9,81.5c-3.8,0-7.4-6-7.4-9.6c0-3.6,2.4-10.7,7.5-10.7c5.1,0,6.8,5.2,3.5,11.6c-1.9,3.5-8.1,2-4.2-4.6
			c0,0,0-0.1,0-0.1l-6.4,0"/>
	</g>
	<polyline class="st13" points="38.6,42.5 49.6,42.5 49.6,30.5 	"/>
	<g id="Layer_5_copy_4" class="st4">
		<line class="st15" x1="28.1" y1="76.3" x2="85.9" y2="76.3"/>
		<line class="st15" x1="27.2" y1="71.3" x2="85" y2="71.3"/>
		<line class="st15" x1="29.1" y1="66.1" x2="86.9" y2="66.1"/>
	</g>
</g>
<g id="Layer_7_copy_5" class="st2">
	<g class="st4">
		<path class="st12" d="M117.6,24.9c0,0,0,21.4,0,39.4c0,17.9-7.8,22.7-12.6,22.7H20.2c-1.1,0-2-0.7-2.8-1.6
			c-5-5.5-3.6-21.3,4.8-23.1h10.2h0.1V39.6L46,24.9H117.6 M120.6,21.9h-3H46h-1.3l-0.9,1L30.3,37.6l-0.8,0.9v1.2v19.6h-7.3h-0.3
			l-0.3,0.1c-4.2,0.9-7.4,4.2-9,9.4c-2.1,6.7-1,14.7,2.6,18.7c0.6,0.6,2.3,2.5,5,2.5H105c1.6,0,15.6-0.7,15.6-25.7V24.9V21.9
			L120.6,21.9z"/>
	</g>
	<path class="st13" d="M32.5,61.1V39.6L46,24.9h71.5c0,0,0,21.4,0,39.4c0,17.9-7.8,22.7-12.6,22.7H20.2c-1.1,0-2-0.7-2.8-1.6
		c-5-5.5-3.6-21.3,4.8-23.1h82.2"/>
	<g id="Layer_3_copy_6" class="st4">
		<line class="st14" x1="104.2" y1="78.6" x2="95.9" y2="78.5"/>
		<path class="st14" d="M103.5,87c-4.6,0-9-7.3-9-11.6c0-4.4,2.9-13.1,9.1-13.1c6.2,0,8.3,6.4,4.2,14c-2.3,4.3-9.9,2.5-5.1-5.6
			c0,0,0-0.1,0-0.1h-7.8"/>
	</g>
	<polyline class="st13" points="32.7,39.6 46,39.6 46,25 	"/>
	<g id="Layer_5_copy_5" class="st4">
		<line class="st15" x1="20" y1="80.7" x2="90.2" y2="80.7"/>
		<line class="st15" x1="18.9" y1="74.6" x2="89.1" y2="74.6"/>
		<line class="st15" x1="21.2" y1="68.3" x2="91.4" y2="68.3"/>
	</g>
</g>
<g id="Layer_7_copy_6" class="st2">
	<g class="st4">
		<path class="st12" d="M112,31.1c0,0,0,11.2,0,29.1c0,17.9-6.9,22.7-11.2,22.7H25.1c-1,0-1.8-0.7-2.5-1.6
			c-4.5-5.5-3.2-21.3,4.3-23.1h9.2V45.8l13.5-14.6H112 M115,28.1h-3H49.6h-1.3l-0.9,1L33.9,43.7l-0.8,0.9v1.2v9.5h-6.2h-0.4
			l-0.4,0.1c-3.6,0.9-6.4,3.9-7.9,8.5c-2,5.9-1.8,14.8,2,19.5c0.5,0.7,2.2,2.7,4.8,2.7h75.6c6.6,0,14.2-6.7,14.2-25.7V31.1V28.1
			L115,28.1z"/>
	</g>
	<path class="st13" d="M36.1,57.1V45.8l13.5-14.6H112c0,0,0,11.2,0,29.1c0,17.9-6.9,22.7-11.2,22.7H25.1c-1,0-1.8-0.7-2.5-1.6
		c-4.5-5.5-3.2-21.3,4.3-23.1h73.3"/>
	<g id="Layer_3_copy_7" class="st4">
		<line class="st14" x1="100" y1="74.6" x2="92.7" y2="74.5"/>
		<path class="st14" d="M99.4,83c-4.1,0-8.1-7.3-8.1-11.6s2.6-13.1,8.1-13.1s7.4,6.4,3.8,14c-2,4.3-8.8,2.5-4.6-5.6c0,0,0-0.1,0-0.1
			l-6.9,0"/>
	</g>
	<g id="Layer_5_copy_6" class="st4">
		<line class="st15" x1="25" y1="76.7" x2="87.6" y2="76.7"/>
		<line class="st15" x1="24" y1="70.6" x2="86.6" y2="70.6"/>
		<line class="st15" x1="26" y1="64.3" x2="88.7" y2="64.3"/>
	</g>
	<polyline class="st13" points="36.3,45.8 49.6,45.8 49.6,31.1 	"/>
</g>
<g id="Layer_7_copy_7" class="st2">
	<g class="st4">
		<path class="st12" d="M105.3,31.1c3.7,0,6.7,3,6.7,6.7v22.5c0,17.9-6.9,22.7-11.2,22.7H25.1c-1,0-1.8-0.7-2.5-1.6
			c-4.5-5.5-3.2-21.3,4.3-23.1h9.2V45.8l13.5-14.6H105.3 M105.3,28.1H49.6h-1.3l-0.9,1L33.9,43.7l-0.8,0.9v1.2v9.5h-6.2h-0.4
			l-0.4,0.1c-3.6,0.9-6.4,3.9-7.9,8.5c-2,5.9-1.8,14.8,2,19.5c0.5,0.7,2.2,2.7,4.8,2.7h75.6c6.6,0,14.2-6.7,14.2-25.7V37.8
			C115,32.5,110.7,28.1,105.3,28.1L105.3,28.1z"/>
	</g>
	<path class="st13" d="M36.1,57.1V45.8l13.5-14.6h55.9c3.6,0,6.5,2.9,6.5,6.5v22.6c0,17.9-6.9,22.7-11.2,22.7H25.1
		c-1,0-1.8-0.7-2.5-1.6c-4.5-5.5-3.2-21.3,4.3-23.1h73.3"/>
	<g id="Layer_3_copy_8" class="st4">
		<line class="st14" x1="100" y1="74.6" x2="92.7" y2="74.5"/>
		<path class="st14" d="M99.4,83c-4.1,0-8.1-7.3-8.1-11.6s2.6-13.1,8.1-13.1s7.4,6.4,3.8,14c-2,4.3-8.8,2.5-4.6-5.6c0,0,0-0.1,0-0.1
			l-6.9,0"/>
	</g>
	<g id="Layer_5_copy_7" class="st4">
		<line class="st15" x1="25" y1="76.7" x2="87.6" y2="76.7"/>
		<line class="st15" x1="24" y1="70.6" x2="86.6" y2="70.6"/>
		<line class="st15" x1="26" y1="64.3" x2="88.7" y2="64.3"/>
	</g>
	<polyline class="st13" points="36.3,45.8 49.6,45.8 49.6,31.1 	"/>
</g>
<g id="Layer_7_copy_8" class="st2">
	<g class="st4">
		<path class="st12" d="M110.9,29.3c2.5,0,4.4,2,4.4,4.4v26.8c0,19.2-7.4,24.4-12,24.4H22.2c-1.1,0-1.9-0.8-2.7-1.7
			c-4.8-5.9-3.5-22.8,4.6-24.8H34V33.7c0-2.5,2-4.4,4.4-4.4H110.9 M110.9,25.3H38.4c-4.7,0-8.4,3.8-8.4,8.4v20.7h-5.9h-0.5l-0.5,0.1
			c-4.1,1-7.3,4.4-9,9.6c-2.2,6.4-2.1,16.2,2.3,21.6c1.7,2.1,3.6,3.2,5.8,3.2h81.1c4.2,0,8.2-2.5,11.1-6.8c3.3-5,5-12.2,5-21.6V33.7
			C119.3,29.1,115.5,25.3,110.9,25.3L110.9,25.3z"/>
	</g>
	<path class="st13" d="M34,57.1V34.8c0-3.1,2.5-5.5,5.5-5.5h70.3c3.1,0,5.5,2.5,5.5,5.5v25.7c0,19.2-7.4,24.4-12,24.4H22.2
		c-1.1,0-1.9-0.8-2.7-1.7c-4.8-5.9-3.5-22.8,4.6-24.8h78.6"/>
	<g id="Layer_3_copy_9" class="st4">
		<line class="st14" x1="102.5" y1="75.9" x2="94.6" y2="75.8"/>
		<path class="st14" d="M101.9,84.9c-4.4,0-8.6-7.8-8.6-12.5c0-4.7,2.8-14,8.7-14s7.9,6.8,4.1,15.1c-2.2,4.6-9.4,2.7-4.9-6
			c0,0,0-0.1,0-0.1h-7.4"/>
	</g>
	<g id="Layer_5_copy_8" class="st4">
		<line class="st15" x1="23.1" y1="78.1" x2="88" y2="78.1"/>
		<line class="st15" x1="22.1" y1="71.6" x2="87" y2="71.6"/>
		<line class="st15" x1="24.2" y1="64.8" x2="89.1" y2="64.8"/>
		<path class="st15" d="M108,52.3"/>
		<path class="st15" d="M41.6,52.3"/>
		<line class="st15" x1="41.6" y1="50.6" x2="106.5" y2="50.6"/>
	</g>
</g>
<g id="minipostFinal" class="st2">
	<g class="st4">
		<path class="st12" d="M115.3,29.3v31.2c0,19.2-7.4,24.4-12,24.4H22.2c-1.1,0-1.9-0.8-2.7-1.7c-4.8-5.9-3.5-22.8,4.6-24.8H34V42.3
			l12.7-13H115.3 M119.3,25.3h-4H46.7H45l-1.2,1.2l-12.7,13L30,40.6v1.6v12.1h-5.9h-0.5l-0.5,0.1c-4.1,1-7.3,4.4-9,9.6
			c-2.2,6.4-2.1,16.2,2.3,21.6c1.7,2.1,3.6,3.2,5.8,3.2h81.1c4.2,0,8.2-2.5,11.1-6.8c3.3-5,5-12.2,5-21.6V29.3V25.3L119.3,25.3z"/>
	</g>
	<path class="st13" d="M34,57.1V42.3l12.7-13h68.7v31.2c0,19.2-7.4,24.4-12,24.4H22.2c-1.1,0-1.9-0.8-2.7-1.7
		c-4.8-5.9-3.5-22.8,4.6-24.8h78.6"/>
	<g id="Layer_3_copy_10" class="st4">
		<line class="st14" x1="102.5" y1="75.9" x2="94.6" y2="75.8"/>
		<path class="st14" d="M101.9,84.9c-4.4,0-8.6-7.8-8.6-12.5c0-4.7,2.8-14,8.7-14s7.9,6.8,4.1,15.1c-2.2,4.6-9.4,2.7-4.9-6
			c0,0,0-0.1,0-0.1h-7.4"/>
	</g>
	<g id="Layer_5_copy_9" class="st4">
		<line class="st15" x1="23.1" y1="78.1" x2="88" y2="78.1"/>
		<line class="st15" x1="22.1" y1="71.6" x2="87" y2="71.6"/>
		<line class="st15" x1="24.2" y1="64.8" x2="89.1" y2="64.8"/>
		<path class="st15" d="M108,52.3"/>
		<path class="st15" d="M41.6,52.3"/>
		<line class="st15" x1="41.6" y1="50.6" x2="106.5" y2="50.6"/>
	</g>
	<polyline class="st13" points="35.3,44.3 48.7,44.3 48.7,29.6 	"/>
</g>
<g id="minipostFinal_copy" class="st2">
	<g class="st4">
		<path class="st12" d="M112.8,29.3c1.4,0,2.6,1.1,2.6,2.6v28.7c0,19.2-7.4,24.4-12,24.4H22.2c-1.1,0-1.9-0.8-2.7-1.7
			c-4.7-5.8-3.5-22.3,4.2-24.7c0.2-0.1,0.5-0.1,0.7-0.1h6.9c1.4,0,2.6-1.1,2.6-2.6V43.3c0-0.7,0.3-1.3,0.7-1.8L45.9,30
			c0.5-0.5,1.1-0.8,1.8-0.8H112.8 M112.8,25.3h-65c-1.8,0-3.5,0.7-4.7,2L31.8,38.7C30.6,40,30,41.6,30,43.3v11.1h-5.5
			c-0.7,0-1.3,0.1-1.9,0.3c-4,1.2-7.1,4.8-8.7,10.1c-1.9,6.3-1.7,15.8,2.5,21c1.7,2.1,3.6,3.2,5.8,3.2h81.1c4.2,0,8.2-2.5,11.1-6.8
			c3.3-5,5-12.2,5-21.6V31.8C119.3,28.2,116.4,25.3,112.8,25.3L112.8,25.3z"/>
	</g>
	<path class="st13" d="M34,57.1V42.3l12.7-13h66.2c1.4,0,2.5,1.1,2.5,2.5v28.8c0,19.2-7.4,24.4-12,24.4H22.2c-1.1,0-1.9-0.8-2.7-1.7
		c-4.8-5.9-3.5-22.8,4.6-24.8h78.6"/>
	<g id="Layer_3_copy_11" class="st4">
		<line class="st14" x1="102.5" y1="75.9" x2="94.6" y2="75.8"/>
		<path class="st14" d="M101.9,84.9c-4.4,0-8.6-7.8-8.6-12.5c0-4.7,2.8-14,8.7-14s7.9,6.8,4.1,15.1c-2.2,4.6-9.4,2.7-4.9-6
			c0,0,0-0.1,0-0.1h-7.4"/>
	</g>
	<g id="Layer_5_copy_10" class="st4">
		<line class="st15" x1="23.1" y1="78.1" x2="88" y2="78.1"/>
		<line class="st15" x1="22.1" y1="71.6" x2="87" y2="71.6"/>
		<line class="st15" x1="24.2" y1="64.8" x2="89.1" y2="64.8"/>
		<path class="st15" d="M108,52.3"/>
		<path class="st15" d="M41.6,52.3"/>
		<line class="st15" x1="41.6" y1="50.6" x2="106.5" y2="50.6"/>
	</g>
	<polyline class="st16" points="35.3,44.3 48.7,44.3 48.7,29.6 	"/>
</g>
<g id="minipostFinal_copy_2">
	<g>
		<path d="M112.8,29.3c1.4,0,2.6,1.1,2.6,2.6v28.7c0,19.2-7.4,24.4-12,24.4H22.2c-1.1,0-1.9-0.8-2.7-1.7c-4.7-5.8-3.5-22.3,4.2-24.7
			c0.2-0.1,0.5-0.1,0.7-0.1h6.9c1.4,0,2.6-1.1,2.6-2.6V43.3c0-0.7,0.3-1.3,0.7-1.8L45.9,30c0.5-0.5,1.1-0.8,1.8-0.8H112.8
			 M112.8,25.3h-65c-1.8,0-3.5,0.7-4.7,2L31.8,38.7C30.6,40,30,41.6,30,43.3v11.1h-5.5c-0.7,0-1.3,0.1-1.9,0.3
			c-4,1.2-7.1,4.8-8.7,10.1c-1.9,6.3-1.7,15.8,2.5,21c1.7,2.1,3.6,3.2,5.8,3.2h81.1c4.2,0,8.2-2.5,11.1-6.8c3.3-5,5-12.2,5-21.6
			V31.8C119.3,28.2,116.4,25.3,112.8,25.3L112.8,25.3z"/>
	</g>
	<path class="st7" d="M34,57.1V42.3l12.7-13h66.2c1.4,0,2.5,1.1,2.5,2.5v28.8c0,19.2-7.4,24.4-12,24.4H22.2c-1.1,0-1.9-0.8-2.7-1.7
		c-4.8-5.9-3.5-22.8,4.6-24.8h78.6"/>
	<g id="Layer_3_copy_12">
		<line class="st7" x1="102.5" y1="75.9" x2="94.6" y2="75.8"/>
		<path class="st7" d="M101.9,84.9c-4.4,0-8.6-7.8-8.6-12.5c0-4.7,2.8-14,8.7-14s7.9,6.8,4.1,15.1c-2.2,4.6-9.4,2.7-4.9-6
			c0,0,0-0.1,0-0.1h-7.4"/>
	</g>
	<g id="Layer_5_copy_11">
		<line class="st11" x1="23.1" y1="78.1" x2="88" y2="78.1"/>
		<line class="st11" x1="22.1" y1="71.6" x2="87" y2="71.6"/>
		<line class="st11" x1="24.2" y1="64.8" x2="89.1" y2="64.8"/>
		<path class="st11" d="M108,52.3"/>
		<path class="st11" d="M41.6,52.3"/>
		<line class="st11" x1="41.6" y1="50.6" x2="106.5" y2="50.6"/>
	</g>
	<polyline class="st17" points="35.3,44.3 48.7,44.3 48.7,29.6 	"/>
	<path class="st17" d="M103.4,44.1H80.1c-1.7,0-3.1-1.4-3.1-3.1v0c0-1.7,1.4-3.1,3.1-3.1h23.3c1.7,0,3.1,1.4,3.1,3.1v0
		C106.5,42.7,105.1,44.1,103.4,44.1z"/>
</g>
<g id="Layer_7_copy" class="st2">
	<path class="st3" d="M32.7,90.1c-1.8-4.3,0-9.3,0-9.3l13.8-13.8h73.8c0.1,0,0.2,0.1,0.2,0.3c-0.5,1-2.2,4.8-2.6,11.2
		c-0.6,9,1.8,11.1,1.8,16.9c0,16.9-7.9,19.3-12.9,19.3l-85.9,0c-1.2,0-2.9-0.7-3.7-1.6c-5.1-5.3-3.6-20.1,5-21.8h84"/>
	<g id="Layer_3_copy_2" class="st4">
		<line class="st7" x1="105.9" y1="106.6" x2="97.5" y2="106.5"/>
		<path class="st7" d="M105.2,114.5c-4.7,0-9.2-6.9-9.2-11s3-12.4,9.3-12.4c6.3,0,8.5,6,4.3,13.3c-2.3,4.1-10.1,2.3-5.2-5.3
			c0,0,0-0.1,0-0.1h-8"/>
	</g>
	<polyline class="st3" points="32.9,80.7 46.5,80.7 46.5,66.9 	"/>
</g>
<g id="Layer_2" class="st2">
	<line class="st3" x1="96.2" y1="106.8" x2="104.9" y2="106.8"/>
	<path class="st3" d="M109.7,117.7C99,117.7,96,107.6,96,103.5s3-12.4,9.3-12.4c3.9,0,7.3,4.5,5,11c-2.9,8.1-15.4,4.9-12-6.4"/>
</g>
<g class="st2">
	<path class="st18" d="M32.9,75.9l13.6-13.6v13.8H33C32.9,76.1,32.8,76,32.9,75.9z"/>
	<polygon class="st18" points="51.2,85.7 27.5,85.7 28.8,80 32.7,76.1 46.5,76.1 46.5,62.3 51.2,57.6 	"/>
</g>
<image style="display:none;overflow:visible;" width="1285" height="292" xlink:href="88DAA8D6.jpg"  transform="matrix(0.9999 0 0 0.9999 -585.6667 -5.2708)">
</image>
<g class="st2">
	<path class="st4" d="M27.6,132.4c0.2-0.5,0.5-1,0.7-1.4c0.8-1.2,1.9-1.5,3.2-1.2c0.8,0.2,1.3,0.6,1.3,1.4c0,0,0,0,0.1,0.1
		c0.2-0.3,0.4-0.5,0.7-0.8c0.6-0.6,1.2-0.9,2.1-0.9c1,0,1.8,0.8,1.9,1.7c0.3-0.4,0.7-0.8,1.1-1.1c1.3-1.1,3.3-0.7,3.8,1
		c0.1,0.5,0,0.9-0.1,1.4c-0.4,1.2-0.9,2.4-1.3,3.7c-0.1,0.2-0.1,0.4-0.1,0.6c0,0.4,0.3,0.7,0.8,0.6c0.4-0.1,0.6-0.4,0.8-0.7
		c0.2-0.3,0.4-0.7,0.5-1c0.2-0.3,0.4-0.1,0.5-0.1c0.2,0.1,0.1,0.2,0.1,0.3c-0.3,0.7-0.6,1.3-1.1,1.8c-0.4,0.4-1,0.6-1.5,0.7
		c-0.7,0.1-1.5,0-2.1-0.4c-0.6-0.4-0.8-1-0.5-1.9c0.3-1,0.7-1.9,1-2.9c0.2-0.6,0.6-1.2,0.5-1.9c0-0.5-0.3-0.7-0.8-0.5
		c-0.9,0.3-1.4,1.1-1.7,2c-0.3,1-0.7,2-1,3.1c-0.2,0.7-0.5,1.4-0.7,2.2c0,0.1-0.1,0.2-0.2,0.2c-0.8,0-1.7,0-2.6,0
		c0.2-0.5,0.3-1,0.5-1.4c0.5-1.6,1.1-3.2,1.6-4.8c0.1-0.3,0.1-0.6,0.1-0.9c0-0.3-0.3-0.4-0.7-0.3c-0.6,0.2-0.9,0.7-1.3,1.1
		c-0.6,0.7-0.7,1.6-1,2.4c-0.4,1.2-0.8,2.5-1.2,3.7c0,0.1-0.1,0.2-0.2,0.2c-0.8,0-1.7,0-2.6,0c0.2-0.6,0.4-1.2,0.6-1.8
		c0.5-1.5,1-3,1.5-4.5c0.1-0.3,0.1-0.6,0.1-0.9c0-0.3-0.3-0.4-0.5-0.3c-0.6,0.2-0.9,0.6-1.2,1.1c-0.1,0.2-0.2,0.4-0.3,0.6
		c-0.1,0.2-0.2,0.3-0.4,0.2c-0.1,0-0.2,0-0.3-0.1C27.6,132.5,27.6,132.4,27.6,132.4z"/>
	<path class="st4" d="M67.5,142.6c-0.2-0.1-0.1-0.3,0-0.4c0-0.1,0.2-0.2,0.2-0.2c0.9,0.1,1.4-0.5,1.6-1.2c0.4-1.3,0.8-2.6,1.2-4
		c0.4-1.4,0.9-2.7,1.3-4.1c0.1-0.4,0.2-0.8,0.3-1.2c0.1-0.3,0.1-0.6-0.1-0.7c-0.3-0.2-0.6-0.1-0.8,0.1c-0.3,0.3-0.6,0.7-0.9,1.1
		c-0.1,0.1-0.1,0.3-0.2,0.4c-0.1,0.2-0.2,0.3-0.4,0.2c-0.2-0.1-0.3-0.2-0.2-0.4c0.3-0.7,0.7-1.5,1.3-2c0.4-0.3,0.9-0.5,1.4-0.5
		c0.4,0,0.8,0,1.2,0.1c0.6,0.1,1,0.5,1.1,1.1c0,0.1,0.1,0.2,0.1,0.3c0.5-0.5,0.9-1.1,1.6-1.4c1.4-0.6,3.2,0.1,3.5,1.8
		c0.4,1.7-0.1,3.3-1.1,4.7c-0.6,0.8-1.3,1.5-2.3,1.9c-0.8,0.3-1.6,0.5-2.4,0.2c-0.5-0.1-0.6-0.3-1.1-1c-0.2,0.6-0.4,1.2-0.6,1.8
		c-0.2,0.6-0.3,1.1-0.5,1.7c-0.2,0.6,0,0.9,0.6,1c0.4,0.1,0.7,0.1,1.1,0.1c-0.1,0.2-0.1,0.4-0.2,0.6
		C71.5,142.6,69.5,142.6,67.5,142.6z M77.2,132.2c-0.1-0.2-0.1-0.6-0.3-1c-0.1-0.3-0.4-0.4-0.7-0.3c-0.3,0.1-0.6,0.3-0.8,0.5
		c-0.6,0.4-0.9,1-1.1,1.7c-0.3,1.1-0.7,2.2-1,3.3c-0.2,0.6,0.3,1.3,0.9,1.4c0.7,0.1,1.1-0.3,1.5-0.8
		C76.7,135.6,77.1,134.1,77.2,132.2z"/>
	<path class="st4" d="M68.1,124.8c0.9,0.3,1.3,0.9,1.2,1.7c-0.2,0.9-0.7,1.5-1.6,1.6c-0.6,0.1-1.2-0.3-1.4-1.1
		c-0.3-0.9,0.4-2.1,1.4-2.2c0,0,0,0,0.1-0.1C67.8,124.8,67.9,124.8,68.1,124.8z"/>
	<path class="st4" d="M49.5,124.8c0.8,0.3,1.2,0.9,1.2,1.7c-0.1,0.9-0.8,1.6-1.6,1.7c-0.9,0.1-1.6-0.9-1.5-1.8
		c0.2-0.8,0.7-1.4,1.5-1.6C49.2,124.8,49.3,124.8,49.5,124.8z"/>
	<path class="st4" d="M51.4,138.3c0.1-0.4,0.3-0.8,0.4-1.2c0.5-1.6,1.1-3.2,1.6-4.8c0.1-0.3,0.2-0.6,0.2-0.9c0-0.2,0-0.5-0.2-0.6
		c-0.3-0.1-0.5,0-0.8,0.2c-0.4,0.3-0.7,0.8-0.9,1.3c-0.3,0.5-0.1,0.6-0.8,0.3c0.1-0.2,0.2-0.5,0.3-0.7c0.3-0.6,0.6-1.1,1.1-1.5
		c0.8-0.6,1.6-0.7,2.6-0.5c0.6,0.1,1.1,0.5,1.3,1.1c0,0.2,0.1,0.3,0.1,0.4c0.4-0.4,0.7-0.8,1.1-1c0.9-0.6,1.8-0.8,2.8-0.3
		c0.8,0.4,1.3,1.4,1,2.4c-0.4,1.3-0.9,2.5-1.3,3.7c-0.1,0.2-0.2,0.5-0.2,0.8c-0.1,0.5,0.3,0.8,0.8,0.6c0.5-0.2,0.7-0.6,0.9-0.9
		c0.1-0.2,0.3-0.5,0.4-0.7c0.1-0.3,0.3-0.1,0.5-0.1c0.2,0.1,0.2,0.2,0.1,0.4c-0.2,0.4-0.4,0.9-0.7,1.3c-0.5,0.7-1.2,1.1-2,1.2
		c-0.8,0.1-1.5,0-2.1-0.5c-0.4-0.3-0.7-0.9-0.5-1.4c0.3-0.9,0.6-1.7,0.9-2.6c0.3-0.7,0.5-1.5,0.8-2.2c0.1-0.3,0.1-0.6-0.1-0.9
		c-0.3-0.3-0.6-0.1-0.8,0c-0.5,0.2-0.8,0.5-1.1,0.9c-0.6,0.8-0.9,1.7-1.2,2.6c-0.4,1.2-0.8,2.4-1.2,3.6c0,0.1-0.1,0.2-0.2,0.2
		C53.1,138.3,52.3,138.3,51.4,138.3z"/>
	<path class="st4" d="M84.2,138.6c-1.4-0.1-2.4-0.6-3.1-1.8c-0.3-0.7-0.4-1.4-0.3-2.1c0.1-1,0.5-1.9,1.1-2.8c0.7-1,1.7-1.6,2.9-1.9
		c0.5-0.1,1.1-0.2,1.6-0.2c1.5-0.1,3,1,3.2,2.6c0.1,0.5,0.1,1,0,1.5c-0.1,0.9-0.4,1.8-1,2.6c-0.7,1-1.7,1.6-2.9,1.9
		C85.3,138.4,84.8,138.5,84.2,138.6z M87.1,132c0-0.3-0.1-0.7-0.2-1.1c-0.1-0.3-0.3-0.5-0.6-0.5c-0.6,0-1,0.3-1.3,0.8
		c-1.1,1.7-1.5,3.6-1.4,5.6c0,0.9,0.6,1.2,1.5,0.8c0.4-0.2,0.7-0.6,0.9-1C86.8,135.2,87,133.7,87.1,132z"/>
	<path class="st4" d="M96.7,130.7c-0.5-0.3-1-0.3-1.5-0.2c-0.8,0.2-1.2,1-0.9,1.7c0.1,0.4,0.4,0.5,0.7,0.7c0.6,0.4,1.2,0.7,1.7,1
		c1.2,0.8,1.3,2.4,0.3,3.4c-0.7,0.6-1.4,1-2.3,1.1c-1.2,0.2-2.3,0.1-3.4-0.5c-1.1-0.6-1.5-1.8-0.9-2.7c0.5-0.8,1.6-0.9,2.3-0.3
		c0.4,0.3,0.3,0.8,0.2,1.2c-0.2,0.4-0.5,0.6-0.9,0.6c-0.1,0-0.2,0.1-0.3,0.1c0.1,0.1,0.1,0.2,0.2,0.3c0.5,0.5,1.1,0.5,1.8,0.4
		c0.5-0.1,0.9-0.2,1.2-0.7c0.3-0.4,0.3-1-0.1-1.4c-0.2-0.2-0.5-0.4-0.7-0.5c-0.5-0.3-1.1-0.6-1.6-1c-1-0.8-1.2-2.3-0.2-3.3
		c0.8-0.8,1.8-1.2,3-1.3c0.8,0,1.5,0.1,2.2,0.5c0.8,0.5,1.1,1.5,0.6,2.3c-0.4,0.6-1,0.7-1.6,0.5c-0.2,0-0.4-0.1-0.6-0.3
		c-0.6-0.5-0.5-1.3,0.2-1.8C96.4,130.9,96.5,130.8,96.7,130.7z"/>
	<path class="st4" d="M100.7,130.7c-0.6,0-1.1,0-1.7,0c0-0.1,0-0.1,0-0.1c0.2-0.7,0.2-0.7,1-0.7c0.3,0,0.5,0,0.8,0
		c0.2,0,0.3-0.1,0.3-0.2c0.2-0.8,0.5-1.5,0.7-2.3c0.1-0.2,0.2-0.3,0.4-0.3c0.6,0,1.3,0,1.9,0c0.1,0,0.2,0,0.3,0.1
		c-0.3,0.9-0.6,1.8-0.8,2.8c0.8,0,1.6,0,2.3,0c-0.1,0.2-0.1,0.4-0.1,0.6c0,0.2-0.1,0.3-0.3,0.2c-0.7,0-1.4,0-2.1,0
		c-0.5,1.5-0.9,3.1-1.4,4.6c-0.1,0.4-0.2,0.8-0.3,1.1c0,0.2-0.1,0.4-0.1,0.6c0,0.3,0.5,0.5,0.8,0.4c0.5-0.1,0.8-0.5,1.1-0.9
		c0.1-0.2,0.2-0.4,0.3-0.7c0.2-0.4,0.2-0.4,0.6-0.2c0.1,0,0.1,0.1,0.2,0.1c-0.3,0.5-0.5,1.1-0.9,1.6c-0.4,0.6-1.1,0.9-1.8,1.1
		c-0.9,0.2-1.7,0.1-2.4-0.4c-0.5-0.4-0.8-0.9-0.6-1.6c0.3-1.1,0.6-2.2,0.9-3.3c0.2-0.8,0.5-1.6,0.7-2.4
		C100.8,130.8,100.7,130.8,100.7,130.7z"/>
	<path class="st4" d="M44.6,132.7c-0.2-0.1-0.4-0.1-0.6-0.2c0.3-0.7,0.6-1.5,1.2-2.1c0.8-0.8,2.4-1,3.4-0.5c0.9,0.5,1,1.1,0.7,2
		c-0.5,1.4-1,2.8-1.6,4.2c-0.1,0.3-0.1,0.6-0.1,0.9c0,0.3,0.4,0.5,0.7,0.4c0.4-0.1,0.6-0.3,0.8-0.6c0.2-0.3,0.4-0.7,0.6-1
		c0.1-0.4,0.3-0.1,0.5-0.1c0.2,0,0.2,0.2,0.1,0.3c-0.2,0.5-0.5,0.9-0.7,1.4c-0.5,0.7-1.2,1-2,1.1c-0.6,0.1-1.3,0-1.8-0.4
		c-0.7-0.4-0.9-1-0.7-1.8c0.4-1.2,0.9-2.4,1.3-3.6c0.2-0.5,0.4-1,0.4-1.6c0-0.4-0.3-0.6-0.7-0.5c-0.4,0.1-0.6,0.5-0.8,0.8
		C45,131.9,44.8,132.3,44.6,132.7z"/>
	<path class="st4" d="M63.2,132.7c-0.6-0.2-0.6-0.2-0.4-0.8c0.2-0.4,0.4-0.8,0.6-1.2c0.5-0.8,1.3-1,2.2-1.1c0.5,0,0.9,0,1.3,0.2
		c1,0.5,1.3,1.2,0.9,2.1c-0.5,1.4-1,2.8-1.6,4.2c-0.1,0.2-0.1,0.5-0.1,0.8c0,0.4,0.3,0.6,0.7,0.5c0.4-0.1,0.7-0.5,0.9-0.8
		c0.2-0.3,0.3-0.6,0.4-0.9c0.1-0.3,0.3-0.1,0.5-0.1c0.2,0,0.2,0.1,0.1,0.3c-0.3,0.8-0.7,1.6-1.4,2.1c-1,0.6-2.1,0.7-3.2,0.1
		c-0.7-0.4-0.9-1-0.7-1.8c0.4-1.2,0.9-2.4,1.3-3.6c0.2-0.4,0.3-0.9,0.4-1.4c0-0.2,0-0.4-0.2-0.6c-0.2-0.2-0.4-0.2-0.7-0.1
		c-0.4,0.2-0.6,0.5-0.7,0.8C63.6,132,63.4,132.3,63.2,132.7z"/>
</g>
<g class="st2">
	<path class="st4" d="M20.2,132.1c0.3-0.6,0.5-1.1,0.9-1.7c0.9-1.4,2.3-1.8,3.8-1.4c0.9,0.2,1.5,0.7,1.6,1.7c0,0,0,0.1,0.1,0.1
		c0.3-0.3,0.5-0.6,0.8-0.9c0.7-0.7,1.5-1,2.4-1c1.2,0,2.2,0.9,2.3,2c0.4-0.4,0.8-0.9,1.3-1.3c1.6-1.3,4-0.8,4.5,1.2
		c0.2,0.6,0.1,1.1-0.1,1.6c-0.5,1.5-1.1,2.9-1.6,4.4c-0.1,0.2-0.1,0.5-0.2,0.7c0,0.5,0.4,0.8,0.9,0.7c0.4-0.1,0.7-0.4,1-0.8
		c0.2-0.4,0.4-0.8,0.6-1.2c0.2-0.4,0.4-0.1,0.6-0.1c0.3,0.1,0.1,0.2,0.1,0.4c-0.3,0.8-0.7,1.6-1.4,2.2c-0.5,0.5-1.1,0.7-1.8,0.8
		c-0.9,0.1-1.7,0-2.5-0.5c-0.7-0.5-0.9-1.2-0.6-2.2c0.4-1.2,0.8-2.3,1.2-3.4c0.3-0.7,0.7-1.4,0.7-2.3c0-0.6-0.4-0.8-0.9-0.6
		c-1.1,0.4-1.7,1.3-2.1,2.3c-0.4,1.2-0.8,2.4-1.2,3.6c-0.3,0.9-0.6,1.7-0.8,2.6c0,0.1-0.2,0.2-0.2,0.2c-1,0-2,0-3.1,0
		c0.2-0.6,0.4-1.1,0.5-1.7c0.6-1.9,1.3-3.8,1.9-5.7c0.1-0.3,0.1-0.7,0.1-1.1c0-0.3-0.4-0.5-0.8-0.3c-0.7,0.2-1.1,0.8-1.6,1.3
		c-0.7,0.8-0.9,1.9-1.2,2.8c-0.5,1.5-1,2.9-1.5,4.4c0,0.1-0.1,0.3-0.2,0.3c-1,0-2,0-3,0c0.3-0.7,0.5-1.4,0.7-2.1
		c0.6-1.8,1.2-3.6,1.8-5.4c0.1-0.3,0.1-0.7,0.1-1.1c0-0.3-0.3-0.5-0.6-0.4c-0.7,0.2-1,0.8-1.4,1.3c-0.1,0.2-0.3,0.5-0.3,0.7
		c-0.1,0.2-0.2,0.3-0.5,0.2c-0.1-0.1-0.2-0.1-0.3-0.1C20.2,132.3,20.2,132.2,20.2,132.1z"/>
	<path class="st4" d="M67.6,144.3c-0.2-0.2-0.1-0.4,0-0.5c0-0.1,0.2-0.2,0.3-0.2c1.1,0.1,1.6-0.6,1.9-1.5c0.5-1.6,1-3.1,1.5-4.7
		c0.5-1.6,1-3.2,1.5-4.8c0.1-0.5,0.3-1,0.4-1.4c0.1-0.3,0.1-0.7-0.2-0.9c-0.3-0.2-0.7-0.1-0.9,0.2c-0.4,0.4-0.7,0.9-1,1.3
		c-0.1,0.2-0.2,0.3-0.2,0.5c-0.1,0.3-0.2,0.3-0.5,0.2c-0.3-0.1-0.4-0.2-0.2-0.5c0.4-0.9,0.8-1.8,1.6-2.4c0.5-0.4,1.1-0.6,1.7-0.6
		c0.5,0,1,0,1.4,0.1c0.7,0.2,1.2,0.6,1.3,1.3c0,0.1,0.1,0.3,0.1,0.4c0.6-0.6,1.1-1.3,1.9-1.6c1.6-0.7,3.8,0.1,4.2,2.1
		c0.4,2.1-0.2,3.9-1.3,5.6c-0.7,1-1.6,1.8-2.7,2.2c-0.9,0.4-1.9,0.6-2.9,0.2c-0.6-0.2-0.8-0.3-1.3-1.2c-0.2,0.7-0.5,1.5-0.7,2.2
		c-0.2,0.7-0.4,1.3-0.6,2c-0.2,0.7,0,1,0.8,1.1c0.4,0.1,0.9,0.1,1.3,0.2c-0.1,0.3-0.2,0.5-0.3,0.7C72.4,144.3,70,144.3,67.6,144.3z
		 M79.2,131.9c-0.1-0.3-0.1-0.8-0.3-1.2c-0.1-0.4-0.5-0.5-0.8-0.4c-0.3,0.1-0.7,0.3-1,0.5c-0.7,0.5-1.1,1.2-1.3,2.1
		c-0.4,1.3-0.8,2.6-1.2,3.9c-0.2,0.7,0.4,1.5,1.1,1.6c0.8,0.1,1.3-0.4,1.7-0.9C78.6,135.9,79.1,134.1,79.2,131.9z"/>
	<path class="st4" d="M68.3,123.1c1,0.4,1.5,1.1,1.4,2c-0.2,1.1-0.8,1.8-1.9,1.9c-0.8,0.1-1.4-0.3-1.7-1.3c-0.3-1.1,0.5-2.5,1.7-2.6
		c0,0,0.1,0,0.1-0.1C68,123.1,68.2,123.1,68.3,123.1z"/>
	<path class="st4" d="M46.2,123.1c1,0.4,1.5,1,1.4,2c-0.1,1.1-0.9,1.9-1.9,2c-1,0.1-2-1-1.7-2.1c0.2-1,0.8-1.6,1.8-1.8
		C45.9,123.1,46.1,123.1,46.2,123.1z"/>
	<path class="st4" d="M48.5,139.1c0.2-0.5,0.3-0.9,0.5-1.4c0.7-1.9,1.3-3.8,2-5.7c0.1-0.4,0.2-0.7,0.2-1.1c0-0.3,0.1-0.6-0.3-0.7
		c-0.3-0.2-0.6,0-0.9,0.2c-0.5,0.4-0.8,1-1.1,1.6c-0.3,0.7-0.2,0.7-1,0.3c0.1-0.3,0.2-0.6,0.3-0.9c0.3-0.7,0.7-1.4,1.3-1.8
		c0.9-0.7,1.9-0.8,3.1-0.6c0.7,0.2,1.3,0.6,1.5,1.3c0.1,0.2,0.1,0.4,0.1,0.5c0.4-0.4,0.8-0.9,1.3-1.2c1-0.7,2.2-1,3.4-0.3
		c1,0.5,1.5,1.7,1.1,2.8c-0.5,1.5-1.1,3-1.6,4.4c-0.1,0.3-0.2,0.6-0.2,0.9c-0.1,0.6,0.4,0.9,1,0.7c0.6-0.2,0.8-0.7,1.1-1.1
		c0.2-0.3,0.3-0.6,0.4-0.9c0.2-0.4,0.4-0.2,0.6-0.1c0.3,0.1,0.2,0.2,0.1,0.4c-0.3,0.5-0.5,1-0.8,1.5c-0.5,0.9-1.4,1.3-2.4,1.4
		c-0.9,0.1-1.8,0-2.5-0.6c-0.5-0.4-0.8-1.1-0.6-1.7c0.3-1,0.7-2,1-3.1c0.3-0.9,0.6-1.7,0.9-2.6c0.1-0.3,0.2-0.7-0.1-1
		c-0.3-0.3-0.7-0.1-1,0c-0.6,0.2-0.9,0.7-1.3,1.1c-0.8,0.9-1,2-1.4,3.1c-0.5,1.4-1,2.9-1.5,4.3c0,0.1-0.2,0.2-0.3,0.2
		C50.5,139.1,49.6,139.1,48.5,139.1z"/>
	<path class="st4" d="M87.5,139.5c-1.6-0.1-2.9-0.7-3.6-2.2c-0.4-0.8-0.4-1.7-0.3-2.5c0.2-1.2,0.6-2.3,1.3-3.3
		c0.9-1.1,2-1.9,3.4-2.3c0.6-0.2,1.3-0.3,1.9-0.3c1.8-0.1,3.5,1.2,3.8,3c0.1,0.6,0.1,1.2,0,1.8c-0.1,1.1-0.5,2.1-1.2,3
		c-0.9,1.2-2,2-3.4,2.3C88.8,139.3,88.2,139.4,87.5,139.5z M90.9,131.7c0-0.3-0.1-0.8-0.2-1.3c-0.1-0.4-0.3-0.5-0.7-0.6
		c-0.7,0-1.2,0.4-1.6,0.9c-1.4,2-1.8,4.3-1.7,6.7c0,1.1,0.8,1.4,1.7,0.9c0.5-0.3,0.8-0.7,1.1-1.2C90.5,135.5,90.8,133.7,90.9,131.7z
		"/>
	<path class="st4" d="M102.4,130.1c-0.6-0.4-1.2-0.4-1.8-0.3c-0.9,0.2-1.4,1.2-1.1,2c0.2,0.4,0.5,0.6,0.9,0.9c0.7,0.4,1.4,0.8,2,1.2
		c1.4,1,1.5,2.9,0.3,4c-0.8,0.8-1.7,1.2-2.8,1.3c-1.4,0.2-2.7,0.1-4-0.5c-1.2-0.7-1.7-2.1-1-3.2c0.6-0.9,1.9-1.1,2.8-0.3
		c0.4,0.4,0.4,1,0.2,1.5c-0.2,0.5-0.6,0.7-1.1,0.8c-0.1,0-0.2,0.1-0.4,0.1c0.1,0.1,0.1,0.3,0.2,0.4c0.6,0.6,1.3,0.6,2.1,0.5
		c0.6-0.1,1.1-0.3,1.4-0.8c0.3-0.5,0.3-1.2-0.1-1.6c-0.2-0.2-0.5-0.4-0.8-0.6c-0.6-0.4-1.3-0.8-1.9-1.2c-1.2-0.9-1.4-2.7-0.3-3.9
		c1-1,2.2-1.5,3.6-1.5c0.9,0,1.8,0.2,2.6,0.6c1,0.6,1.3,1.8,0.7,2.7c-0.4,0.7-1.2,0.8-1.9,0.7c-0.2,0-0.5-0.1-0.7-0.3
		c-0.7-0.6-0.6-1.5,0.2-2.1C101.9,130.4,102.1,130.3,102.4,130.1z"/>
	<path class="st4" d="M107.1,130.2c-0.7,0-1.3,0-2,0c0-0.1,0-0.1,0-0.1c0.3-0.8,0.3-0.8,1.1-0.8c0.3,0,0.6,0,0.9,0
		c0.2,0,0.3-0.1,0.4-0.3c0.3-0.9,0.5-1.8,0.8-2.7c0.1-0.3,0.2-0.4,0.5-0.4c0.8,0,1.5,0,2.3,0c0.1,0,0.3,0,0.4,0.1
		c-0.3,1.1-0.7,2.2-1,3.3c1,0,1.8,0,2.8,0c-0.1,0.2-0.1,0.5-0.2,0.7c-0.1,0.2-0.2,0.3-0.4,0.3c-0.8,0-1.6,0-2.5,0
		c-0.5,1.8-1.1,3.6-1.6,5.5c-0.1,0.4-0.3,0.9-0.4,1.3c-0.1,0.2-0.1,0.5-0.1,0.7c0,0.4,0.6,0.6,1,0.5c0.6-0.2,1-0.6,1.3-1.1
		c0.2-0.2,0.3-0.5,0.4-0.8c0.2-0.5,0.3-0.5,0.7-0.3c0.1,0,0.1,0.1,0.2,0.1c-0.3,0.6-0.6,1.3-1,1.9c-0.5,0.8-1.3,1.1-2.1,1.3
		c-1,0.2-2,0.2-2.9-0.5c-0.6-0.4-0.9-1.1-0.7-1.8c0.4-1.3,0.7-2.6,1.1-3.9c0.3-0.9,0.6-1.9,0.9-2.8
		C107.1,130.3,107.1,130.2,107.1,130.2z"/>
	<path class="st4" d="M40.4,132.5c-0.2-0.1-0.5-0.2-0.7-0.3c0.4-0.9,0.7-1.8,1.4-2.4c1-1,2.9-1.2,4-0.5c1.1,0.6,1.2,1.3,0.9,2.4
		c-0.6,1.7-1.2,3.3-1.8,5c-0.1,0.3-0.2,0.7-0.2,1.1c0,0.3,0.5,0.6,0.8,0.5c0.4-0.1,0.7-0.4,1-0.8c0.2-0.4,0.5-0.8,0.7-1.2
		c0.2-0.4,0.4-0.1,0.6-0.1c0.3,0,0.2,0.2,0.1,0.4c-0.3,0.5-0.5,1.1-0.9,1.6c-0.6,0.8-1.4,1.2-2.4,1.3c-0.8,0.1-1.5,0-2.2-0.4
		c-0.9-0.5-1.1-1.2-0.8-2.1c0.5-1.4,1.1-2.8,1.6-4.2c0.2-0.6,0.5-1.2,0.5-1.9c0-0.5-0.4-0.7-0.9-0.6c-0.5,0.1-0.7,0.5-1,0.9
		C40.9,131.6,40.6,132.1,40.4,132.5z"/>
	<path class="st4" d="M62.5,132.5c-0.7-0.2-0.8-0.2-0.4-0.9c0.2-0.5,0.4-1,0.7-1.4c0.6-0.9,1.5-1.2,2.6-1.3c0.5,0,1.1,0,1.6,0.2
		c1.2,0.6,1.5,1.4,1.1,2.5c-0.6,1.7-1.2,3.3-1.8,4.9c-0.1,0.3-0.2,0.6-0.2,0.9c0,0.5,0.4,0.8,0.9,0.6c0.5-0.1,0.8-0.5,1.1-1
		c0.2-0.3,0.4-0.7,0.5-1c0.2-0.4,0.4-0.1,0.6-0.1c0.2,0,0.2,0.2,0.2,0.4c-0.4,0.9-0.8,1.9-1.7,2.4c-1.2,0.7-2.5,0.8-3.8,0.1
		c-0.9-0.5-1.1-1.2-0.8-2.1c0.5-1.4,1.1-2.8,1.6-4.2c0.2-0.5,0.4-1.1,0.5-1.6c0-0.2-0.1-0.5-0.2-0.7c-0.2-0.2-0.5-0.2-0.8-0.1
		c-0.5,0.2-0.7,0.6-0.9,1C63,131.6,62.8,132.1,62.5,132.5z"/>
</g>
<g class="st2">
	<path class="st19" d="M50.7,42.6c0.2-0.3,0.3-0.6,0.5-0.9c0.5-0.7,1.2-0.9,2-0.8c0.5,0.1,0.8,0.4,0.8,0.9c0,0,0,0,0,0.1
		c0.1-0.2,0.3-0.3,0.4-0.5c0.3-0.4,0.8-0.5,1.3-0.5c0.6,0,1.1,0.5,1.2,1.1c0.2-0.2,0.4-0.5,0.7-0.7c0.8-0.7,2.1-0.4,2.4,0.6
		c0.1,0.3,0,0.6-0.1,0.9c-0.3,0.8-0.6,1.5-0.8,2.3c0,0.1-0.1,0.2-0.1,0.4c0,0.3,0.2,0.4,0.5,0.4c0.2-0.1,0.4-0.2,0.5-0.4
		c0.1-0.2,0.2-0.4,0.3-0.6c0.1-0.2,0.2-0.1,0.3,0c0.1,0,0.1,0.1,0,0.2c-0.2,0.4-0.4,0.8-0.7,1.1c-0.3,0.2-0.6,0.4-0.9,0.4
		c-0.5,0.1-0.9,0-1.3-0.3c-0.4-0.3-0.5-0.6-0.3-1.2c0.2-0.6,0.4-1.2,0.7-1.8c0.1-0.4,0.4-0.8,0.3-1.2c0-0.3-0.2-0.4-0.5-0.3
		c-0.6,0.2-0.9,0.7-1.1,1.2c-0.2,0.6-0.4,1.3-0.6,1.9c-0.1,0.5-0.3,0.9-0.4,1.4c0,0.1-0.1,0.1-0.1,0.1c-0.5,0-1.1,0-1.6,0
		c0.1-0.3,0.2-0.6,0.3-0.9c0.3-1,0.7-2,1-3c0.1-0.2,0-0.4,0-0.6c0-0.2-0.2-0.2-0.4-0.2c-0.4,0.1-0.6,0.4-0.8,0.7
		c-0.3,0.4-0.5,1-0.6,1.5c-0.3,0.8-0.5,1.5-0.8,2.3c0,0.1-0.1,0.1-0.1,0.1c-0.5,0-1.1,0-1.6,0c0.1-0.4,0.3-0.8,0.4-1.1
		c0.3-0.9,0.6-1.9,0.9-2.8c0.1-0.2,0.1-0.4,0.1-0.6c0-0.2-0.2-0.2-0.3-0.2c-0.4,0.1-0.5,0.4-0.7,0.7c-0.1,0.1-0.1,0.3-0.2,0.4
		c-0.1,0.1-0.1,0.2-0.3,0.1c-0.1,0-0.1,0-0.2,0C50.7,42.7,50.7,42.7,50.7,42.6z"/>
	<path class="st19" d="M75.6,49c-0.1-0.1,0-0.2,0-0.3c0,0,0.1-0.1,0.2-0.1c0.6,0,0.9-0.3,1-0.8c0.3-0.8,0.5-1.6,0.8-2.5
		c0.3-0.8,0.5-1.7,0.8-2.5c0.1-0.3,0.1-0.5,0.2-0.8c0-0.2,0.1-0.4-0.1-0.5c-0.2-0.1-0.4,0-0.5,0.1c-0.2,0.2-0.4,0.5-0.5,0.7
		c-0.1,0.1-0.1,0.2-0.1,0.3c-0.1,0.1-0.1,0.2-0.3,0.1c-0.1-0.1-0.2-0.1-0.1-0.3c0.2-0.5,0.4-0.9,0.8-1.3c0.3-0.2,0.6-0.3,0.9-0.3
		c0.2,0,0.5,0,0.7,0.1c0.4,0.1,0.6,0.3,0.7,0.7c0,0.1,0,0.1,0.1,0.2c0.3-0.3,0.6-0.7,1-0.8c0.9-0.4,2,0,2.2,1.1
		c0.2,1.1-0.1,2-0.7,2.9c-0.3,0.5-0.8,0.9-1.4,1.2c-0.5,0.2-1,0.3-1.5,0.1c-0.3-0.1-0.4-0.2-0.7-0.6c-0.1,0.4-0.2,0.8-0.4,1.1
		c-0.1,0.3-0.2,0.7-0.3,1.1c-0.1,0.4,0,0.5,0.4,0.6c0.2,0,0.4,0.1,0.7,0.1c0,0.1-0.1,0.3-0.1,0.4C78.1,49,76.9,49,75.6,49z
		 M81.7,42.6c0-0.1-0.1-0.4-0.2-0.6c-0.1-0.2-0.2-0.3-0.4-0.2c-0.2,0.1-0.4,0.2-0.5,0.3c-0.4,0.3-0.6,0.6-0.7,1.1
		c-0.2,0.7-0.4,1.4-0.6,2c-0.1,0.3,0.2,0.8,0.6,0.8c0.4,0.1,0.7-0.2,0.9-0.5C81.4,44.6,81.6,43.7,81.7,42.6z"/>
	<path class="st19" d="M76,37.9c0.5,0.2,0.8,0.6,0.7,1.1c-0.1,0.6-0.4,0.9-1,1c-0.4,0-0.8-0.2-0.9-0.7c-0.2-0.6,0.3-1.3,0.9-1.4
		c0,0,0,0,0,0C75.8,37.9,75.9,37.9,76,37.9z"/>
	<path class="st19" d="M64.4,37.9c0.5,0.2,0.8,0.5,0.7,1c-0.1,0.6-0.5,1-1,1.1c-0.5,0.1-1-0.5-0.9-1.1c0.1-0.5,0.4-0.9,0.9-1
		C64.2,37.9,64.3,37.9,64.4,37.9z"/>
	<path class="st19" d="M65.6,46.3c0.1-0.3,0.2-0.5,0.2-0.7c0.3-1,0.7-2,1-3c0.1-0.2,0.1-0.4,0.1-0.6c0-0.1,0-0.3-0.1-0.4
		c-0.2-0.1-0.3,0-0.5,0.1c-0.3,0.2-0.4,0.5-0.6,0.8c-0.2,0.3-0.1,0.3-0.5,0.2c0.1-0.2,0.1-0.3,0.2-0.5c0.2-0.4,0.4-0.7,0.7-1
		c0.5-0.4,1-0.4,1.6-0.3c0.4,0.1,0.7,0.3,0.8,0.7c0,0.1,0,0.2,0.1,0.3c0.2-0.2,0.4-0.5,0.7-0.7c0.5-0.4,1.2-0.5,1.8-0.2
		c0.5,0.3,0.8,0.9,0.6,1.5c-0.3,0.8-0.6,1.6-0.8,2.3c-0.1,0.2-0.1,0.3-0.1,0.5c0,0.3,0.2,0.5,0.5,0.4c0.3-0.1,0.4-0.3,0.6-0.6
		c0.1-0.1,0.2-0.3,0.2-0.5c0.1-0.2,0.2-0.1,0.3-0.1c0.1,0,0.1,0.1,0,0.2c-0.1,0.3-0.3,0.5-0.4,0.8c-0.3,0.4-0.7,0.7-1.2,0.7
		c-0.5,0.1-0.9,0-1.3-0.3c-0.3-0.2-0.4-0.6-0.3-0.9c0.2-0.5,0.4-1.1,0.6-1.6c0.2-0.5,0.3-0.9,0.5-1.4c0.1-0.2,0.1-0.4-0.1-0.5
		c-0.2-0.2-0.4-0.1-0.5,0c-0.3,0.1-0.5,0.3-0.7,0.6c-0.4,0.5-0.5,1.1-0.7,1.6c-0.3,0.8-0.5,1.5-0.8,2.3c0,0-0.1,0.1-0.1,0.1
		C66.6,46.3,66.1,46.3,65.6,46.3z"/>
	<path class="st19" d="M86.1,46.5c-0.9,0-1.5-0.4-1.9-1.2C84,45,83.9,44.5,84,44c0.1-0.6,0.3-1.2,0.7-1.7c0.5-0.6,1.1-1,1.8-1.2
		c0.3-0.1,0.7-0.1,1-0.2c1,0,1.9,0.7,2,1.6c0,0.3,0,0.6,0,1c-0.1,0.6-0.3,1.1-0.6,1.6c-0.5,0.6-1.1,1-1.8,1.2
		C86.8,46.4,86.4,46.5,86.1,46.5z M87.9,42.4c0-0.2,0-0.4-0.1-0.7c0-0.2-0.2-0.3-0.4-0.3c-0.4,0-0.6,0.2-0.8,0.5
		c-0.7,1.1-0.9,2.3-0.9,3.5c0,0.6,0.4,0.8,0.9,0.5c0.3-0.1,0.4-0.4,0.6-0.7C87.7,44.4,87.8,43.5,87.9,42.4z"/>
	<path class="st19" d="M93.9,41.6c-0.3-0.2-0.6-0.2-1-0.1c-0.5,0.1-0.7,0.6-0.6,1.1c0.1,0.2,0.3,0.3,0.5,0.5
		c0.4,0.2,0.7,0.4,1.1,0.7c0.7,0.5,0.8,1.5,0.2,2.1c-0.4,0.4-0.9,0.6-1.4,0.7c-0.7,0.1-1.4,0.1-2.1-0.3c-0.7-0.3-0.9-1.1-0.5-1.7
		c0.3-0.5,1-0.6,1.5-0.2c0.2,0.2,0.2,0.5,0.1,0.8c-0.1,0.2-0.3,0.4-0.6,0.4c-0.1,0-0.1,0-0.2,0.1c0,0.1,0.1,0.1,0.1,0.2
		c0.3,0.3,0.7,0.3,1.1,0.3c0.3,0,0.6-0.1,0.8-0.4c0.2-0.3,0.2-0.6,0-0.8c-0.1-0.1-0.3-0.2-0.4-0.3c-0.3-0.2-0.7-0.4-1-0.6
		c-0.6-0.5-0.8-1.4-0.1-2c0.5-0.5,1.1-0.8,1.9-0.8c0.5,0,1,0.1,1.4,0.3c0.5,0.3,0.7,0.9,0.4,1.4c-0.2,0.3-0.6,0.4-1,0.3
		c-0.1,0-0.3-0.1-0.4-0.2c-0.4-0.3-0.3-0.8,0.1-1.1C93.7,41.8,93.8,41.7,93.9,41.6z"/>
	<path class="st19" d="M96.4,41.6c-0.4,0-0.7,0-1.1,0c0,0,0-0.1,0-0.1c0.1-0.4,0.1-0.4,0.6-0.4c0.2,0,0.3,0,0.5,0
		c0.1,0,0.2,0,0.2-0.2c0.1-0.5,0.3-1,0.4-1.4c0-0.2,0.1-0.2,0.3-0.2c0.4,0,0.8,0,1.2,0c0.1,0,0.1,0,0.2,0c-0.2,0.6-0.3,1.2-0.5,1.7
		c0.5,0,1,0,1.4,0c0,0.1-0.1,0.2-0.1,0.3c0,0.1-0.1,0.2-0.2,0.2c-0.4,0-0.8,0-1.3,0c-0.3,1-0.6,1.9-0.9,2.9
		c-0.1,0.2-0.1,0.5-0.2,0.7c0,0.1,0,0.3,0,0.4c0,0.2,0.3,0.3,0.5,0.2c0.3-0.1,0.5-0.3,0.7-0.6c0.1-0.1,0.2-0.3,0.2-0.4
		c0.1-0.2,0.1-0.3,0.4-0.1c0,0,0.1,0,0.1,0.1c-0.2,0.3-0.3,0.7-0.5,1c-0.3,0.4-0.7,0.6-1.1,0.7c-0.5,0.1-1.1,0.1-1.5-0.2
		c-0.3-0.2-0.5-0.6-0.4-1c0.2-0.7,0.4-1.4,0.6-2c0.1-0.5,0.3-1,0.5-1.5C96.4,41.7,96.4,41.7,96.4,41.6z"/>
	<path class="st19" d="M61.3,42.9c-0.1,0-0.2-0.1-0.4-0.1c0.2-0.5,0.4-0.9,0.7-1.3c0.5-0.5,1.5-0.6,2.1-0.3c0.6,0.3,0.6,0.7,0.5,1.2
		c-0.3,0.9-0.7,1.7-1,2.6c-0.1,0.2-0.1,0.4-0.1,0.6c0,0.2,0.2,0.3,0.4,0.2c0.2-0.1,0.4-0.2,0.5-0.4c0.1-0.2,0.3-0.4,0.3-0.6
		c0.1-0.2,0.2-0.1,0.3-0.1c0.1,0,0.1,0.1,0.1,0.2c-0.2,0.3-0.3,0.6-0.5,0.9c-0.3,0.4-0.7,0.6-1.3,0.7c-0.4,0-0.8,0-1.1-0.2
		c-0.5-0.3-0.6-0.6-0.4-1.1c0.2-0.8,0.6-1.5,0.8-2.2c0.1-0.3,0.3-0.6,0.2-1c0-0.3-0.2-0.4-0.5-0.3c-0.3,0.1-0.4,0.3-0.5,0.5
		C61.5,42.4,61.4,42.6,61.3,42.9z"/>
	<path class="st19" d="M72.9,42.9c-0.4-0.1-0.4-0.1-0.2-0.5c0.1-0.2,0.2-0.5,0.4-0.7c0.3-0.5,0.8-0.7,1.4-0.7c0.3,0,0.6,0,0.8,0.1
		c0.6,0.3,0.8,0.7,0.6,1.3c-0.3,0.9-0.7,1.7-1,2.6c-0.1,0.2-0.1,0.3-0.1,0.5c0,0.3,0.2,0.4,0.5,0.3c0.3-0.1,0.4-0.3,0.6-0.5
		c0.1-0.2,0.2-0.4,0.3-0.5c0.1-0.2,0.2-0.1,0.3,0c0.1,0,0.1,0.1,0.1,0.2c-0.2,0.5-0.4,1-0.9,1.3c-0.6,0.4-1.3,0.4-2,0.1
		c-0.5-0.2-0.6-0.6-0.4-1.1c0.2-0.8,0.6-1.5,0.8-2.2c0.1-0.3,0.2-0.6,0.2-0.9c0-0.1,0-0.3-0.1-0.4c-0.1-0.1-0.3-0.1-0.4,0
		c-0.2,0.1-0.3,0.3-0.5,0.5C73.2,42.4,73.1,42.6,72.9,42.9z"/>
</g>
<g id="align_horizontal" class="st2">
	<rect x="14" y="73.8" class="st20" width="105.4" height="59.8"/>
</g>
<g class="st2">
	<g class="st4">
		<path class="st12" d="M25.8,103.4c0-2,0-4,0-5.9c5.6,0,11.2,0,16.8,0c-0.7,0.1-1,0.6-1.2,1.2c-0.1,0.7,0.5,1.5,1.1,1.4
			c0.7-0.1,1.2-0.6,1.3-1.3c0.1-0.6-0.2-1.1-0.9-1.3c4.8,0,9.5,0,14.3,0c0,0,0,0-0.1,0c-0.8,0-1.3,1-1.1,1.7
			c0.2,0.6,0.6,0.9,1.1,0.9c0.7-0.1,1.1-0.5,1.3-1.3c0.1-0.7-0.2-1.1-0.9-1.3c9.9,0,19.8,0,29.7,0c0,4.7,0,9.3,0,14
			c-8.5,0-17,0-25.4,0c0.1-0.1,0.1-0.3,0.2-0.5c-0.3,0-0.6-0.1-0.9-0.1c-0.5-0.1-0.6-0.3-0.5-0.8c0.1-0.4,0.2-0.9,0.4-1.3
			c0.1-0.5,0.3-0.9,0.4-1.4c0.4,0.6,0.5,0.7,0.9,0.8c0.7,0.2,1.3,0.1,1.9-0.2c0.7-0.3,1.3-0.8,1.8-1.5c0.7-1.1,1.1-2.3,0.9-3.7
			c-0.3-1.3-1.7-1.8-2.7-1.4c-0.5,0.2-0.8,0.7-1.2,1.1c0-0.1-0.1-0.2-0.1-0.3c-0.1-0.5-0.4-0.8-0.9-0.9c-0.3-0.1-0.6-0.1-0.9-0.1
			c-0.4,0-0.8,0.2-1.1,0.4c-0.5,0.4-0.8,1-1,1.6c-0.1,0.2,0,0.3,0.1,0.3c0.2,0.1,0.3,0,0.3-0.1c0-0.1,0.1-0.2,0.2-0.3
			c0.2-0.3,0.4-0.6,0.7-0.9c0.1-0.2,0.4-0.3,0.6-0.1c0.2,0.1,0.2,0.4,0.1,0.6c-0.1,0.3-0.2,0.6-0.3,1c-0.3,1.1-0.7,2.1-1,3.2
			c-0.3,1-0.6,2.1-1,3.1c-0.2,0.6-0.6,1-1.3,1c-0.1,0-0.2,0.1-0.2,0.1c0,0.1-0.1,0.2,0,0.3c-10.4,0-20.9,0-31.3,0c0-2.6,0-5.2,0-7.8
			c0.1,0,0.2,0,0.2,0.1c0.2,0.1,0.3,0,0.3-0.1c0.1-0.2,0.1-0.3,0.2-0.5c0.2-0.4,0.4-0.8,0.9-0.9c0.2-0.1,0.4,0,0.4,0.2
			c0,0.2,0,0.5-0.1,0.7c-0.4,1.2-0.8,2.4-1.2,3.5c-0.2,0.5-0.3,0.9-0.5,1.4c0.7,0,1.4,0,2,0c0.1,0,0.1-0.1,0.2-0.2
			c0.3-1,0.6-1.9,1-2.9c0.2-0.6,0.4-1.3,0.8-1.9c0.3-0.4,0.6-0.7,1-0.9c0.3-0.1,0.5,0,0.6,0.2c0,0.2,0,0.5,0,0.7
			c-0.4,1.3-0.8,2.5-1.2,3.8c-0.1,0.4-0.2,0.7-0.4,1.1c0.7,0,1.4,0,2,0c0.1,0,0.1-0.1,0.2-0.2c0.2-0.6,0.4-1.1,0.6-1.7
			c0.3-0.8,0.5-1.6,0.8-2.4c0.2-0.7,0.6-1.3,1.4-1.5c0.4-0.1,0.6,0,0.6,0.4c0,0.5-0.3,1-0.4,1.5c-0.3,0.8-0.6,1.5-0.8,2.3
			c-0.2,0.7-0.1,1.1,0.4,1.5c0.5,0.4,1.1,0.4,1.6,0.3c0.4-0.1,0.8-0.2,1.2-0.5c0.4-0.4,0.7-0.9,0.9-1.4c0-0.1,0.1-0.2-0.1-0.3
			c-0.1,0-0.3-0.2-0.4,0c-0.1,0.3-0.3,0.5-0.4,0.8c-0.1,0.3-0.3,0.4-0.6,0.5c-0.3,0.1-0.6-0.1-0.6-0.4c0-0.2,0.1-0.3,0.1-0.5
			c0.3-1,0.7-1.9,1.1-2.9c0.1-0.3,0.2-0.7,0.1-1.1c-0.4-1.3-1.9-1.6-3-0.8c-0.3,0.3-0.6,0.6-0.8,0.8c-0.1-0.7-0.8-1.3-1.5-1.3
			c-0.6,0-1.2,0.2-1.6,0.7c-0.2,0.2-0.4,0.4-0.5,0.6c0,0-0.1,0-0.1-0.1c-0.1-0.6-0.4-1-1-1.1c-1-0.2-1.9,0-2.5,0.9
			C26.2,102.7,26,103.1,25.8,103.4z M44.5,108.1c0.7,0,1.3,0,2,0c0.1,0,0.1-0.1,0.2-0.1c0.3-0.9,0.6-1.9,1-2.8
			c0.2-0.7,0.4-1.5,0.9-2c0.2-0.3,0.5-0.6,0.8-0.7c0.2-0.1,0.5-0.2,0.7,0c0.2,0.2,0.2,0.4,0.1,0.7c-0.2,0.6-0.4,1.1-0.6,1.7
			c-0.2,0.7-0.5,1.3-0.7,2c-0.1,0.4,0.1,0.9,0.4,1.1c0.5,0.4,1.1,0.4,1.7,0.4c0.6-0.1,1.2-0.4,1.6-0.9c0.2-0.3,0.3-0.7,0.5-1
			c0.1-0.1,0.1-0.2-0.1-0.3c-0.1,0-0.3-0.2-0.4,0.1c-0.1,0.2-0.2,0.4-0.3,0.6c-0.2,0.3-0.3,0.6-0.7,0.7c-0.4,0.1-0.7-0.1-0.6-0.5
			c0-0.2,0.1-0.4,0.2-0.6c0.3-1,0.7-1.9,1-2.9c0.3-0.8-0.1-1.5-0.8-1.9c-0.8-0.4-1.5-0.3-2.2,0.2c-0.3,0.2-0.6,0.5-0.8,0.8
			c0-0.1,0-0.2-0.1-0.3c-0.2-0.5-0.5-0.7-1-0.9c-0.7-0.2-1.4-0.1-2,0.4c-0.4,0.3-0.6,0.8-0.8,1.2c-0.1,0.2-0.2,0.4-0.2,0.6
			c0.5,0.2,0.4,0.2,0.6-0.2c0.2-0.4,0.4-0.8,0.7-1c0.2-0.1,0.4-0.2,0.6-0.1c0.2,0.1,0.2,0.3,0.2,0.5c0,0.2-0.1,0.5-0.2,0.7
			c-0.4,1.3-0.9,2.5-1.3,3.8C44.7,107.5,44.6,107.7,44.5,108.1z M70.3,108.3c0.4-0.1,0.9-0.1,1.3-0.2c0.9-0.2,1.7-0.8,2.3-1.5
			c0.4-0.6,0.7-1.3,0.8-2c0-0.4,0.1-0.8,0-1.2c-0.2-1.2-1.3-2-2.5-2c-0.4,0-0.9,0.1-1.3,0.2c-0.9,0.2-1.7,0.8-2.3,1.5
			c-0.5,0.6-0.8,1.4-0.9,2.2c-0.1,0.6,0,1.1,0.2,1.7C68.3,107.9,69.2,108.3,70.3,108.3z M80.1,102.1c-0.2,0.1-0.3,0.2-0.4,0.3
			c-0.5,0.4-0.6,1-0.2,1.4c0.1,0.1,0.3,0.2,0.4,0.2c0.5,0.1,1,0,1.2-0.4c0.4-0.6,0.2-1.4-0.5-1.8c-0.5-0.3-1.1-0.4-1.7-0.4
			c-0.9,0-1.7,0.3-2.4,1c-0.8,0.8-0.6,2,0.2,2.6c0.4,0.3,0.9,0.5,1.3,0.8c0.2,0.1,0.4,0.3,0.5,0.4c0.3,0.3,0.3,0.7,0.1,1.1
			c-0.2,0.3-0.6,0.5-0.9,0.5c-0.5,0.1-1,0-1.4-0.3c-0.1-0.1-0.1-0.2-0.1-0.2c0.1,0,0.2-0.1,0.2-0.1c0.3-0.1,0.6-0.2,0.7-0.5
			c0.1-0.3,0.2-0.7-0.1-1c-0.5-0.5-1.4-0.4-1.8,0.2c-0.5,0.7-0.1,1.7,0.7,2.1c0.8,0.4,1.7,0.5,2.6,0.4c0.7-0.1,1.3-0.4,1.8-0.9
			c0.8-0.8,0.7-2-0.2-2.7c-0.4-0.3-0.9-0.5-1.4-0.8c-0.2-0.1-0.5-0.3-0.6-0.6c-0.2-0.6,0.1-1.2,0.7-1.3
			C79.3,101.9,79.7,101.9,80.1,102.1z M83.2,102.1c0,0.1,0,0.1,0,0.1c-0.2,0.6-0.4,1.2-0.6,1.8c-0.3,0.9-0.5,1.7-0.7,2.6
			c-0.1,0.5,0.1,0.9,0.5,1.2c0.6,0.4,1.2,0.4,1.9,0.3c0.6-0.1,1.1-0.4,1.4-0.9c0.3-0.4,0.4-0.8,0.7-1.2c-0.1,0-0.1-0.1-0.2-0.1
			c-0.3-0.1-0.3-0.1-0.5,0.2c-0.1,0.2-0.2,0.4-0.3,0.5c-0.2,0.3-0.5,0.6-0.9,0.7c-0.3,0.1-0.6-0.1-0.6-0.3c0-0.2,0-0.3,0-0.5
			c0.1-0.3,0.2-0.6,0.2-0.9c0.4-1.2,0.7-2.4,1.1-3.6c0.6,0,1.1,0,1.6,0c0.2,0,0.2-0.1,0.3-0.2c0-0.1,0.1-0.3,0.1-0.4
			c-0.6,0-1.2,0-1.8,0c0.2-0.7,0.4-1.5,0.7-2.2c-0.1,0-0.2,0-0.3,0c-0.5,0-1,0-1.5,0c-0.2,0-0.3,0.1-0.3,0.2
			c-0.2,0.6-0.4,1.2-0.5,1.8c0,0.1-0.1,0.2-0.3,0.2c-0.2,0-0.4,0-0.6,0c-0.6,0-0.6,0-0.7,0.5c0,0,0,0,0,0.1
			C82.3,102.1,82.8,102.1,83.2,102.1z M39.2,103.7c0.2-0.3,0.3-0.6,0.5-0.9c0.1-0.3,0.3-0.5,0.6-0.6c0.3-0.1,0.6,0.1,0.6,0.4
			c0,0.4-0.2,0.8-0.3,1.2c-0.4,0.9-0.7,1.9-1,2.8c-0.2,0.6,0,1,0.5,1.4c0.4,0.3,0.9,0.3,1.4,0.3c0.6-0.1,1.2-0.3,1.6-0.9
			c0.2-0.3,0.4-0.7,0.6-1.1c0.1-0.1,0.1-0.2-0.1-0.3c-0.1,0-0.3-0.2-0.4,0.1c-0.1,0.3-0.3,0.5-0.4,0.8c-0.1,0.2-0.3,0.4-0.6,0.5
			c-0.2,0.1-0.6-0.1-0.5-0.3c0-0.2,0-0.5,0.1-0.7c0.4-1.1,0.8-2.2,1.2-3.3c0.2-0.7,0.1-1.2-0.6-1.6c-0.8-0.5-2-0.3-2.7,0.4
			c-0.5,0.4-0.6,1-0.9,1.6C38.9,103.6,39,103.7,39.2,103.7z M53.8,103.7c0.2-0.3,0.3-0.6,0.5-0.9c0.1-0.3,0.3-0.5,0.6-0.6
			c0.2-0.1,0.4-0.1,0.5,0.1c0.1,0.1,0.2,0.3,0.1,0.5c-0.1,0.4-0.2,0.7-0.3,1.1c-0.3,0.9-0.7,1.8-1,2.8c-0.2,0.6,0,1.1,0.5,1.4
			c0.8,0.5,1.7,0.4,2.5-0.1c0.6-0.4,0.9-1,1.1-1.6c0.1-0.1,0-0.2-0.1-0.2c-0.1,0-0.3-0.2-0.4,0.1c-0.1,0.2-0.2,0.5-0.3,0.7
			c-0.2,0.3-0.4,0.6-0.7,0.6c-0.3,0.1-0.6-0.1-0.6-0.4c0-0.2,0-0.4,0.1-0.6c0.4-1.1,0.8-2.2,1.2-3.3c0.3-0.8,0.1-1.3-0.7-1.7
			c-0.3-0.2-0.7-0.2-1-0.2c-0.7,0.1-1.3,0.3-1.7,0.9c-0.2,0.3-0.3,0.6-0.5,0.9C53.3,103.6,53.3,103.6,53.8,103.7z"/>
		<path d="M25.8,103.4c0.2-0.4,0.4-0.8,0.6-1.1c0.6-0.9,1.5-1.2,2.5-0.9c0.6,0.1,1,0.5,1,1.1c0,0,0,0,0.1,0.1
			c0.2-0.2,0.3-0.4,0.5-0.6c0.4-0.5,1-0.7,1.6-0.7c0.8,0,1.4,0.6,1.5,1.3c0.3-0.3,0.5-0.6,0.8-0.8c1-0.9,2.6-0.5,3,0.8
			c0.1,0.4,0,0.7-0.1,1.1c-0.3,1-0.7,1.9-1.1,2.9c-0.1,0.1-0.1,0.3-0.1,0.5c0,0.3,0.3,0.5,0.6,0.4c0.3-0.1,0.5-0.3,0.6-0.5
			c0.1-0.3,0.3-0.5,0.4-0.8c0.1-0.3,0.3-0.1,0.4,0c0.2,0,0.1,0.1,0.1,0.3c-0.2,0.5-0.5,1-0.9,1.4c-0.3,0.3-0.7,0.5-1.2,0.5
			c-0.6,0.1-1.1,0-1.6-0.3c-0.5-0.4-0.6-0.8-0.4-1.5c0.3-0.8,0.6-1.5,0.8-2.3c0.2-0.5,0.4-0.9,0.4-1.5c0-0.4-0.2-0.5-0.6-0.4
			c-0.7,0.3-1.1,0.8-1.4,1.5c-0.3,0.8-0.5,1.6-0.8,2.4c-0.2,0.6-0.4,1.1-0.6,1.7c0,0.1-0.1,0.2-0.2,0.2c-0.7,0-1.3,0-2,0
			c0.1-0.4,0.2-0.8,0.4-1.1c0.4-1.3,0.8-2.5,1.2-3.8c0.1-0.2,0.1-0.5,0-0.7c0-0.2-0.3-0.3-0.6-0.2c-0.5,0.1-0.7,0.5-1,0.9
			c-0.4,0.6-0.6,1.2-0.8,1.9c-0.3,1-0.6,1.9-1,2.9c0,0.1-0.1,0.2-0.2,0.2c-0.7,0-1.3,0-2,0c0.2-0.5,0.3-0.9,0.5-1.4
			c0.4-1.2,0.8-2.4,1.2-3.5c0.1-0.2,0.1-0.5,0.1-0.7c0-0.2-0.2-0.3-0.4-0.2c-0.5,0.1-0.7,0.5-0.9,0.9c-0.1,0.2-0.2,0.3-0.2,0.5
			c-0.1,0.2-0.1,0.2-0.3,0.1c-0.1,0-0.2,0-0.2-0.1C25.8,103.6,25.8,103.5,25.8,103.4z"/>
		<path d="M57.1,111.5c-0.1-0.1,0-0.2,0-0.3c0-0.1,0.1-0.1,0.2-0.1c0.7,0.1,1.1-0.4,1.3-1c0.3-1,0.6-2.1,1-3.1
			c0.3-1.1,0.7-2.1,1-3.2c0.1-0.3,0.2-0.6,0.3-1c0.1-0.2,0.1-0.4-0.1-0.6c-0.2-0.2-0.5,0-0.6,0.1c-0.3,0.3-0.5,0.6-0.7,0.9
			c-0.1,0.1-0.1,0.2-0.2,0.3c-0.1,0.2-0.2,0.2-0.3,0.1c-0.2-0.1-0.2-0.1-0.1-0.3c0.3-0.6,0.5-1.2,1-1.6c0.3-0.3,0.7-0.4,1.1-0.4
			c0.3,0,0.6,0,0.9,0.1c0.5,0.1,0.8,0.4,0.9,0.9c0,0.1,0.1,0.2,0.1,0.3c0.4-0.4,0.7-0.8,1.2-1.1c1.1-0.5,2.5,0.1,2.7,1.4
			c0.3,1.4-0.1,2.6-0.9,3.7c-0.4,0.7-1,1.2-1.8,1.5c-0.6,0.2-1.2,0.4-1.9,0.2c-0.4-0.1-0.5-0.2-0.9-0.8c-0.2,0.5-0.3,1-0.4,1.4
			c-0.1,0.4-0.2,0.9-0.4,1.3c-0.1,0.5,0,0.7,0.5,0.8c0.3,0,0.6,0.1,0.9,0.1c-0.1,0.2-0.1,0.3-0.2,0.5
			C60.3,111.5,58.7,111.5,57.1,111.5z M64.8,103.3c0-0.2-0.1-0.5-0.2-0.8c-0.1-0.2-0.3-0.3-0.5-0.3c-0.2,0.1-0.5,0.2-0.7,0.4
			c-0.4,0.3-0.7,0.8-0.8,1.4c-0.2,0.9-0.5,1.7-0.8,2.6c-0.1,0.4,0.3,1,0.7,1.1c0.5,0.1,0.9-0.3,1.1-0.6
			C64.3,105.9,64.7,104.8,64.8,103.3z"/>
		<path d="M57.6,97.5c0.7,0.2,1,0.7,0.9,1.3c-0.1,0.7-0.5,1.2-1.3,1.3c-0.5,0.1-0.9-0.2-1.1-0.9c-0.2-0.7,0.3-1.7,1.1-1.7
			c0,0,0,0,0.1,0C57.4,97.5,57.5,97.5,57.6,97.5z"/>
		<path d="M43,97.5c0.7,0.2,1,0.7,0.9,1.3c-0.1,0.7-0.6,1.3-1.3,1.3c-0.7,0.1-1.3-0.7-1.1-1.4c0.1-0.7,0.5-1.1,1.2-1.2
			C42.8,97.5,42.9,97.5,43,97.5z"/>
		<path d="M44.5,108.1c0.1-0.3,0.2-0.6,0.3-0.9c0.4-1.3,0.9-2.5,1.3-3.8c0.1-0.2,0.1-0.5,0.2-0.7c0-0.2,0-0.4-0.2-0.5
			c-0.2-0.1-0.4,0-0.6,0.1c-0.3,0.3-0.6,0.6-0.7,1c-0.2,0.4-0.1,0.4-0.6,0.2c0.1-0.2,0.1-0.4,0.2-0.6c0.2-0.5,0.4-0.9,0.8-1.2
			c0.6-0.5,1.3-0.6,2-0.4c0.5,0.1,0.8,0.4,1,0.9c0,0.1,0,0.2,0.1,0.3c0.3-0.3,0.5-0.6,0.8-0.8c0.7-0.5,1.4-0.7,2.2-0.2
			c0.6,0.4,1,1.1,0.8,1.9c-0.3,1-0.7,2-1,2.9c-0.1,0.2-0.1,0.4-0.2,0.6c-0.1,0.4,0.3,0.6,0.6,0.5c0.4-0.1,0.5-0.4,0.7-0.7
			c0.1-0.2,0.2-0.4,0.3-0.6c0.1-0.3,0.3-0.1,0.4-0.1c0.2,0,0.1,0.2,0.1,0.3c-0.2,0.3-0.3,0.7-0.5,1c-0.4,0.6-0.9,0.8-1.6,0.9
			c-0.6,0.1-1.2,0-1.7-0.4c-0.3-0.3-0.5-0.7-0.4-1.1c0.2-0.7,0.5-1.4,0.7-2c0.2-0.6,0.4-1.1,0.6-1.7c0.1-0.2,0.1-0.5-0.1-0.7
			c-0.2-0.2-0.4-0.1-0.7,0c-0.4,0.1-0.6,0.4-0.8,0.7c-0.5,0.6-0.7,1.3-0.9,2c-0.3,0.9-0.6,1.9-1,2.8c0,0.1-0.1,0.1-0.2,0.1
			C45.9,108.1,45.2,108.1,44.5,108.1z"/>
		<path d="M70.3,108.3c-1.1-0.1-1.9-0.5-2.4-1.4c-0.3-0.5-0.3-1.1-0.2-1.7c0.1-0.8,0.4-1.5,0.9-2.2c0.6-0.8,1.3-1.3,2.3-1.5
			c0.4-0.1,0.9-0.2,1.3-0.2c1.2,0,2.3,0.8,2.5,2c0.1,0.4,0,0.8,0,1.2c-0.1,0.7-0.3,1.4-0.8,2c-0.6,0.8-1.3,1.3-2.3,1.5
			C71.1,108.2,70.7,108.2,70.3,108.3z M72.5,103.1c0-0.2-0.1-0.5-0.1-0.9c0-0.2-0.2-0.4-0.5-0.4c-0.5,0-0.8,0.3-1,0.6
			c-0.9,1.3-1.2,2.8-1.1,4.4c0,0.7,0.5,0.9,1.1,0.6c0.3-0.2,0.6-0.5,0.7-0.8C72.2,105.7,72.5,104.5,72.5,103.1z"/>
		<path d="M80.1,102.1c-0.4-0.3-0.8-0.3-1.2-0.2c-0.6,0.1-0.9,0.8-0.7,1.3c0.1,0.3,0.3,0.4,0.6,0.6c0.4,0.3,0.9,0.5,1.4,0.8
			c0.9,0.6,1,1.9,0.2,2.7c-0.5,0.5-1.1,0.8-1.8,0.9c-0.9,0.1-1.8,0.1-2.6-0.4c-0.8-0.4-1.1-1.4-0.7-2.1c0.4-0.6,1.3-0.7,1.8-0.2
			c0.3,0.3,0.3,0.6,0.1,1c-0.1,0.3-0.4,0.4-0.7,0.5c-0.1,0-0.2,0-0.2,0.1c0,0.1,0.1,0.2,0.1,0.2c0.4,0.4,0.9,0.4,1.4,0.3
			c0.4-0.1,0.7-0.2,0.9-0.5c0.2-0.3,0.2-0.8-0.1-1.1c-0.2-0.2-0.4-0.3-0.5-0.4c-0.4-0.3-0.9-0.5-1.3-0.8c-0.8-0.6-1-1.8-0.2-2.6
			c0.7-0.7,1.4-1,2.4-1c0.6,0,1.2,0.1,1.7,0.4c0.7,0.4,0.9,1.2,0.5,1.8c-0.3,0.4-0.8,0.5-1.2,0.4c-0.2,0-0.3-0.1-0.4-0.2
			c-0.5-0.4-0.4-1,0.2-1.4C79.8,102.3,79.9,102.2,80.1,102.1z"/>
		<path d="M83.2,102.1c-0.4,0-0.9,0-1.3,0c0,0,0-0.1,0-0.1c0.2-0.5,0.2-0.5,0.7-0.5c0.2,0,0.4,0,0.6,0c0.1,0,0.2-0.1,0.3-0.2
			c0.2-0.6,0.4-1.2,0.5-1.8c0.1-0.2,0.1-0.2,0.3-0.2c0.5,0,1,0,1.5,0c0.1,0,0.2,0,0.3,0c-0.2,0.7-0.4,1.4-0.7,2.2c0.6,0,1.2,0,1.8,0
			c0,0.2-0.1,0.3-0.1,0.4c0,0.1-0.1,0.2-0.3,0.2c-0.5,0-1.1,0-1.6,0c-0.4,1.2-0.7,2.4-1.1,3.6c-0.1,0.3-0.2,0.6-0.2,0.9
			c0,0.2-0.1,0.3,0,0.5c0,0.2,0.4,0.4,0.6,0.3c0.4-0.1,0.7-0.4,0.9-0.7c0.1-0.2,0.2-0.3,0.3-0.5c0.1-0.3,0.2-0.3,0.5-0.2
			c0,0,0.1,0,0.2,0.1c-0.2,0.4-0.4,0.9-0.7,1.2c-0.3,0.5-0.8,0.7-1.4,0.9c-0.7,0.1-1.3,0.1-1.9-0.3c-0.4-0.3-0.6-0.7-0.5-1.2
			c0.2-0.9,0.5-1.7,0.7-2.6c0.2-0.6,0.4-1.2,0.6-1.8C83.2,102.2,83.2,102.2,83.2,102.1z"/>
		<path d="M39.2,103.7c-0.2-0.1-0.3-0.1-0.5-0.2c0.3-0.6,0.4-1.2,0.9-1.6c0.7-0.6,1.9-0.8,2.7-0.4c0.7,0.4,0.8,0.9,0.6,1.6
			c-0.4,1.1-0.8,2.2-1.2,3.3c-0.1,0.2-0.1,0.5-0.1,0.7c0,0.2,0.3,0.4,0.5,0.3c0.3-0.1,0.5-0.3,0.6-0.5c0.2-0.3,0.3-0.5,0.4-0.8
			c0.1-0.3,0.3-0.1,0.4-0.1c0.2,0,0.2,0.1,0.1,0.3c-0.2,0.4-0.4,0.7-0.6,1.1c-0.4,0.6-0.9,0.8-1.6,0.9c-0.5,0.1-1,0-1.4-0.3
			c-0.6-0.3-0.7-0.8-0.5-1.4c0.3-0.9,0.7-1.9,1-2.8c0.2-0.4,0.3-0.8,0.3-1.2c0-0.3-0.3-0.5-0.6-0.4c-0.3,0.1-0.5,0.4-0.6,0.6
			C39.5,103.1,39.3,103.4,39.2,103.7z"/>
		<path d="M53.8,103.7c-0.5-0.2-0.5-0.2-0.3-0.6c0.1-0.3,0.3-0.6,0.5-0.9c0.4-0.6,1-0.8,1.7-0.9c0.4,0,0.7,0,1,0.2
			c0.8,0.4,1,0.9,0.7,1.7c-0.4,1.1-0.8,2.2-1.2,3.3c-0.1,0.2-0.1,0.4-0.1,0.6c0,0.3,0.3,0.5,0.6,0.4c0.4-0.1,0.5-0.4,0.7-0.6
			c0.1-0.2,0.2-0.4,0.3-0.7c0.1-0.2,0.3-0.1,0.4-0.1c0.1,0,0.2,0.1,0.1,0.2c-0.3,0.6-0.5,1.2-1.1,1.6c-0.8,0.5-1.6,0.5-2.5,0.1
			c-0.6-0.3-0.7-0.8-0.5-1.4c0.3-0.9,0.7-1.9,1-2.8c0.1-0.4,0.2-0.7,0.3-1.1c0-0.1,0-0.4-0.1-0.5c-0.1-0.2-0.3-0.1-0.5-0.1
			c-0.3,0.1-0.4,0.4-0.6,0.6C54.1,103.1,53.9,103.4,53.8,103.7z"/>
		<path class="st12" d="M64.8,103.3c-0.1,1.4-0.4,2.6-1.2,3.6c-0.3,0.4-0.6,0.7-1.1,0.6c-0.5-0.1-0.8-0.6-0.7-1.1
			c0.3-0.9,0.6-1.7,0.8-2.6c0.2-0.5,0.4-1,0.8-1.4c0.2-0.2,0.4-0.3,0.7-0.4c0.2-0.1,0.4,0,0.5,0.3C64.7,102.8,64.7,103.2,64.8,103.3
			z"/>
		<path class="st12" d="M72.5,103.1c-0.1,1.4-0.3,2.5-0.9,3.6c-0.2,0.3-0.4,0.6-0.7,0.8c-0.6,0.3-1.1,0.1-1.1-0.6
			c-0.1-1.6,0.2-3.1,1.1-4.4c0.2-0.4,0.6-0.6,1-0.6c0.2,0,0.4,0.1,0.5,0.4C72.4,102.6,72.5,102.9,72.5,103.1z"/>
	</g>
</g>
<g id="Layer_5" class="st2">
	<line class="st21" x1="19.9" y1="108.5" x2="91.6" y2="108.5"/>
	<line class="st21" x1="18.8" y1="102.8" x2="90.5" y2="102.8"/>
	<line class="st21" x1="21.1" y1="96.8" x2="92.9" y2="96.8"/>
</g>
<g id="Layer_6" class="st2">
	<line class="st21" x1="51.8" y1="72.9" x2="114.1" y2="72.9"/>
	<line class="st21" x1="51.1" y1="78.8" x2="113.5" y2="78.8"/>
	<line class="st21" x1="51.8" y1="83.6" x2="114.1" y2="83.6"/>
</g>
<path class="st22" d="M103.4,44.1H80.1c-1.7,0-3.1-1.4-3.1-3.1v0c0-1.7,1.4-3.1,3.1-3.1h23.3c1.7,0,3.1,1.4,3.1,3.1v0
	C106.5,42.7,105.1,44.1,103.4,44.1z"/>
</svg>
