<svg id="Layer_1" data-name="Layer 1" xmlns="http://www.w3.org/2000/svg" xmlns:xlink="http://www.w3.org/1999/xlink" viewBox="0 0 132.49 141.12"><defs><style>.cls-1{fill:url(#linear-gradient);}.cls-2{fill:url(#radial-gradient);}.cls-3,.cls-4,.cls-5{fill:#fff;}.cls-4,.cls-5{stroke:#fff;stroke-miterlimit:10;}.cls-5{stroke-width:0.5px;}.cls-6{fill:#6d6d6d;}</style><linearGradient id="linear-gradient" x1="54.43" y1="46.39" x2="98.32" y2="114.65" gradientTransform="matrix(1, 0, 0, -1, -0.42, 107.55)" gradientUnits="userSpaceOnUse"><stop offset="0.01" stop-color="#e1606e"/><stop offset="0.11" stop-color="#eb7a81"/><stop offset="0.24" stop-color="#f49595"/><stop offset="0.32" stop-color="#f89f9c"/><stop offset="0.63" stop-color="#f3a993"/><stop offset="0.74" stop-color="#f0b1ad"/><stop offset="0.83" stop-color="#efb6bb"/><stop offset="1" stop-color="#efb28b"/></linearGradient><radialGradient id="radial-gradient" cx="-785.07" cy="177.45" r="88.03" gradientTransform="matrix(0.05, -1, -1.2, -0.06, 321.25, -774.36)" gradientUnits="userSpaceOnUse"><stop offset="0" stop-color="#aaa"/><stop offset="0.21" stop-color="#a0a0a0"/><stop offset="0.52" stop-color="#969696"/><stop offset="0.79" stop-color="#8c8c8c"/><stop offset="0.96" stop-color="#8c8c8c"/><stop offset="0.99" stop-color="#8c8c8c"/></radialGradient></defs><title>MinipostLogo2021-Q1-smaller</title><g id="Layer_12_copy" data-name="Layer 12 copy"><rect class="cls-1" x="23.58" width="84.91" height="84.91" rx="17.29" ry="17.29"/><rect class="cls-2" x="23.58" width="84.91" height="84.91" rx="17.29" ry="17.29"/></g><g id="minipostmerge_copy" data-name="minipostmerge copy"><path class="cls-3" d="M88.28,65H40a6.87,6.87,0,0,1-5.42-2.82c-3.15-3.88-3.26-10.27-2-14.56,1.14-4,3.49-6.78,6.68-7.87a6.91,6.91,0,0,1,2.29-.36h0.59v-7a7.23,7.23,0,0,1,2.07-5.11l6.21-6.35a7.31,7.31,0,0,1,5.19-2.18H93.14A7.28,7.28,0,0,1,100.4,26V45.59c0,6.06-1.13,10.86-3.37,14.24A10.67,10.67,0,0,1,88.28,65ZM41.35,60.22l48.39-.16c1.78,0,5.72-5.6,5.72-14.3V23.87L54.58,23l-7.39,6.56-0.32,11.5c0,2.7.3,3.19-2.4,3.19L40.84,44c-0.71.32-5.06,3.12-5.47,4.58-0.88,3,2.27,11.27,3.27,12.51C38.64,61.13,41.34,60.21,41.35,60.22Z" transform="translate(-0.42)"/><path class="cls-4" d="M93.1,23.64A2.33,2.33,0,0,1,95.44,26h0V45.59C95.44,57,91,60.08,88.28,60.08H40a2.19,2.19,0,0,1-1.59-1c-2.79-3.44-2.11-13.1,2.4-14.66a2.08,2.08,0,0,1,.68-0.11h3.19A2.33,2.33,0,0,0,47.06,42h0V32.32a2.33,2.33,0,0,1,.64-1.63l6.21-6.35a2.33,2.33,0,0,1,1.67-.7H93.09m0-2.38H55.59a4.73,4.73,0,0,0-3.37,1.42L46,29a4.68,4.68,0,0,0-1.34,3.29V41.9H41.54a4.4,4.4,0,0,0-1.45.23c-2.34.8-4.12,3-5,6.16-1.09,3.79-.89,9.22,1.56,12.25a4.41,4.41,0,0,0,3.44,1.88H88.28a8.09,8.09,0,0,0,6.59-4c2-3,2.95-7.28,2.95-12.83V26a4.71,4.71,0,0,0-4.71-4.71h0Z" transform="translate(-0.42)"/><path class="cls-3" d="M88.28,61.11H40a3.26,3.26,0,0,1-2.4-1.39c-2-2.46-2.49-7.55-1.14-11.57,0.88-2.63,2.46-4.34,4.43-4.83H46V30.95l8.16-8.35H93.34a3.14,3.14,0,0,1,3.14,3.14h0V45.59C96.48,57,92.06,61.11,88.28,61.11ZM41.33,45.35c-1.62.47-2.47,2.35-2.84,3.44-1.12,3.32-.75,7.72.79,9.61a1.28,1.28,0,0,0,.79.64H88.28c2.27,0,6.12-2.83,6.12-13.45V25.74a1.05,1.05,0,0,0-1.05-1.05H55l-7,7.11V43.3H87.92v2.08H41.33v0Z" transform="translate(-0.42)"/><g id="Layer_3_copy_14" data-name="Layer 3 copy 14"><rect class="cls-3" x="84.43" y="52.34" width="2.08" height="4.68" transform="translate(29.33 139.48) rotate(-89.3)"/><path class="cls-3" d="M87.43,61.11c-3.35,0-6.18-5.2-6.18-8.46s1.88-9.37,6.24-9.37a4.31,4.31,0,0,1,3.78,2c1.28,2,1.12,5.16-.43,8.45a3.41,3.41,0,0,1-2.77,2,2.67,2.67,0,0,1-2.46-1.21,4.27,4.27,0,0,1-.17-3.83H83.56a9.74,9.74,0,0,0-.2,1.92c0,2.43,2.29,6.39,4.1,6.39v2.08h0ZM84.19,48.6h3.37l0.64,1-0.28.56c-0.87,1.66-.86,2.74-0.57,3.19a0.6,0.6,0,0,0,.57.27,1.33,1.33,0,0,0,1-.84c1.22-2.59,1.43-5.07.55-6.45a2.24,2.24,0,0,0-2-1C86,45.35,84.91,46.87,84.19,48.6Z" transform="translate(-0.42)"/></g><g id="Layer_5_copy_13" data-name="Layer 5 copy 13"><path class="cls-5" d="M79.18,56.46H40.61a0.45,0.45,0,1,1,0-.89H79.18A0.45,0.45,0,0,1,79.18,56.46Z" transform="translate(-0.42)"/><path class="cls-5" d="M78.58,52.62H40a0.45,0.45,0,1,1,0-.89H78.58A0.45,0.45,0,0,1,78.58,52.62Z" transform="translate(-0.42)"/><path class="cls-5" d="M90.17,40.16H51.59a0.45,0.45,0,1,1,0-.89H90.17A0.45,0.45,0,0,1,90.17,40.16Z" transform="translate(-0.42)"/><path class="cls-5" d="M90.17,36H51.59a0.45,0.45,0,1,1,0-.89H90.17A0.45,0.45,0,0,1,90.17,36Z" transform="translate(-0.42)"/></g><path class="cls-5" d="M88.35,32.38H74.5a2.27,2.27,0,0,1,0-4.54H88.35a2.27,2.27,0,0,1,0,4.54h0ZM74.49,28.74a1.37,1.37,0,1,0,0,2.75H88.35a1.37,1.37,0,1,0,0-2.75H74.49Z" transform="translate(-0.42)"/></g><path class="cls-6" d="M0.42,123.76c0.41-.79.76-1.62,1.24-2.37a4.77,4.77,0,0,1,5.42-2,2.54,2.54,0,0,1,2.24,2.42,0.48,0.48,0,0,0,.13.15c0.38-.43.75-0.86,1.14-1.27a4.47,4.47,0,0,1,3.48-1.44,3.35,3.35,0,0,1,3.28,2.85c0.58-.59,1.15-1.27,1.82-1.83a3.94,3.94,0,0,1,6.44,1.65,3.71,3.71,0,0,1-.19,2.31c-0.75,2.07-1.52,4.13-2.27,6.2a3.63,3.63,0,0,0-.23,1,0.94,0.94,0,0,0,1.29,1,2.28,2.28,0,0,0,1.37-1.15q0.48-.84.91-1.71c0.27-.54.6-0.15,0.9-0.09s0.21,0.32.11,0.54a8.25,8.25,0,0,1-1.92,3.09,4.51,4.51,0,0,1-2.54,1.1,4.75,4.75,0,0,1-3.52-.73,2.52,2.52,0,0,1-.85-3.19c0.55-1.64,1.19-3.24,1.77-4.87a9.15,9.15,0,0,0,.93-3.21,0.87,0.87,0,0,0-1.3-.89,4.85,4.85,0,0,0-2.93,3.31c-0.56,1.72-1.13,3.44-1.69,5.16-0.4,1.22-.79,2.45-1.2,3.67a0.55,0.55,0,0,1-.33.35H9.57c0.27-.84.52-1.63,0.78-2.41,0.89-2.7,1.81-5.39,2.67-8.1a4.31,4.31,0,0,0,.09-1.52c0-.48-0.59-0.67-1.19-0.48a4.73,4.73,0,0,0-2.23,1.85,13,13,0,0,0-1.78,4c-0.71,2.06-1.38,4.14-2.08,6.21a0.57,0.57,0,0,1-.33.36H1.17l1-3c0.93-2.57,1.81-5.05,2.63-7.57a4.23,4.23,0,0,0,.11-1.62A0.62,0.62,0,0,0,4,121a3.49,3.49,0,0,0-1.94,1.92,8.71,8.71,0,0,0-.5,1.06c-0.14.36-.32,0.48-0.69,0.28a1.88,1.88,0,0,0-.45-0.12v-0.39Z" transform="translate(-0.42)"/><path class="cls-6" d="M67.91,141.09a0.55,0.55,0,0,1,0-.75,0.53,0.53,0,0,1,.41-0.26,2.56,2.56,0,0,0,2.76-2.1c0.73-2.22,1.39-4.46,2.09-6.69l2.16-6.88c0.21-.68.39-1.37,0.56-2.05a1.1,1.1,0,0,0-.25-1.26,1,1,0,0,0-1.3.25,16.86,16.86,0,0,0-1.43,1.88,3,3,0,0,0-.33.74,0.46,0.46,0,0,1-.74.31c-0.37-.16-0.5-0.31-0.32-0.71a8.15,8.15,0,0,1,2.2-3.42,4,4,0,0,1,2.43-.91,8.71,8.71,0,0,1,2,.2A2.35,2.35,0,0,1,80,121.29a1.82,1.82,0,0,0,.19.57,10.38,10.38,0,0,1,2.68-2.29,4.24,4.24,0,0,1,5.92,3A10.24,10.24,0,0,1,87,130.49a8.29,8.29,0,0,1-3.81,3.16,5.85,5.85,0,0,1-4.08.36c-0.8-.25-1.08-0.48-1.88-1.69-0.33,1.06-.66,2.07-1,3.1s-0.53,1.89-.79,2.84a1.1,1.1,0,0,0,1.07,1.62l1.91,0.24-0.37,1H67.91v0Zm16.44-17.56a17.05,17.05,0,0,0-.44-1.76,0.82,0.82,0,0,0-1-.59l-0.1,0a6.07,6.07,0,0,0-1.41.78,5.27,5.27,0,0,0-1.83,2.93c-0.51,1.86-1.17,3.67-1.72,5.52a2,2,0,0,0,1.52,2.3,2.52,2.52,0,0,0,2.46-1.35,13.81,13.81,0,0,0,2.5-7.86h0Z" transform="translate(-0.42)"/><path class="cls-6" d="M68.91,111a2.49,2.49,0,0,1,2,2.9h0a2.92,2.92,0,0,1-2.72,2.74,2.22,2.22,0,0,1-2.41-1.84c-0.44-1.55.73-3.61,2.36-3.72a0.31,0.31,0,0,0,.12-0.09h0.65Z" transform="translate(-0.42)"/><path class="cls-6" d="M37.46,111a2.55,2.55,0,0,1,2,2.81,3.11,3.11,0,0,1-2.75,2.85,2.52,2.52,0,0,1-2.47-3A3.11,3.11,0,0,1,36.78,111H37.5Z" transform="translate(-0.42)"/><path class="cls-6" d="M40.69,133.76c0.23-.7.43-1.33,0.64-1.95,0.93-2.72,1.87-5.44,2.78-8.17a8.53,8.53,0,0,0,.35-1.58,0.82,0.82,0,0,0-.38-1,1.2,1.2,0,0,0-1.27.31,5.66,5.66,0,0,0-1.59,2.24c-0.42.93-.25,0.94-1.38,0.48,0.16-.41.31-0.83,0.49-1.24a6.66,6.66,0,0,1,1.83-2.62,4.91,4.91,0,0,1,4.34-.85,2.65,2.65,0,0,1,2.13,1.84,6,6,0,0,1,.14.75,16.25,16.25,0,0,1,1.84-1.82,4.29,4.29,0,0,1,4.79-.49,3.35,3.35,0,0,1,1.63,4c-0.72,2.12-1.51,4.21-2.26,6.31a6.39,6.39,0,0,0-.34,1.27,0.94,0.94,0,0,0,1.37,1,3,3,0,0,0,1.53-1.58,10.78,10.78,0,0,0,.61-1.23c0.23-.54.59-0.22,0.89-0.14s0.25,0.35.13,0.6c-0.37.72-.68,1.49-1.12,2.17a4.4,4.4,0,0,1-3.35,2,4.8,4.8,0,0,1-3.61-.82,2.33,2.33,0,0,1-.9-2.44c0.46-1.47,1-2.92,1.49-4.37,0.43-1.23.88-2.45,1.29-3.69a1.34,1.34,0,0,0-.18-1.45,1.21,1.21,0,0,0-1.43,0,4.7,4.7,0,0,0-1.82,1.54,12.64,12.64,0,0,0-2,4.41c-0.7,2-1.37,4.08-2.07,6.11a0.52,0.52,0,0,1-.36.3C43.56,133.77,42.19,133.76,40.69,133.76Z" transform="translate(-0.42)"/><path class="cls-6" d="M96.21,134.29A5.51,5.51,0,0,1,91,131.15a6.06,6.06,0,0,1-.45-3.59,9.78,9.78,0,0,1,1.89-4.65,8.75,8.75,0,0,1,4.87-3.27,13.35,13.35,0,0,1,2.76-.41,5.3,5.3,0,0,1,5.42,4.31,10.53,10.53,0,0,1,0,2.6,8.63,8.63,0,0,1-1.66,4.32A8.51,8.51,0,0,1,99,133.75,26.6,26.6,0,0,1,96.21,134.29ZM101,123.15c-0.06-.43-0.13-1.16-0.26-1.88a0.91,0.91,0,0,0-1-.79,2.54,2.54,0,0,0-2.21,1.34,15.7,15.7,0,0,0-2.44,9.53c0.05,1.53,1.09,2,2.45,1.32a4,4,0,0,0,1.58-1.76A16.76,16.76,0,0,0,101,123.15Z" transform="translate(-0.42)"/><path class="cls-6" d="M117.35,120.94a3.13,3.13,0,0,0-2.6-.38,2.14,2.14,0,0,0-1.55,2.84,2.7,2.7,0,0,0,1.26,1.23c1,0.6,2,1.12,2.91,1.77a3.72,3.72,0,0,1,.5,5.74,6.93,6.93,0,0,1-4,1.91,8.83,8.83,0,0,1-5.67-.77,3.22,3.22,0,0,1-1.63-4.25q0.07-.15.15-0.29a2.61,2.61,0,0,1,3.94-.44,2,2,0,0,1-1.24,3.2,4.6,4.6,0,0,0-.52.15,2.11,2.11,0,0,0,.29.5,3.34,3.34,0,0,0,3,.74,2.84,2.84,0,0,0,2-1.12,1.8,1.8,0,0,0-.12-2.29,6.92,6.92,0,0,0-1.18-.89c-0.91-.59-1.9-1.08-2.76-1.73a3.67,3.67,0,0,1-.39-5.53,7,7,0,0,1,5.08-2.12,6.84,6.84,0,0,1,3.76.92,2.73,2.73,0,0,1,1.11,3.7l-0.11.18a2.41,2.41,0,0,1-2.66.93,2.3,2.3,0,0,1-1-.42c-1-.81-0.85-2.14.33-3A7.73,7.73,0,0,0,117.35,120.94Z" transform="translate(-0.42)"/><path class="cls-6" d="M124.1,121h-2.84a0.66,0.66,0,0,1,0-.19c0.38-1.16.38-1.16,1.61-1.16h1.34a0.48,0.48,0,0,0,.54-0.41h0c0.36-1.3.77-2.6,1.12-3.9a0.61,0.61,0,0,1,.68-0.54h3.29a3.65,3.65,0,0,1,.59.1L129,119.59h3.91c-0.09.35-.16,0.65-0.24,0.94a0.51,0.51,0,0,1-.59.42h-3.49c-0.78,2.6-1.55,5.18-2.31,7.76-0.19.63-.37,1.27-0.52,1.91a3.68,3.68,0,0,0-.09,1.06,1.1,1.1,0,0,0,1.39.66,3.2,3.2,0,0,0,1.86-1.57,9.35,9.35,0,0,0,.58-1.13c0.3-.65.39-0.69,1-0.37l0.34,0.2c-0.48.91-.91,1.84-1.45,2.69a4.37,4.37,0,0,1-3,1.85,5.13,5.13,0,0,1-4.12-.65,2.37,2.37,0,0,1-1-2.63c0.51-1.84,1-3.68,1.59-5.51,0.39-1.33.82-2.65,1.22-4A1.19,1.19,0,0,0,124.1,121Z" transform="translate(-0.42)"/><path class="cls-6" d="M29.17,124.37l-1-.39a10.09,10.09,0,0,1,2-3.47,5.24,5.24,0,0,1,5.76-.78,2.46,2.46,0,0,1,1.36,3.2l-0.1.22c-0.81,2.39-1.77,4.72-2.63,7.1a5.09,5.09,0,0,0-.23,1.54,0.89,0.89,0,0,0,1.06.69l0.12,0a2.25,2.25,0,0,0,1.36-1.08,14.21,14.21,0,0,0,.94-1.75c0.24-.59.57-0.2,0.86-0.15s0.32,0.32.19,0.58c-0.42.78-.77,1.59-1.26,2.32a4.35,4.35,0,0,1-3.4,1.79,4.88,4.88,0,0,1-3.1-.6,2.3,2.3,0,0,1-1.12-3c0.65-2,1.5-4,2.26-6a6.63,6.63,0,0,0,.66-2.65,0.91,0.91,0,0,0-1.24-.86,2.33,2.33,0,0,0-1.39,1.35C29.85,123,29.52,123.69,29.17,124.37Z" transform="translate(-0.42)"/><path class="cls-6" d="M60.66,124.36C59.6,124,59.59,124,60,123.07a15.1,15.1,0,0,1,1.06-2,4.54,4.54,0,0,1,3.68-1.88,4.29,4.29,0,0,1,2.25.34c1.72,0.84,2.13,1.95,1.57,3.58-0.81,2.37-1.76,4.69-2.62,7a4.45,4.45,0,0,0-.25,1.29,0.89,0.89,0,0,0,1.23.89,2.59,2.59,0,0,0,1.53-1.4,14.5,14.5,0,0,0,.74-1.45c0.23-.53.56-0.18,0.84-0.12s0.35,0.21.22,0.52a6.65,6.65,0,0,1-2.38,3.56,5.12,5.12,0,0,1-5.35.16,2.26,2.26,0,0,1-1.14-3h0c0.66-2,1.51-4,2.24-6a15.18,15.18,0,0,0,.68-2.34,1.41,1.41,0,0,0-.29-1,0.94,0.94,0,0,0-1.14-.13,2.65,2.65,0,0,0-1.25,1.36C61.29,123.07,61,123.71,60.66,124.36Z" transform="translate(-0.42)"/></svg>