<?xml version="1.0" encoding="utf-8"?>
<!-- Generator: Adobe Illustrator 19.2.1, SVG Export Plug-In . SVG Version: 6.00 Build 0)  -->
<svg version="1.1" id="Layer_1" xmlns="http://www.w3.org/2000/svg" xmlns:xlink="http://www.w3.org/1999/xlink" x="0px" y="0px"
	 viewBox="0 0 1051.1 173.1" style="enable-background:new 0 0 1051.1 173.1;" xml:space="preserve">
<title>minireel-dot-com</title>
<path d="M1051.1,165.8c-2.1,2.7-4.9,3.5-8.3,3.5c-18.1-0.1-36.2,0-54.2-0.2c-2.5,0-5-0.8-7-2.4c-2.9-2.7-1.3-7.8,2.7-9
	c2.2-0.5,4.5-0.7,6.8-0.6c8.9-0.3,12.3-3.6,12.3-12.5c0-29.1,0-58.1,0-87.2c0-9.8,0-19.7,0-29.5c0-8.7-2.5-11.3-11.3-11.6
	c-2-0.1-4.1,0-6.1-0.1c-3.8-0.3-5.8-2.5-5.8-6.2s2-6.2,5.8-6.3c12.4-0.2,24.9-0.2,37.3,0c3.7,0,5.7,2.4,6.1,6.1
	c0.1,1.3,0.1,2.6,0.1,3.9c0,42.8,0,85.6,0,128.4c0,1,0,2,0,3c0.2,8.9,3.3,12,12.1,12c3.7,0,7.2,0.1,9.6,3.5L1051.1,165.8
	L1051.1,165.8z"/>
<path d="M0,160.6c1.9-2.6,5.1-3.9,8.3-3.5c1.7,0.1,3.5,0.1,5.2,0c7-0.4,10.8-3.9,10.9-10.9c0.2-22.4,0.2-44.8,0-67.2
	c0-7.4-2.9-9.7-11.9-10.3c-2-0.1-4,0-6.1,0c-3.7,0-5.6-1.9-5.6-5.7s1.8-5.7,5.5-5.7c12.6,0,25.2,0,37.7,0c4.1,0,6,2.4,6.2,6.3
	c0.1,2.7,0,5.4,0,8.5c1.7-0.3,2.6-0.5,3.6-0.6c4.3-0.5,6.9,2.7,5.5,6.8c-0.4,1.1-0.9,2.1-1.6,3c-5.5,7.1-7.1,15.5-7.3,24
	c-0.3,13.9-0.1,27.8-0.1,41.6c0,8,2.3,10.2,10.4,10.3c5.2,0.1,7.8,2.1,7.8,6s-2.6,6.1-7.8,6.1c-17.5,0-35-0.1-52.5,0.1
	c-3.4,0-6.2-0.9-8.3-3.5L0,160.6L0,160.6z"/>
<path d="M285.8,0c1.6,0,3.2,0.3,4.7,0.9c1.9,0.7,3.8,1.6,5.6,2.5c8.6,5,8.9,17.4,3.9,23.5c-6.5,7.9-18.3,9.3-25.4,2.8
	c-10.4-9.6-7.2-24.3,6.2-28.7l0.5-0.2C282.8,0.2,284.3,0,285.8,0L285.8,0L285.8,0z"/>
<path d="M539.9,0c0.8,0,1.6,0.2,2.4,0.5c2.3,0.8,4.5,1.8,6.7,3c8.6,5,8.9,17.4,3.9,23.5c-6.5,7.9-18.3,9.3-25.4,2.8
	C517,20.2,520.2,5.4,533.6,1l0,0C535.7,0.4,537.8,0.1,539.9,0L539.9,0L539.9,0z"/>
<path d="M775.2,114.6c-13,0-26,0.1-39.1-0.1c-4-0.1-5.8,1.1-5.6,5.4c1.4,28.4,20.1,43.7,45.3,41.4c14.1-1.3,23.7-9.7,29.4-22.6
	c1.2-2.8,1.7-6.7,5.7-6.9c2.7-0.1,5.9,0.4,7.9,1.9c1.2,1,1.2,4.7,0.5,6.7c-4.2,11.6-12,20.3-22.8,26.2
	c-20.4,11.2-59.2,8.3-76.9-11.6c-8.3-9.3-13.5-19.9-14.6-32.1c-1.7-17.9,0.9-34.9,13.5-49c10.7-12.3,25.9-19.7,42.1-20.5
	c12.7-0.8,25.2,0.3,36.4,7.7c15.5,10.1,23.5,24.5,25.6,42.6c0.1,0.7,0.1,1.4,0.2,2.2c1,6.3-1.2,8.8-7.7,8.8
	C801.8,114.6,788.5,114.6,775.2,114.6z M764.4,101.8c9.7,0,19.4-0.1,29.1,0c2.8,0,4.5-0.8,4-3.9c-0.6-3.4-0.9-6.9-1.7-10.2
	c-3.5-13.9-12.3-22.7-26.7-24c-12.6-1.1-23.5,3.8-30.3,14.9c-3.3,5.4-4.8,11.9-6.7,18c-1.3,4.1-0.3,5.1,4.2,5.1
	C745.6,101.8,755,101.8,764.4,101.8L764.4,101.8z"/>
<path d="M916,114.6c-13.2,0-26.3,0.1-39.5-0.1c-4-0.1-5.4,1.4-5.3,5.3c1.3,28.2,19.8,43.8,45.2,41.5c14.1-1.3,23.7-9.7,29.4-22.6
	c1.3-2.9,1.9-6.9,6-7.1c2.5-0.1,5.8,0.4,7.5,1.9c1.2,1.1,1.3,4.7,0.6,6.7c-3.7,10.4-11,19.3-20.5,24.9c-22,13.6-65.6,10.6-83.9-15.8
	c-8.8-12.7-11.3-26.7-10.2-41.6c1.3-17.9,9.2-32.3,23.7-42.9c9.4-6.9,20.5-10.9,32.1-11.6c16.1-1,31.3,1.6,43.7,13.1
	c10.9,10,16.9,22.5,18.4,37.1c0.1,0.7,0.1,1.4,0.2,2.2c1,6.3-1.1,8.9-7.6,8.9C942.6,114.6,929.3,114.6,916,114.6z M905.1,101.8
	c9.7,0,19.4-0.1,29.1,0c2.9,0,4.5-0.8,3.9-4c-0.6-3.4-0.9-6.9-1.7-10.2c-3.5-13.7-12.1-22.5-26.3-23.9c-12.7-1.2-23.6,3.5-30.4,14.5
	c-3.3,5.2-4.9,11.6-6.7,17.6c-1.6,5.4-0.9,5.9,4.8,5.9C886.9,101.8,896,101.8,905.1,101.8z"/>
<path d="M215.2,120.5c0,8.4-0.1,16.8,0,25.2c0.2,9,2.8,11.5,11.9,11.5c6.8,0,9.7,1.8,9.7,6s-2.9,6.1-9.6,6.1c-15.9,0-31.8,0-47.8,0
	c-2,0-4.4,0-5.8-1c-1.7-1.2-2.8-3.1-3-5.2c0-1.6,1.6-3.5,2.9-4.8c0.8-0.8,2.4-1,3.7-1c9.6,0.2,12.1-2.2,12-12.8
	c-0.1-16.2,0-32.4-0.1-48.6c0-3.3-0.4-6.6-1.1-9.9c-3.1-13.8-15.9-21.5-29.6-17.7c-3.5,1-6.7,2.8-10.1,3.7c-1.9,0.5-4.9,0.7-6-0.4
	c-2.2-2.1-1.8-5,0.5-7.3c4.9-5.1,11.3-8.8,18.2-10.4c16.3-3.8,31.6-2.3,44.3,10.1c6.3,6.2,8.7,14.4,9,22.9
	c0.5,11.2,0.1,22.5,0.1,33.8L215.2,120.5L215.2,120.5z"/>
<path d="M119.5,169.3c-8,0-15.9,0.2-23.9-0.1c-2.2-0.1-5.1-1-6.4-2.6c-3.1-3.5-0.3-9.3,4.8-9.2c11.2,0.3,12.7-2.8,12.8-15
	c0.1-15.3,0.1-30.7,0-46c0-3.3-0.4-6.6-1.1-9.9c-3.5-14.7-16.7-21.9-31.8-17.4c-1,0.3-1.9,0.7-2.9,1c-2.5,0.8-5.3,2.6-7.3-0.6
	c-1.6-2.6-0.2-7.7,2.9-9c6.1-2.7,12.4-5.9,18.9-7c12.2-2,24.4-0.8,34.4,7.7c3.3,2.9,5.8,6.8,8.8,10c1.1,1.3,2.7,2.2,4.4,2.5
	c5.2,0.5,7.7,4.2,4.9,8.6c-3.5,5.7-5.3,12.3-5.2,18.9c0,15.8,0.1,31.5,0.2,47.3c0,6.4,2.2,8.4,8.7,8.6s9.2,2,9.3,6s-2.9,6.1-9.6,6.1
	L119.5,169.3L119.5,169.3z"/>
<path d="M469.9,119.4c0,8.4,0,16.8,0,25.2c0,10.2,2.2,12.4,12.4,12.6c5,0.1,7.7,2.3,7.5,6.3c-0.3,3.8-2.5,5.8-6.3,5.8
	c-17.2,0-34.4,0.1-51.6,0c-4.4,0-7-2.6-6.9-6.1c-0.1-3.2,2.5-5.8,5.7-5.9c0.4,0,0.7,0,1.1,0.1c10.2,1.1,12.2-3.2,12.3-13.5
	c0.1-17.1-0.1-34.1-0.1-51.2c0-17.4-15.3-26.6-30.6-23.6c-2.8,0.7-5.5,1.6-8.3,2.6c-3,0.9-5.9,0.8-7.5-2.4s-0.4-6.1,2.6-7.3
	c7.3-2.9,14.7-6.1,22.3-7.8c9.5-2.1,19.3-1.6,28.1,3.5c11.1,6.4,16.9,16.6,18.3,28.9c1.3,10.9,1.1,21.9,1.5,32.8L469.9,119.4z"/>
<path d="M625.5,169.3c-9.8,0-19.7,0-29.5,0c-5.3,0-7.8-2-7.9-5.9s2.5-6.1,7.6-6.2c13.7-0.2,16.1-2.9,15.7-16.9
	c-0.3-13.4-0.5-26.9-0.7-40.3c-0.1-6.5,0-13,0-19.5c-0.1-7.8-2.5-10.3-10.3-10.9c-2.2-0.2-4.3,0-6.5-0.1c-4.1-0.3-6.6-2.6-6.6-6.1
	c0-3.6,2.7-6.1,6.9-6.1c11.7,0,23.4,0,35.2,0c5.1,0,7.1,2,7.2,7.1c0.1,4.4-0.8,8.9,4.5,11.6c1.1,0.5,1.4,4.4,0.7,6.1
	c-3.4,8.3-5.2,17.2-5.1,26.1c-0.1,11.7,0,23.4,0,35.1c0,10.3,3.5,13.7,13.9,13.7c2,0,4,0,6.1,0c4.5,0.1,6.9,2.3,6.9,6
	s-2.4,6-6.8,6.1C646.3,169.3,635.9,169.3,625.5,169.3z"/>
<path d="M370.6,169.3c-8.8,0-17.7,0.2-26.5-0.1c-2.3-0.1-5.4-1.2-6.7-2.9c-2.9-3.8,0.1-8.5,5.3-9c2.9-0.3,5.8,0.1,8.6-0.4
	c5.7-1.1,8.1-3.6,8.1-9.4c0.2-22.7,0.2-45.4,0-68.1c-0.1-6.7-3.3-9.3-10.7-9.7c-2.3-0.1-4.6,0.1-6.9-0.1c-3.6-0.3-5.5-2.4-5.6-5.9
	c-0.2-3.2,2.1-5.9,5.3-6.1c0.2,0,0.4,0,0.6,0c12.3-0.1,24.6-0.1,36.9,0c3.6,0,5.4,2.4,5.8,5.8c0.2,1.7,0,3.5,0.1,5.2
	c0.1,2.2,0.5,3.6,3.3,4c5.8,1,7.5,4.7,4.2,9.7c-5.4,8.3-6.9,17.2-6.7,26.8c0.2,13,0,26,0.1,39c0,6.7,2.4,9.1,9.1,9.2c1,0,2,0,3,0
	c4.5,0.1,6.9,2.3,7,6s-2.4,6.1-6.8,6.1C388.8,169.3,379.7,169.3,370.6,169.3z"/>
<path d="M301.3,106.8c0,13.9-0.1,27.8,0,41.7c0,6.2,2.5,8.5,8.8,8.7c1,0,2,0,3,0c5.5,0,8.2,2.1,8.1,6.2s-2.7,5.9-8.3,5.9h-38.2
	c-5.2,0-10.4,0-15.6,0c-4.8,0-7.3-2.3-7.3-6.1s2.6-5.9,7.4-6c2.7,0.1,5.5-0.1,8.2-0.5c5.7-1.2,7.7-3.4,7.8-9.2c0.1-23,0.1-46,0-69
	c0-5.8-3.4-8.4-10.1-8.9c-1.9-0.1-3.8,0.1-5.6-0.1c-4.1-0.3-6.6-2.7-6.5-6.1c0.1-3.6,2.8-6,7-6c11.1,0,22.3,0,33.4,0
	c5.7,0,7.7,2,7.8,7.9c0.1,13.9,0,27.8,0,41.7L301.3,106.8L301.3,106.8z"/>
<path d="M554.1,107.2c0,13.7-0.1,27.5,0,41.2c0,6.2,2.5,8.5,8.8,8.7c1,0,2,0,3,0c5.5,0,8.2,2.1,8.1,6.2s-2.6,5.9-7.9,5.9
	c-12.9,0-25.8,0-38.6,0c-5.2,0-10.4,0-15.6,0c-4.8,0-7.3-2.3-7.2-6.1s2.6-5.8,7.4-6c2.7,0.1,5.5-0.1,8.2-0.5
	c5.7-1.2,7.7-3.4,7.8-9.2c0.1-23,0.1-46,0-69c0-5.8-3.4-8.4-10.1-8.9c-1.9-0.1-3.8,0.1-5.6-0.1c-4.1-0.3-6.6-2.7-6.5-6.1
	c0.1-3.6,2.8-6,7-6c11.1,0,22.3,0,33.4,0c5.7,0,7.7,2,7.8,7.9c0.1,14,0,28.1,0,42.1L554.1,107.2L554.1,107.2z"/>
<path d="M671,63.2c-3.3,0.2-6.6,0.3-10,0.5c-1.6,0.1-3.2,0.7-4.6,0.4c-1.2-0.2-2.9-1.4-3.1-2.4c-0.3-1.3,0.3-3.5,1.3-4.1
	c7.8-5,16.5-6.5,25.2-3.4s14,9.2,14.9,18.8c0.6,7.1-4.6,14.8-11,16.2c-7.9,1.7-15.3-2.1-16.8-9.7c-0.7-3.3,0.8-7.2,1.7-10.6
	c0.4-1.5,1.9-2.8,2.9-4.2L671,63.2z"/>
</svg>
