<?xml version="1.0" encoding="utf-8"?>
<!-- Generator: Adobe Illustrator 19.2.1, SVG Export Plug-In . SVG Version: 6.00 Build 0)  -->
<svg version="1.1" id="Layer_1" xmlns="http://www.w3.org/2000/svg" xmlns:xlink="http://www.w3.org/1999/xlink" x="0px" y="0px"
	 viewBox="0 0 1451 1179" style="enable-background:new 0 0 1451 1179;" xml:space="preserve">
<style type="text/css">
	.st0{fill:#FFFFFF;}
</style>
<g>
	<path d="M1440,187.8c0,277.2,0,554.4,0,831.6c-1.3,6.2-2.4,12.6-4.1,18.7c-4.7,16.8-7.6,34.4-14.8,50
		c-24.3,52.7-65.7,81.9-124.5,82c-365.4,0.3-730.8,0.1-1096.2,0.1c-7.2,0-14.5,0-21.7-0.2c-84.5-2.9-141.4-49.1-161.5-131.1
		c-2.5-10.3-4.9-20.6-7.4-30.9c0-332.8,0-665.6,0-998.4c416.7,0,833.5,0,1251.3,0c0,60.1,0,118.5,0,178.2
		C1321.4,187.8,1380.7,187.8,1440,187.8z M1201.3,1081.7c-5.2-8.3-9.3-14.2-12.8-20.4c-13.5-23.6-15.9-49.6-15.9-76.1
		c0.1-290.1,0-580.2,0-870.3c0-5.2,0-10.4,0-15.8c-358.7,0-715.9,0-1073.8,0c0,4.6,0,8.4,0,12.2c0,290.5,0,580.9,0,871.4
		c0,4.9,0,9.9,0.4,14.8c3.1,39,26.6,71.7,59.3,79.8c13.1,3.3,27.1,4.1,40.7,4.1c329.3,0.2,658.6,0.2,987.9,0.2
		C1191.2,1081.7,1195.2,1081.7,1201.3,1081.7z"/>
	<path d="M1201.3,1081.7c-6,0-10.1,0-14.2,0c-329.3,0-658.6,0-987.9-0.2c-13.6,0-27.6-0.9-40.7-4.1c-32.6-8.2-56.2-40.9-59.3-79.8
		c-0.4-4.9-0.4-9.9-0.4-14.8c0-290.5,0-580.9,0-871.4c0-3.8,0-7.5,0-12.2c357.9,0,715.1,0,1073.8,0c0,5.4,0,10.6,0,15.8
		c0,290.1,0,580.2,0,870.3c0,26.5,2.3,52.5,15.9,76.1C1192,1067.4,1196,1073.3,1201.3,1081.7z M189.4,902.1c134.1,0,267,0,400,0
		c0-148.7,0-296.6,0-445c-4-0.2-7.4-0.6-10.7-0.6c-126,0-252,0.1-377.9-0.2c-9.5,0-12.2,2.7-12.2,12.2
		c0.3,140.8,0.2,281.6,0.2,422.5C188.8,894.7,189.2,898.4,189.4,902.1z M189.5,365.3c297.7,0,594.4,0,891,0c0-29.7,0-58.8,0-87.7
		c-297.4,0-593.8,0-891,0C189.5,306.8,189.5,335.6,189.5,365.3z M1081.1,457.2c-133.8,0-266.5,0-399.1,0c0,29.4,0,58.1,0,86.3
		c133.6,0,266.3,0,399.1,0C1081.1,514.5,1081.1,486.4,1081.1,457.2z M681.7,722.5c133.8,0,266.4,0,399.2,0c0-29.3,0-57.6,0-86.5
		c-133.3,0-266,0-399.2,0C681.7,665,681.7,693.4,681.7,722.5z M682.1,814.3c0,30,0,59,0,87.6c103.9,0,206.8,0,309.4,0
		c0-29.7,0-58.5,0-87.6C888.1,814.3,785.5,814.3,682.1,814.3z"/>
	<path d="M189.4,902.1c-0.2-3.7-0.6-7.4-0.6-11.1c0-140.8,0.1-281.6-0.2-422.5c0-9.5,2.7-12.2,12.2-12.2c126,0.3,252,0.2,377.9,0.2
		c3.4,0,6.7,0.4,10.7,0.6c0,148.4,0,296.3,0,445C456.4,902.1,323.5,902.1,189.4,902.1z"/>
	<path class="st0" d="M189.5,365.3c0-29.7,0-58.5,0-87.7c297.2,0,593.6,0,891,0c0,29,0,58,0,87.7
		C783.9,365.3,487.2,365.3,189.5,365.3z"/>
	<path class="st0" d="M1081.1,457.2c0,29.2,0,57.3,0,86.3c-132.8,0-265.4,0-399.1,0c0-28.2,0-56.9,0-86.3
		C814.6,457.2,947.3,457.2,1081.1,457.2z"/>
	<path class="st0" d="M681.7,722.5c0-29.2,0-57.5,0-86.5c133.3,0,265.9,0,399.2,0c0,28.8,0,57.2,0,86.5
		C948.1,722.5,815.4,722.5,681.7,722.5z"/>
	<path class="st0" d="M682.1,814.3c103.3,0,206,0,309.4,0c0,29.1,0,57.9,0,87.6c-102.6,0-205.5,0-309.4,0
		C682.1,873.3,682.1,844.3,682.1,814.3z"/>
</g>
</svg>
