<svg id="Layer_3" data-name="Layer 3" xmlns="http://www.w3.org/2000/svg" viewBox="0 0 291.33 321.4"><defs><style>.cls-1{fill:#fff;stroke:#fff;stroke-miterlimit:10;stroke-width:12px;}</style></defs><title>nonFriendsWhite</title><path class="cls-1" d="M14.1,318a9.41,9.41,0,0,0,2.1,7.9,9,9,0,0,0,6.9,3.3h261a9,9,0,0,0,6.9-3.3,9.41,9.41,0,0,0,2.1-7.9c-12.2-69-70.9-119-139.5-119S26.3,249,14.1,318Z" transform="translate(-7.94 -13.8)"/><path class="cls-1" d="M226.3,94.4c0-41.1-32.6-74.6-72.7-74.6S80.9,53.3,80.9,94.4,113.5,169,153.6,169,226.3,135.5,226.3,94.4Z" transform="translate(-7.94 -13.8)"/></svg>
