<?xml version="1.0" encoding="utf-8"?>
<!-- Generator: Adobe Illustrator 19.2.1, SVG Export Plug-In . SVG Version: 6.00 Build 0)  -->
<svg version="1.1" id="Layer_1" xmlns="http://www.w3.org/2000/svg" xmlns:xlink="http://www.w3.org/1999/xlink" x="0px" y="0px"
	 viewBox="0 0 1259.5 1440" style="enable-background:new 0 0 1259.5 1440;" xml:space="preserve">
<g>
	<path d="M598.8,0c20.6,0,41.3,0,61.9,0c4.1,0.9,8.1,2.2,12.2,2.5c54.7,5,107.2,18.7,155.6,44.5c164.4,87.6,248.8,225.1,250.8,411.4
		c1.5,145.8,0.2,291.5,0.3,437.3c0,46.2,45.1,92.7,91,94.4c50.7,1.9,89.2,41,88.9,90.2c-0.3,50-39.7,88.9-91.1,89.4
		c-30.5,0.3-60.9,0.1-91.4,0.1c-328.1,0-656.2,0-984.3,0c-51.6,0-92-38.3-92.8-87.7c-0.8-50.4,37.2-89.8,88.5-91.9
		c45.6-1.9,91.3-49,91.4-94.5c0.1-85.8-0.3-171.5,0.1-257.3c0.3-75.9-2.6-152.1,2.8-227.6C196.5,217.1,341.4,53.1,531.2,11.5
		C553.5,6.6,576.3,3.8,598.8,0z"/>
	<path d="M610.1,1440c-8.1-1.9-16.3-3.8-24.4-5.8c-78.6-19.3-137.9-94.9-135.1-173.1c119.1,0,238.2,0,360.4,0
		c-2.8,16.4-3.9,32.7-8.6,47.9c-22.5,71.6-71,114.6-145,128.4c-2.7,0.5-5.3,1.7-7.9,2.6C636.3,1440,623.2,1440,610.1,1440z"/>
</g>
</svg>
