<?xml version="1.0" encoding="utf-8"?>
<!-- Generator: Adobe Illustrator 19.2.1, SVG Export Plug-In . SVG Version: 6.00 Build 0)  -->
<svg version="1.1" id="Layer_1" xmlns="http://www.w3.org/2000/svg" xmlns:xlink="http://www.w3.org/1999/xlink" x="0px" y="0px"
	 viewBox="0 0 1440 1440" style="enable-background:new 0 0 1440 1440;" xml:space="preserve">
<g>
	<path d="M188.4,699.5c0-173.9,0-347.9,0-521.8c0-10.5-0.1-21,0.3-31.5c4.2-90.6,67.8-127.1,147.9-83.8
		c38.6,20.8,75.9,44.1,113.8,66.1C664,252.7,877.6,376.9,1091,501.3c65.1,37.9,130.6,75.3,194.5,115.2
		c80.1,49.9,80.4,124.3-0.4,173.4c-102.7,62.3-207.4,121.4-311.4,181.6c-118,68.3-236.1,136.5-354.4,204.4
		c-95.1,54.6-189.4,110.7-286.1,162.3c-73.2,39-143.7-1.7-144.3-85.3C187.6,1068.4,188.4,883.9,188.4,699.5
		C186.6,699.5,190.2,699.5,188.4,699.5z"/>
</g>
</svg>
