<?xml version="1.0" encoding="utf-8"?>
<!-- Generator: Adobe Illustrator 19.2.1, SVG Export Plug-In . SVG Version: 6.00 Build 0)  -->
<svg version="1.1" xmlns="http://www.w3.org/2000/svg" xmlns:xlink="http://www.w3.org/1999/xlink" x="0px" y="0px"
	 viewBox="0 0 638.7 478.1" style="enable-background:new 0 0 638.7 478.1;" xml:space="preserve">
<style type="text/css">
	.st0{display:none;}
	.st1{display:inline;}
	.st2{fill:#FFFFFF;}
</style>
<g id="Layer_1" class="st0">
	<g class="st1">
		<path d="M297.7,278.4c7.6,13.8,0.4,31.9-17.7,33.7c6.3,13.9,2.5,24.5-10.4,31.8c1.1,3,2.7,5.9,3.3,9c2.7,13.5-7.6,25.6-21.7,25.6
			c-19.9,0.1-39.7-0.2-59.6,0.2c-7.5,0.2-13.8-2.7-20.3-5.5c-10.3-4.5-20-10.2-29-16.9c-4-3-7.6-6.6-11.4-9.9
			c-0.4-0.4-0.8-0.8-1.7-1.6c0,2.2-0.1,3.9-0.1,5.6c0,4,0,8,0,11.9c0,4-1.9,5.9-5.8,5.9c-17.9,0-35.8,0-53.6,0
			c-3.9,0-5.8-1.9-5.8-5.8c0-28.9,0-57.8,0-86.7c0-14.4,0-28.9,0-43.3c0-4.9,1.6-6.5,6.4-6.5c17.6,0,35.2,0,52.8,0
			c4.2,0,6.1,1.7,6,5.9c0,4.2-0.2,8.5-0.3,12.6c7.1-4.4,13.7-8.9,20.6-12.8c12.9-7.2,26.6-12.7,40.4-17.9
			c19.5-7.3,39.3-13.5,59.3-19.2c3.9-1.1,7.5-2.8,11.7-2.7c9.4,0.3,17.7,6.7,20.3,15.8c2.5,9-1.2,18.9-9.1,23.9
			c-2,1.3-4.2,2.5-6.2,4.2c1,0,2,0,3,0c28.3,0,56.6,0,84.9,0c16,0,26.5,15.7,20.1,30.3c-3.6,8.2-10.3,12.7-19.3,12.8
			c-17.9,0.2-35.8,0.1-53.7,0.1C299.8,278.7,298.8,278.5,297.7,278.4z M139.1,340.4c12,10.7,24.3,17.8,37.1,24
			c5.9,2.8,11.8,4.4,18.4,4.2c19-0.3,38.1-0.1,57.1-0.2c6.5,0,11.5-5,11.7-11.2c0.2-6.3-4.6-11.5-11.1-12.1
			c-3.6-0.3-5.6-2.1-5.6-5.1c0-3,2.2-4.8,6-4.9c3.1,0,6.1,0.1,9.2-0.1c3.6-0.2,6.7-1.6,8.8-4.7c5.4-8,0.7-17.6-8.9-18.6
			c-3.4-0.3-5.4-2.3-5.3-5.1c0.1-3,2.2-4.8,5.7-4.8c6.1,0,12.2,0.1,18.3-0.2c4.9-0.3,8.8-4,9.9-8.8c1.1-4.8-0.9-10-5.2-12.4
			c-1.9-1-4.1-1.4-6.3-1.9c-2-0.4-4.4-2.1-4.6-3.9c-0.3-2.2,0.4-4.3,2.5-5.1c1.8-0.7,3.9-0.8,5.9-0.8c15.1-0.1,30.1-0.1,45.2-0.2
			c8.6,0,17.3,0.1,25.9,0c6.9-0.1,12.1-5.3,12-11.9c-0.1-6.3-5.6-11.4-12.3-11.4c-24.1,0-48.2,0-72.3,0c-11.2,0-22.5,0-33.7,0
			c-2.3,0-4.5-0.4-5.6-2.7c-1.3-2.6-0.4-5.2,2.5-6.9c7.4-4.3,14.8-8.5,22.2-12.9c5.1-3.1,6.8-9.4,4.2-14.9
			c-2.6-5.3-8.7-7.8-14.3-5.8c-3.8,1.3-7.7,2.6-11.5,3.7c-27.7,8-55,17.2-81.2,29.4c-9.7,4.5-19.3,9.3-27.6,16.2
			c-3.4,2.8-7,5.9-7,10.8c-0.1,19.3,0,38.7,0,58c0,4.6,1.2,8.8,3.9,12.5C135.2,335.9,137.8,338.8,139.1,340.4z M74.1,357.5
			c15,0.1,30,0.2,44.8,0.2c0-40.5,0-81.2,0-121.7c-14.8,0-29.8,0-44.8,0C74.1,276.6,74.1,317.3,74.1,357.5z"/>
		<path class="st2" d="M139.1,340.4c-1.3-1.6-3.8-4.5-6-7.5c-2.6-3.7-3.9-7.8-3.9-12.5c0.1-19.3-0.1-38.7,0-58c0-4.9,3.5-8,7-10.8
			c8.3-6.9,17.9-11.7,27.6-16.2c26.2-12.1,53.5-21.3,81.2-29.4c3.9-1.1,7.7-2.4,11.5-3.7c5.7-1.9,11.7,0.5,14.3,5.8
			c2.6,5.4,0.9,11.8-4.2,14.9c-7.3,4.4-14.8,8.6-22.2,12.9c-2.9,1.7-3.8,4.3-2.5,6.9c1.2,2.3,3.3,2.7,5.6,2.7c11.2,0,22.5,0,33.7,0
			c24.1,0,48.2,0,72.3,0c6.6,0,12.1,5.1,12.3,11.4c0.1,6.5-5,11.8-12,11.9c-8.6,0.1-17.3,0-25.9,0c-15.1,0-30.1,0.1-45.2,0.2
			c-2,0-4.1,0.1-5.9,0.8c-2.1,0.8-2.8,2.9-2.5,5.1c0.3,1.8,2.7,3.5,4.6,3.9c2.1,0.5,4.4,0.8,6.3,1.9c4.4,2.4,6.4,7.6,5.2,12.4
			c-1.1,4.8-5,8.5-9.9,8.8c-6.1,0.3-12.2,0.2-18.3,0.2c-3.5,0-5.6,1.8-5.7,4.8c-0.1,2.8,1.9,4.7,5.3,5.1c9.6,1,14.3,10.6,8.9,18.6
			c-2,3-5.2,4.5-8.8,4.7c-3.1,0.1-6.1,0-9.2,0.1c-3.8,0-5.9,1.8-6,4.9c0,2.9,2,4.8,5.6,5.1c6.5,0.5,11.3,5.8,11.1,12.1
			c-0.2,6.2-5.2,11.1-11.7,11.2c-19,0.1-38.1-0.2-57.1,0.2c-6.7,0.1-12.5-1.4-18.4-4.2C163.3,358.2,151.1,351.1,139.1,340.4z"/>
		<path class="st2" d="M74.1,357.5c0-40.2,0-80.9,0-121.4c15,0,30,0,44.8,0c0,40.5,0,81.1,0,121.7
			C104.1,357.6,89.1,357.6,74.1,357.5z"/>
	</g>
</g>
<g id="Layer_1_copy" class="st0">
	<g class="st1">
		<path d="M139.1,340.4c-5.7-9.1-9.9-29.3-9.9-34c0.1-19.3-0.1-1.9,0-21.3c0-4.9-2-20.6,7-33.6c7.7-11.1,17.9-11.7,27.6-16.2
			c26.2-12.1,53.5-21.3,81.2-29.4c3.9-1.1,7.7-2.4,11.5-3.7c5.7-1.9,11.7,0.5,14.3,5.8c2.6,5.4,0.9,11.8-4.2,14.9
			c-7.3,4.4-14.8,8.6-22.2,12.9c-2.9,1.7-3.8,4.3-2.5,6.9c1.2,2.3,3.3,2.7,5.6,2.7c11.2,0,22.5,0,33.7,0c24.1,0,34.5,0,58.6,0
			c6.6,0,12.1,5.1,12.3,11.4c0.1,6.5-5,11.8-12,11.9c-8.6,0.1-27.2,0-35.8,0c-15.1,0-6.5,0.1-21.5,0.2c-2,0-4.1,0.1-5.9,0.8
			c-2.1,0.8-2.8,2.9-2.5,5.1c0.3,1.8,1.5,3.1,3.4,3.5c2.1,0.5,3.9,1.3,5.8,2.4c4.4,2.4,6.4,7.6,5.2,12.4c-1.1,4.8-5,8.5-9.9,8.8
			c-6.1,0.3-2.7,0.1-8.8,0.1c-3.5,0-7,1.8-7.1,4.8c-0.1,2.8,2.7,4.7,6.1,5.1c9.6,1,14.3,10.6,8.9,18.6c-2,3-5.2,4.5-8.8,4.7
			c-3.1,0.1,0,0-3.1,0.1c-3.8,0-6.3,2-6.4,5c0,2.9,2,4.8,5.6,5.1c6.5,0.5,11.3,5.8,11.1,12.1c-0.2,6.2-4.2,11.2-18.9,11.2
			c-19,0.1-31.2-0.3-50.3,0c-6.7,0.1-25.1-1.4-31-4.2C163.3,358.2,147.6,354.1,139.1,340.4z"/>
	</g>
</g>
<g id="Layer_1_copy_2" class="st0">
	<g class="st1">
		<path d="M28.9,397.2c-16.2-26.1-28.4-84-28.4-97.3c0.2-55.4-0.2-5.5,0-60.9c0.1-14.1-5.8-58.9,20-96.2c22-31.9,51.2-33.5,79-46.4
			c75-34.7,153.1-61,232.4-84.1C343,9.2,354,5.6,364.9,1.9c16.2-5.6,33.6,1.4,41,16.7c7.5,15.5,2.6,33.8-12,42.5
			c-21,12.6-42.4,24.6-63.5,37c-8.4,4.9-11,12.3-7.1,19.9c3.4,6.6,9.5,7.7,16.2,7.7c32.2-0.1,64.4-0.1,96.6-0.1c69,0,98.7,0,167.6,0
			c19,0,34.7,14.7,35.1,32.7c0.4,18.7-14.4,33.7-34.2,34c-24.7,0.3-77.9,0-102.6,0.1c-43.1,0.1-71.9,0.2-115.1,0.4
			c-5.7,0-11.7,0.3-16.9,2.2c-6.1,2.3-8.1,8.3-7.2,14.6c0.8,5,4.2,8.8,9.8,10c6.1,1.3,64.5,3.9,69.8,6.8c12.5,7,18.2,21.7,14.9,35.5
			c-3.2,13.7-14.3,24.4-28.5,25.2c-17.5,1-29.8,0.2-47.3,0.3c-10,0.1-20.1,5.2-20.4,13.8c-0.3,8.1,7.8,13.6,17.5,14.6
			c59.6,0,63.1,30.3,47.7,53.1c-5.9,8.7-14.8,12.9-25.1,13.3c-8.7,0.4,0,0.1-8.7,0.2c-35.6,0-38.8,5.8-38.9,14.4
			c-0.1,8.4,3.3,14.5,36.7,14.5c18.6,1.5,32.3,16.6,31.7,34.6c-0.7,17.8-11.9,32-54.1,32c-54.5,0.2-89.5-1-143.9,0
			c-19,0.3-71.9-4-88.8-12.2C98.3,448.2,53.2,436.4,28.9,397.2z"/>
	</g>
</g>
<g id="Layer_1_copy_3">
	<g>
		<path class="st2" d="M28.9,397.2c-16.2-26.1-28.4-84-28.4-97.3c0.2-55.4-0.2-5.5,0-60.9c0.1-14.1-5.8-58.9,20-96.2
			c22-31.9,51.2-33.5,79-46.4c75-34.7,153.1-61,232.4-84.1C343,9.2,354,5.6,364.9,1.9c16.2-5.6,33.6,1.4,41,16.7
			c7.5,15.5,2.6,33.8-12,42.5c-21,12.6-42.4,24.6-63.5,37c-8.4,4.9-11,12.3-7.1,19.9c3.4,6.6,9.5,7.7,16.2,7.7
			c32.2-0.1,64.4-0.1,96.6-0.1c69,0,98.7,0,167.6,0c19,0,34.7,14.7,35.1,32.7c0.4,18.7-14.4,33.7-34.2,34
			c-24.7,0.3-77.9,0-102.6,0.1c-43.1,0.1-71.9,0.2-115.1,0.4c-5.7,0-11.7,0.3-16.9,2.2c-6.1,2.3-8.1,8.3-7.2,14.6
			c0.8,5,4.2,8.8,9.8,10c6.1,1.3,64.5,3.9,69.8,6.8c12.5,7,18.2,21.7,14.9,35.5c-3.2,13.7-14.3,24.4-28.5,25.2
			c-17.5,1-29.8,0.2-47.3,0.3c-10,0.1-20.1,5.2-20.4,13.8c-0.3,8.1,7.8,13.6,17.5,14.6c59.6,0,63.1,30.3,47.7,53.1
			c-5.9,8.7-14.8,12.9-25.1,13.3c-8.7,0.4,0,0.1-8.7,0.2c-35.6,0-38.8,5.8-38.9,14.4c-0.1,8.4,3.3,14.5,36.7,14.5
			c18.6,1.5,32.3,16.6,31.7,34.6c-0.7,17.8-11.9,32-54.1,32c-54.5,0.2-89.5-1-143.9,0c-19,0.3-71.9-4-88.8-12.2
			C98.3,448.2,53.2,436.4,28.9,397.2z"/>
	</g>
</g>
</svg>
