<?xml version="1.0" encoding="utf-8"?>
<!-- Generator: Adobe Illustrator 19.2.1, SVG Export Plug-In . SVG Version: 6.00 Build 0)  -->
<svg version="1.1" id="Layer_1" xmlns="http://www.w3.org/2000/svg" xmlns:xlink="http://www.w3.org/1999/xlink" x="0px" y="0px"
	 viewBox="0 0 1146.7 1147.9" style="enable-background:new 0 0 1146.7 1147.9;" xml:space="preserve">
<g>
	<path d="M1146.7,1056.3c0,15.8-4.7,31.3-13.7,44.3c-24.4,35.1-61.1,47.6-109.4,47.3c-303.5-1.7-606.9-0.8-910.4-0.9
		c-82.3,0-122.5-46.2-111.4-127.6c2-14.8,5-29.4,7.5-44.1c17.2-103.1,69.3-175.2,175-203c49.9-13.1,97.9-32.9,147.6-46.8
		c11.4-3.2,29.6,1.3,38.8,9.1c123.4,104.7,281,104.5,405.8-0.4c9.2-7.7,27.5-11.8,38.8-8.4c58,17.4,114.6,39.2,172.6,56.8
		c78.8,23.9,120.8,79.3,140.4,155.7c5.5,21.5,11.1,43.1,16.7,64.6c1.2,4.5,1.7,9.1,1.7,13.7V1056.3z"/>
	<path d="M859.8,310.9c-6.8,101.3-33.7,212.4-106.2,307.7C653.2,750.6,491.8,751.5,393.2,618c-81.6-110.5-119.3-237.4-101.5-373.8
		C311.8,91.1,448.2-12.1,598.8,1.1C748.7,14.4,861,140.7,859.8,310.9z"/>
</g>
</svg>
