<svg id="Layer_1" data-name="Layer 1" xmlns="http://www.w3.org/2000/svg" viewBox="0 0 1418 1418"><defs><style>.cls-1{fill:#e0e0e0;}</style></defs><title>reset</title><path class="cls-1" d="M709,0C317.43,0,0,317.43,0,709s317.43,709,709,709,709-317.43,709-709S1100.57,0,709,0ZM649.53,1196.46c-234.9-29.14-416.28-229-416.28-471.58,0-131.42,53.52-250.36,139.16-336.59l84.44,84.44c-64.82,64.82-104.66,154-104.66,252.15,0,176.62,129,322.91,297.34,351.46v120.13Zm118.94,0V1076.33c168.3-28.54,297.34-174.84,297.34-351.46,0-196.84-160-356.81-356.81-356.81-3,0-6.54.59-10.11,0.59l64.23,64.23-83.85,83.85L471.13,308.6,679.27,100.46l83.85,84.45L698.3,249.72c3.57,0,7.14-.59,10.7-0.59,262.85,0,475.75,212.9,475.75,475.75C1184.75,967.5,1003.37,1167.32,768.47,1196.46Z"/></svg>