<svg id="Layer_1" data-name="Layer 1" xmlns="http://www.w3.org/2000/svg" viewBox="0 0 1111.16 1077.41"><title>share</title><path d="M784.18,375.87c0-36.69.07-72.48,0-108.27-0.07-26.23-.93-52.48-0.18-78.68,0.19-6.69,3.61-16.93,8.31-18.88,5.16-2.14,15.21,1.47,20.22,5.88q131.2,115.23,261.6,231.36,94.53,83.77,189.08,167.51,3.62,3.2,7.15,6.5c13.13,12.25,13.33,17.15.14,29q-54.51,48.8-109.28,97.31Q990.5,859.43,819.73,1011.2c-7.87,7-14.86,18.53-28,12.43-12.75-5.9-8-18.39-7.95-28.34,0.08-57.06.65-114.12,1-171.18,0-2.71-.4-5.42-0.81-10.55-17.44,0-34.82-.89-52.08.14C538.49,825.16,292.45,971,206.79,1203.38c-4,10.75-6.46,22.19-11.59,32.32-2.57,5.07-9.38,10.75-14.59,11.08-8.67.56-11.85-7-11.47-15.45,2.13-47.31,2.44-94.78,6.65-141.91,7.57-84.83,23.93-168.11,51.46-248.94,42.1-123.57,106.29-233.1,205.36-320,87.55-76.79,188.63-125,304.49-140.66C752.1,377.81,767.3,377.25,784.18,375.87Z" transform="translate(-169.11 -169.41)"/></svg>