<?xml version="1.0" encoding="utf-8"?>
<!-- Generator: Adobe Illustrator 19.2.1, SVG Export Plug-In . SVG Version: 6.00 Build 0)  -->
<svg version="1.1" id="Layer_1" xmlns="http://www.w3.org/2000/svg" xmlns:xlink="http://www.w3.org/1999/xlink" x="0px" y="0px"
	 viewBox="0 0 676 684" style="enable-background:new 0 0 676 684;" xml:space="preserve">
<style type="text/css">
	.st0{display:none;}
	.st1{display:inline;}
	.st2{fill:#FFFFFF;}
</style>
<g class="st0">
	<g class="st1">
		<g>
			<g>
				<path d="M963-89.8c-34.5-45.3-78-50.6-131.4-50.5c-126.8,0.5-253.7-0.5-380.5-0.9c-9.2,0-18.4,0-34,0l-149,0
					c-15,0-23.6,0-32.1,0c-127.7,0.4-255.5,0.9-383.2,1.2c-42.8,0.1-82,9.5-113.4,44.5c-26.9,30-49.9,72-49.4,115.6
					c0.2,15.2,0,37.1,0,37.1c0,145.1,0,290.2,0,435.2c1.2,49.1,2.8,98.2,3.6,147.2c2,118.3,21.7,194.3,128.5,194.3
					c337.6,0,692,0,1036.6,0c68.6,0,132.1-54.5,132.1-126.7c0-184.3,0-618.6,0-716.2C991-33.3,984-62.3,963-89.8z M625.9,560.3
					c-15.8,94.9-62,141.9-150.2,151.8c-85.7,9.5-172.1,11.1-256.1,16c-85.3-4.8-168.5-4.8-250.6-15.2
					c-106.5-13.5-147-54.8-163.4-168.5c-18.8-130.1-19-262.1-0.5-392.2C-177.6,30.1-134.6-12.5-14.3-23.1
					C148.5-37.5,312.1-39.7,475-20c91.3,11.1,137.6,57,152.3,155.6C648.3,276.8,649.4,419.3,625.9,560.3z"/>
			</g>
		</g>
	</g>
	<g>
		<g class="st1">
			<g>
				<path class="st2" d="M813.3,376.3c-53.1-0.4-92.8,39.5-93.4,93.9c-0.7,54.3,38.1,94.9,91.3,95.7c53.7,0.8,98.3-41.4,99-93.5
					C910.8,420.6,866.7,376.7,813.3,376.3z"/>
			</g>
		</g>
	</g>
	<path class="st2" d="M813.8,128.7c53.8-0.1,96.7,42.7,95.9,95.7c-0.9,51.9-43.5,93.9-95.3,93.7c-54.2-0.1-95.4-42-94.9-96.4
		C720.1,168.2,760,128.8,813.8,128.7z"/>
</g>
<g>
	<path d="M658.5,666.1c-39.4,0-77.2,0-117.2,0C538,527.4,490,406.6,392,308.2c-98.1-98.5-218.5-147.6-358.4-150.9
		c0-39.5,0-77.8,0-116.1C352.6,30.6,663,308.7,658.5,666.1z"/>
	<path d="M33.3,371.4c0-39.4,0-77.7,0-116.1c190.2-12.1,412,157.4,412.2,409.9c-38.9,0-77.9,0-118.4,0c-2.6-80-30-149.9-87.3-207.1
		C183.1,401.7,114.3,373.4,33.3,371.4z"/>
	<path d="M114.5,500.8c47.3-0.3,83.5,35.4,83.3,82.2c-0.2,46.1-35.5,81.7-81.5,82.2c-46.1,0.5-84.7-37.4-84.2-82.7
		C32.5,537,68.7,501.1,114.5,500.8z"/>
</g>
</svg>
