<svg id="Layer_1" data-name="Layer 1" xmlns="http://www.w3.org/2000/svg" viewBox="0 0 1409.38 1352.5"><title>thumbsup</title><path d="M1428.69,630.39v42.78c-0.86,3.6-1.91,7.16-2.56,10.79-5.58,31-16.09,60.27-36.1,84.87-8.17,10-9.2,18.58-5.65,30.43,17.22,57.47,10.36,111.65-23.49,162-3.11,4.62-3.73,11.77-3.46,17.66,0.84,18.56,4.71,37.19,3.67,55.58-2.46,43.49-17.66,82.35-47.5,115-3.3,3.61-5.1,9.65-5.47,14.72-1.57,21.27-.12,43-3.82,63.82-9.28,52.2-35.7,94-81.6,122.24-33.75,20.8-71.16,29.76-110,31.61-37.44,1.78-75,.6-112.51,1.4A695.66,695.66,0,0,1,807.64,1360c-58.23-15.33-115.56-34.09-173.1-52-44.29-13.76-87.45-32.14-134-36.95-37.66-3.89-59.2-29.92-58.93-70.44,1.18-179.32.51-358.65,0.53-538,0-5.62,0-11.27.39-16.87,1.87-25,21.75-47.56,46.35-51.11,14.84-2.14,27.65-8.32,37.57-18.47,27.7-28.34,55.5-56.73,81.25-86.82,42.83-50.06,84.18-101.4,126-152.37,9.21-11.24,18.75-22.49,26.12-34.93,23-38.81,29.9-82.81,38.41-126.11S818,90.91,846.46,55.53C860,38.75,876.32,29.31,897.8,31.16s43.75,2.72,64.46,8.4,41.54,14.14,59.18,26.05c32.33,21.84,51.26,55.15,59.31,92.49,14.36,66.53,15.31,133.6-9,198.32-11.92,31.74-28.93,61.57-43.32,92.41-4.76,10.19-8.56,20.83-13.49,33h16.41c76.16,0,152.31-.29,228.47.1,65,0.33,113.33,31,145.62,85.83C1416.56,586.63,1421.12,609.4,1428.69,630.39Z" transform="translate(-19.31 -30.93)"/><path d="M19.31,639.4c6.34-14.52,12.8-29.39,28-36.55,8.89-4.18,19-8,28.63-8.07,84.38-.62,168.77-0.54,253.16-0.26,33.56,0.11,56.62,25.65,56.71,62.22,0.17,66,0,132,0,198q0,176.09,0,352.18c0,32.61-15.47,54.75-43.39,61.62-6.44,1.59-13.38,1.59-20.09,1.59q-119.83.15-239.66,0c-32.77,0-48.62-10.7-61.28-40.83a9.86,9.86,0,0,0-2.13-2.36Q19.31,933.21,19.31,639.4Z" transform="translate(-19.31 -30.93)"/></svg>