<svg id="Layer_1" data-name="Layer 1" xmlns="http://www.w3.org/2000/svg" viewBox="0 0 1409.38 1352.5"><title>thumbsdown</title><path d="M1428.69,780.61V737.83c-0.86-3.6-1.91-7.16-2.56-10.79-5.58-31-16.09-60.27-36.1-84.87-8.17-10-9.2-18.58-5.65-30.43,17.22-57.47,10.36-111.65-23.49-162-3.11-4.62-3.73-11.77-3.46-17.66,0.84-18.56,4.71-37.19,3.67-55.58-2.46-43.49-17.66-82.35-47.5-115-3.3-3.61-5.1-9.65-5.47-14.72-1.57-21.27-.12-43-3.82-63.82-9.28-52.2-35.7-94-81.6-122.24-33.75-20.8-71.16-29.76-110-31.61-37.44-1.78-75-.6-112.51-1.4A695.66,695.66,0,0,0,807.64,51c-58.23,15.33-115.56,34.09-173.1,52-44.29,13.76-87.45,32.14-134,36.95-37.66,3.89-59.2,29.92-58.93,70.44,1.18,179.32.51,358.65,0.53,538,0,5.62,0,11.27.39,16.87,1.87,25,21.75,47.56,46.35,51.11,14.84,2.14,27.65,8.32,37.57,18.47,27.7,28.34,55.5,56.73,81.25,86.82,42.83,50.06,84.18,101.4,126,152.37,9.21,11.24,18.75,22.49,26.12,34.93,23,38.81,29.9,82.81,38.41,126.11s19.8,85.11,48.27,120.49c13.5,16.78,29.85,26.23,51.33,24.37s43.75-2.72,64.46-8.4,41.54-14.14,59.18-26.05c32.33-21.84,51.26-55.15,59.31-92.49,14.36-66.53,15.31-133.6-9-198.32-11.92-31.74-28.93-61.57-43.32-92.41-4.76-10.19-8.56-20.83-13.49-33h16.41c76.16,0,152.31.29,228.47-.1,65-.33,113.33-31,145.62-85.83C1416.56,824.37,1421.12,801.6,1428.69,780.61Z" transform="translate(-19.31 -27.57)"/><path d="M19.31,184a9.86,9.86,0,0,0,2.13-2.36C34.09,151.5,50,140.82,82.72,140.79q119.83-.08,239.66,0c6.71,0,13.65,0,20.09,1.59,27.92,6.87,43.38,29,43.39,61.62q0.08,176.09,0,352.18c0,66,.12,132,0,198-0.09,36.57-23.15,62.11-56.71,62.22-84.39.27-168.78,0.36-253.16-.26-9.6-.07-19.73-3.88-28.63-8.07-15.22-7.16-21.69-22-28-36.55Q19.31,477.79,19.31,184Z" transform="translate(-19.31 -27.57)"/></svg>