<?xml version="1.0" encoding="utf-8"?>
<!-- Generator: Adobe Illustrator 19.2.1, SVG Export Plug-In . SVG Version: 6.00 Build 0)  -->
<svg version="1.1" id="Layer_1" xmlns="http://www.w3.org/2000/svg" xmlns:xlink="http://www.w3.org/1999/xlink" x="0px" y="0px"
	 viewBox="0 0 1323 1004" style="enable-background:new 0 0 1323 1004;" xml:space="preserve">
<style type="text/css">
	.st0{display:none;}
	.st1{display:inline;}
	.st2{fill:#FFFFFF;}
	.st3{display:none;fill:#FFFFFF;}
</style>
<g>
	<g>
		<g>
			<g>
				<path d="M1283,64.2c-34.5-45.3-78-50.6-131.4-50.5c-126.8,0.5-253.7-0.5-380.5-0.9c-9.2,0-18.4,0-34,0l-149,0
					c-15,0-23.6,0-32.1,0C428.5,13.2,300.7,13.7,173,14c-42.8,0.1-82,9.5-113.4,44.5c-26.9,30-49.9,72-49.4,115.6
					c0.2,15.2,0,37.1,0,37.1c0,145.1,0,290.2,0,435.2c1.2,49.1,2.8,98.2,3.6,147.2C15.9,912,35.5,988,142.3,988
					c337.6,0,692,0,1036.6,0c68.6,0,132.1-54.5,132.1-126.7c0-184.3,0-618.6,0-716.2C1311,120.7,1304,91.7,1283,64.2z M945.9,714.3
					c-15.8,94.9-62,141.9-150.2,151.8c-85.7,9.5-172.1,11.1-256.1,16c-85.3-4.8-168.5-4.8-250.6-15.2
					c-106.5-13.5-147-54.8-163.4-168.5c-18.8-130.1-19-262.1-0.5-392.2c17.4-122.1,60.3-164.6,180.6-175.2
					c162.8-14.4,326.4-16.6,489.3,3.1c91.3,11.1,137.6,57,152.3,155.6C968.3,430.8,969.4,573.3,945.9,714.3z"/>
			</g>
		</g>
	</g>
	<g class="st0">
		<g class="st1">
			<g>
				<path class="st2" d="M1133.3,530.3c-53.1-0.4-92.8,39.5-93.4,93.9c-0.7,54.3,38.1,94.9,91.3,95.7c53.7,0.8,98.3-41.4,99-93.5
					C1230.8,574.6,1186.7,530.7,1133.3,530.3z"/>
			</g>
		</g>
	</g>
	<path class="st3" d="M1133.8,282.7c53.8-0.1,96.7,42.7,95.9,95.7c-0.9,51.9-43.5,93.9-95.3,93.7c-54.2-0.1-95.4-42-94.9-96.4
		C1040.1,322.2,1080,282.8,1133.8,282.7z"/>
</g>
</svg>
