<?xml version="1.0" encoding="utf-8"?>
<!-- Generator: Adobe Illustrator 19.2.1, SVG Export Plug-In . SVG Version: 6.00 Build 0)  -->
<svg version="1.1" id="Layer_1" focusable="false" xmlns="http://www.w3.org/2000/svg" xmlns:xlink="http://www.w3.org/1999/xlink"
	 x="0px" y="0px" viewBox="0 0 688.5 407.1" style="enable-background:new 0 0 688.5 407.1;" xml:space="preserve">
<style type="text/css">
	.st0{fill:#FFFFFF;}
</style>
<path d="M423.2,399.8H69.6c-33.9,0-61.4-27.5-61.4-61.4V65.9C8.2,32,35.7,4.5,69.6,4.5h353.7c33.9,0,61.4,27.5,61.4,61.4v272.5
	C484.7,372.3,457.2,399.8,423.2,399.8z"/>
<g>
	<path class="st0" d="M146,220.1h67.3V310c0,9.9,7.4,18,16.5,18H263c9.1,0,16.5-8,16.5-18v-89.9h67.3c14.8,0,22.1-19.4,11.6-30.7
		L258.8,81.9c-6.9-7.4-18-7.4-24.8,0l-99.6,107.5C123.9,200.7,131.3,220.1,146,220.1z"/>
</g>
<path d="M645.3,379.4l-96.7-43.7c-8.7-3.9-14.3-13-14.3-23.1V95.3c0-10.1,5.6-19.2,14.3-23.1l96.7-43.7c15.5-7,32.7,5.1,32.7,23.1
	v304.7C678,374.3,660.8,386.4,645.3,379.4z"/>
</svg>
