<?xml version="1.0" encoding="utf-8"?>
<!-- Generator: Adobe Illustrator 19.2.1, SVG Export Plug-In . SVG Version: 6.00 Build 0)  -->
<svg version="1.1" id="Layer_1" xmlns="http://www.w3.org/2000/svg" xmlns:xlink="http://www.w3.org/1999/xlink" x="0px" y="0px"
	 viewBox="0 0 1389.5 950.4" style="enable-background:new 0 0 1389.5 950.4;" xml:space="preserve">
<style type="text/css">
	.st0{stroke:#000000;stroke-width:14;stroke-miterlimit:10;}
</style>
<g>
	<path class="st0" d="M524.6,350.4C475.4,447.1,402.7,512.3,295.7,534C187.9,555.9,97.8,515.5,7,442.1c0,144.8,1,276.5-0.4,408.3
		c-0.7,65.3,26.2,93.6,93.6,93.2c307.9-1.8,615.7-1.8,923.6,0c66.3,0.4,95.1-24.7,94.2-91.9c-2-146.8-0.2-293.7-1.1-440.5
		c-0.1-13.8-3.1-27.7-6.7-45.3c-2.2-10.5-15.8-13.2-21.9-4.4C925.6,597.5,652.7,570.8,524.6,350.4z"/>
	<path class="st0" d="M811.2,7.2c-119.3-0.6-217.7,97.4-217.6,216.7c0.1,117.9,101.1,217.5,219.1,216
		c115.1-1.5,212.8-99,214.3-213.9C1028.4,107.3,930.4,7.8,811.2,7.2z"/>
	<path class="st0" d="M454.9,233.8c-0.1-119.2-99.3-218.4-217.3-217.5C119.5,17.2,19.9,118.6,22,236c2,116,98.3,212,214.2,213.8
		C354.1,451.6,455.1,351.9,454.9,233.8z"/>
	<path class="st0" d="M1178.4,840.2c52.4,10.5,96.4,18.6,140,28.2c48.2,10.6,64.6-11,63.9-56.6c-1.2-80.5,0.4-161.1-0.4-241.7
		c-1.5-144.7,24.7-155.2-146.4-117.7c-32.6,7.1-58.5,10.2-57.7,53.9C1179.9,615.2,1178.4,724,1178.4,840.2z"/>
</g>
</svg>
